<?xml version="1.0" encoding="UTF-8" standalone="no"?>
<!DOCTYPE svg PUBLIC "-//W3C//DTD SVG 1.1//EN" "http://www.w3.org/Graphics/SVG/1.1/DTD/svg11.dtd">
<svg xmlns="http://www.w3.org/2000/svg" version="1.1" viewBox="0.00 0.00 855.00 447.00">
<g stroke-width="5.00" fill="none" stroke-linecap="butt">
<path stroke="#939497" vector-effect="non-scaling-stroke" d="
  M 440.61 154.91
  L 451.12 147.59
  Q 452.34 146.74 452.10 145.28
  L 451.30 140.39
  A 0.84 0.82 0.6 0 0 450.61 139.70
  C 447.81 139.21 445.25 139.16 442.58 140.63
  Q 436.79 143.83 431.10 147.24
  A 1.91 1.82 27.9 0 1 430.18 147.50
  C 426.28 147.51 421.02 148.25 417.48 146.47
  C 413.18 144.31 405.61 139.46 400.94 139.48
  Q 391.37 139.51 382.27 139.50
  A 2.01 2.00 -89.9 0 0 380.26 141.51
  L 380.26 167.59
  A 2.15 2.14 90.0 0 0 382.40 169.74
  L 388.00 169.75
  Q 388.50 169.76 388.50 170.25
  L 388.50 197.71
  A 0.74 0.73 -1.2 0 1 387.79 198.44
  L 381.58 198.65
  A 0.84 0.83 6.5 0 0 380.80 199.26
  Q 380.29 201.07 380.28 203.00
  Q 380.21 231.08 380.26 259.02
  Q 380.27 261.75 383.00 261.75
  L 471.70 261.75
  A 1.98 1.97 -86.0 0 0 473.65 260.05
  Q 473.95 257.92 473.97 255.00
  Q 474.15 205.92 473.67 157.22
  A 1.74 1.73 -0.2 0 0 471.93 155.50
  L 440.80 155.50
  Q 439.77 155.50 440.61 154.91"
/>
<path stroke="#939497" vector-effect="non-scaling-stroke" d="
  M 379.98 285.88
  C 382.39 287.24 390.24 289.62 389.43 292.83
  A 1.79 1.79 0.0 0 1 387.49 294.16
  L 380.46 293.34
  Q 379.98 293.28 379.80 293.74
  L 379.23 295.17
  Q 379.01 295.74 379.60 295.91
  C 383.78 297.09 391.23 298.81 392.56 292.93
  C 394.31 285.22 378.97 286.10 381.57 280.57
  A 1.36 1.35 16.9 0 1 383.00 279.81
  L 389.95 280.89
  A 0.49 0.48 -78.2 0 0 390.49 280.53
  L 390.83 279.09
  Q 390.96 278.55 390.46 278.30
  C 387.05 276.62 381.47 275.68 378.95 279.25
  Q 377.01 281.98 379.56 285.51
  A 1.33 1.33 0.0 0 0 379.98 285.88"
/>
<path stroke="#939497" vector-effect="non-scaling-stroke" d="
  M 525.19 286.06
  C 526.59 287.06 535.68 289.80 534.12 293.04
  A 1.56 1.54 -80.4 0 1 532.91 293.91
  C 531.07 294.15 525.98 293.01 525.02 293.44
  Q 523.89 293.94 524.06 295.44
  Q 524.11 295.84 524.50 295.94
  C 529.05 297.12 535.58 298.43 537.18 293.68
  C 539.08 288.07 530.73 285.39 526.94 283.67
  A 1.83 1.83 0.0 0 1 526.08 281.15
  C 527.29 278.89 532.54 280.48 534.47 281.05
  A 0.56 0.56 0.0 0 0 535.16 280.69
  L 535.72 278.97
  Q 535.89 278.48 535.40 278.29
  Q 530.06 276.26 527.77 276.76
  C 523.03 277.80 520.91 283.01 525.19 286.06"
/>
<path stroke="#939497" vector-effect="non-scaling-stroke" d="
  M 546.04 281.79
  C 546.32 278.52 552.91 280.50 554.67 281.05
  A 0.53 0.52 -73.3 0 0 555.33 280.69
  L 555.82 278.97
  Q 555.98 278.39 555.42 278.20
  C 550.99 276.69 544.71 275.49 543.27 280.49
  C 540.91 288.66 556.42 287.76 554.31 293.02
  A 1.82 1.82 0.0 0 1 552.42 294.16
  L 545.28 293.37
  A 0.49 0.49 0.0 0 0 544.78 293.65
  L 544.15 295.12
  Q 543.87 295.75 544.54 295.93
  C 547.56 296.73 552.87 297.86 555.51 296.03
  C 558.31 294.08 558.18 289.14 554.95 287.53
  Q 550.87 285.52 547.10 283.67
  A 1.92 1.92 0.0 0 1 546.04 281.79"
/>
<path stroke="#939497" vector-effect="non-scaling-stroke" d="
  M 306.51 291.08
  A 0.50 0.50 0.0 0 1 307.10 291.44
  L 308.39 296.38
  A 0.50 0.50 0.0 0 0 308.88 296.75
  L 311.06 296.75
  A 0.50 0.50 0.0 0 0 311.54 296.11
  L 306.17 277.36
  A 0.50 0.50 0.0 0 0 305.69 277.00
  L 301.79 277.00
  A 0.50 0.50 0.0 0 0 301.31 277.36
  L 295.98 296.11
  A 0.50 0.50 0.0 0 0 296.46 296.75
  L 298.54 296.75
  A 0.50 0.50 0.0 0 0 299.02 296.39
  L 300.09 292.75
  A 0.50 0.50 0.0 0 1 300.46 292.41
  L 306.51 291.08"
/>
<path stroke="#939497" vector-effect="non-scaling-stroke" d="
  M 321.65 293.75
  A 0.65 0.65 0.0 0 1 321.00 293.10
  L 321.00 277.65
  A 0.65 0.65 0.0 0 0 320.35 277.00
  L 318.65 277.00
  A 0.65 0.65 0.0 0 0 318.00 277.65
  L 318.00 296.10
  A 0.65 0.65 0.0 0 0 318.65 296.75
  L 328.83 296.75
  A 0.65 0.65 0.0 0 0 329.48 296.11
  L 329.51 294.41
  A 0.65 0.65 0.0 0 0 328.86 293.75
  L 321.65 293.75"
/>
<path stroke="#939497" vector-effect="non-scaling-stroke" d="
  M 346.11 291.74
  L 347.37 296.23
  Q 347.52 296.75 348.06 296.75
  L 350.09 296.75
  Q 350.72 296.75 350.55 296.15
  L 345.59 278.78
  A 2.96 2.96 0.0 0 0 339.89 278.79
  L 335.00 296.04
  A 0.56 0.56 0.0 0 0 335.54 296.75
  L 337.25 296.75
  A 0.90 0.90 0.0 0 0 338.12 296.08
  L 339.01 292.85
  A 0.68 0.68 0.0 0 1 339.51 292.37
  L 345.14 291.15
  Q 345.90 290.99 346.11 291.74"
/>
<path stroke="#939497" vector-effect="non-scaling-stroke" d="
  M 360.00 283.77
  A 0.35 0.35 0.0 0 1 360.65 283.59
  L 368.22 296.58
  A 0.35 0.35 0.0 0 0 368.52 296.75
  L 371.40 296.75
  A 0.35 0.35 0.0 0 0 371.75 296.40
  L 371.75 277.35
  A 0.35 0.35 0.0 0 0 371.40 277.00
  L 369.10 277.00
  A 0.35 0.35 0.0 0 0 368.75 277.35
  L 368.75 290.26
  A 0.35 0.35 0.0 0 1 368.10 290.44
  L 360.38 277.17
  A 0.35 0.35 0.0 0 0 360.08 277.00
  L 357.03 277.00
  A 0.35 0.35 0.0 0 0 356.68 277.35
  L 356.95 296.40
  A 0.35 0.35 0.0 0 0 357.30 296.75
  L 359.65 296.75
  A 0.35 0.35 0.0 0 0 360.00 296.40
  L 360.00 283.77"
/>
<path stroke="#939497" vector-effect="non-scaling-stroke" d="
  M 408.78 291.09
  A 0.50 0.50 0.0 0 1 409.36 291.45
  L 410.70 296.36
  A 0.50 0.50 0.0 0 0 411.18 296.73
  L 413.36 296.75
  A 0.50 0.50 0.0 0 0 413.84 296.12
  L 408.44 277.36
  A 0.50 0.50 0.0 0 0 407.96 277.00
  L 404.10 277.00
  A 0.50 0.50 0.0 0 0 403.62 277.36
  L 398.25 296.11
  A 0.50 0.50 0.0 0 0 398.73 296.75
  L 400.84 296.75
  A 0.50 0.50 0.0 0 0 401.32 296.39
  L 402.35 292.75
  A 0.50 0.50 0.0 0 1 402.72 292.40
  L 408.78 291.09"
/>
<path stroke="#939497" vector-effect="non-scaling-stroke" d="
  M 431.86 289.12
  Q 434.72 287.63 435.00 285.01
  C 435.98 275.75 426.65 276.92 420.72 276.99
  A 0.74 0.73 89.6 0 0 420.00 277.73
  L 420.00 296.25
  Q 420.00 296.75 420.50 296.75
  L 422.37 296.75
  Q 423.00 296.75 423.00 296.13
  L 423.00 290.93
  Q 423.00 290.20 423.72 290.17
  Q 430.20 289.83 431.59 296.20
  Q 431.71 296.75 432.27 296.75
  L 434.25 296.75
  Q 434.90 296.75 434.80 296.11
  Q 434.24 292.51 431.73 289.90
  Q 431.28 289.42 431.86 289.12"
/>
<path stroke="#939497" vector-effect="non-scaling-stroke" d="
  M 444.25 277.32
  A 0.31 0.31 0.0 0 0 443.94 277.01
  L 441.56 277.01
  A 0.31 0.31 0.0 0 0 441.25 277.32
  L 441.25 296.44
  A 0.31 0.31 0.0 0 0 441.56 296.75
  L 443.94 296.75
  A 0.31 0.31 0.0 0 0 444.25 296.44
  L 444.25 277.32"
/>
<path stroke="#939497" vector-effect="non-scaling-stroke" d="
  M 467.24 290.26
  C 472.53 290.14 478.90 290.47 478.51 283.16
  C 478.12 275.80 470.12 276.87 464.20 277.06
  Q 463.75 277.08 463.75 277.53
  L 463.75 296.25
  Q 463.75 296.75 464.25 296.75
  L 466.12 296.75
  Q 466.75 296.75 466.75 296.12
  L 466.75 290.76
  Q 466.75 290.27 467.24 290.26"
/>
<path stroke="#939497" vector-effect="non-scaling-stroke" d="
  M 488.29 290.17
  Q 494.82 289.80 496.31 296.36
  Q 496.40 296.75 496.80 296.75
  L 498.78 296.75
  Q 499.47 296.75 499.37 296.06
  Q 498.86 292.60 496.50 290.07
  Q 496.09 289.63 496.59 289.29
  C 501.61 285.86 500.21 277.63 493.93 277.08
  Q 491.35 276.85 485.20 277.05
  Q 484.75 277.07 484.75 277.52
  L 484.75 296.25
  Q 484.75 296.75 485.25 296.75
  L 487.00 296.75
  Q 487.75 296.75 487.75 296.00
  L 487.75 290.74
  Q 487.75 290.20 488.29 290.17"
/>
<path stroke="#939497" vector-effect="non-scaling-stroke" d="
  M 509.40 293.75
  A 0.40 0.40 0.0 0 1 509.00 293.35
  L 509.00 288.15
  A 0.40 0.40 0.0 0 1 509.40 287.75
  L 515.60 287.75
  A 0.40 0.40 0.0 0 0 516.00 287.35
  L 516.00 285.15
  A 0.40 0.40 0.0 0 0 515.60 284.75
  L 509.40 284.75
  A 0.40 0.40 0.0 0 1 509.00 284.35
  L 509.00 280.65
  A 0.40 0.40 0.0 0 1 509.40 280.25
  L 516.19 280.25
  A 0.40 0.40 0.0 0 0 516.59 279.86
  L 516.67 277.41
  A 0.40 0.40 0.0 0 0 516.27 277.00
  L 506.40 277.00
  A 0.40 0.40 0.0 0 0 506.00 277.40
  L 506.00 296.35
  A 0.40 0.40 0.0 0 0 506.40 296.75
  L 516.85 296.75
  A 0.40 0.40 0.0 0 0 517.25 296.35
  L 517.25 294.15
  A 0.40 0.40 0.0 0 0 516.85 293.75
  L 509.40 293.75"
/>
<path stroke="#939497" vector-effect="non-scaling-stroke" d="
  M 323.02 307.85
  L 323.02 306.38
  Q 323.01 305.78 323.61 305.91
  Q 325.45 306.34 327.08 305.63
  A 0.41 0.41 0.0 0 0 326.92 304.84
  L 322.65 304.71
  Q 322.00 304.70 322.00 305.35
  L 322.00 312.48
  A 0.46 0.46 0.0 0 0 322.91 312.55
  Q 323.11 311.35 322.96 310.15
  A 0.58 0.58 0.0 0 1 323.54 309.50
  L 326.59 309.50
  Q 326.87 309.50 326.87 309.22
  L 326.88 308.93
  Q 326.88 308.50 326.45 308.50
  L 323.66 308.50
  A 0.65 0.64 90.0 0 1 323.02 307.85"
/>
<path stroke="#939497" vector-effect="non-scaling-stroke" d="
  M 338.59 308.96
  A 4.24 4.24 0.0 0 0 334.35 304.72
  A 4.24 4.24 0.0 0 0 330.11 308.96
  A 4.24 4.24 0.0 0 0 334.35 313.20
  A 4.24 4.24 0.0 0 0 338.59 308.96"
/>
<path stroke="#939497" vector-effect="non-scaling-stroke" d="
  M 344.40 309.51
  L 347.18 313.28
  A 0.43 0.43 0.0 0 0 347.90 312.81
  L 346.15 309.90
  A 0.53 0.51 -37.6 0 1 346.24 309.26
  L 347.26 308.29
  Q 347.66 307.92 347.70 307.37
  C 347.89 304.81 344.87 304.54 342.64 304.85
  Q 342.25 304.91 342.25 305.30
  L 342.25 312.53
  Q 342.25 312.83 342.53 312.92
  Q 342.68 312.98 342.86 313.03
  Q 343.31 313.18 343.34 312.71
  L 343.56 309.75
  A 0.47 0.46 28.9 0 1 344.40 309.51"
/>
<path stroke="#939497" vector-effect="non-scaling-stroke" d="
  M 357.75 307.75
  L 357.75 306.63
  Q 357.75 306.00 358.38 306.00
  L 361.21 306.00
  A 0.62 0.61 -44.2 0 0 361.23 304.77
  Q 359.33 304.73 357.43 304.75
  Q 356.75 304.76 356.75 305.44
  L 356.75 312.38
  Q 356.75 313.01 357.38 313.00
  L 361.94 312.99
  A 0.49 0.49 0.0 0 0 361.94 312.01
  L 358.37 311.99
  A 0.62 0.62 0.0 0 1 357.75 311.37
  L 357.75 309.79
  A 0.57 0.57 0.0 0 1 358.38 309.22
  Q 360.39 309.44 362.37 308.83
  A 0.19 0.19 0.0 0 0 362.34 308.46
  Q 360.32 308.20 358.26 308.25
  Q 357.75 308.27 357.75 307.75"
/>
<path stroke="#939497" vector-effect="non-scaling-stroke" d="
  M 365.50 305.60
  L 365.50 312.22
  A 0.82 0.82 0.0 0 0 366.32 313.04
  L 368.27 313.04
  A 4.25 3.84 0.0 0 0 372.52 309.20
  L 372.52 308.62
  A 4.25 3.84 -0.0 0 0 368.27 304.78
  L 366.32 304.78
  A 0.82 0.82 0.0 0 0 365.50 305.60"
/>
<path stroke="#939497" vector-effect="non-scaling-stroke" d="
  M 377.82 312.73
  C 383.46 314.70 382.54 308.20 382.47 305.22
  Q 382.46 304.76 382.01 304.75
  Q 381.88 304.75 381.76 304.75
  A 0.50 0.50 0.0 0 0 381.25 305.25
  L 381.25 311.06
  A 0.74 0.74 0.0 0 1 380.55 311.80
  L 378.55 311.95
  A 0.87 0.87 0.0 0 1 377.64 311.28
  C 377.36 310.12 377.44 305.40 377.23 305.07
  Q 377.12 304.88 376.90 304.82
  Q 376.24 304.61 376.25 305.30
  L 376.26 310.55
  A 2.32 2.30 9.6 0 0 377.82 312.73"
/>
<path stroke="#939497" vector-effect="non-scaling-stroke" d="
  M 392.07 305.16
  C 383.36 301.99 385.27 317.27 392.69 312.21
  Q 393.03 311.97 392.93 311.47
  A 0.41 0.41 0.0 0 0 392.28 311.22
  C 386.21 315.61 385.17 302.97 392.12 306.29
  Q 392.59 306.51 392.68 306.00
  Q 392.78 305.42 392.07 305.16"
/>
<path stroke="#939497" vector-effect="non-scaling-stroke" d="
  M 401.94 311.62
  Q 402.01 312.67 403.01 313.00
  Q 403.86 313.29 403.51 312.47
  L 400.32 305.00
  A 0.61 0.60 45.4 0 0 399.21 304.99
  L 395.91 312.44
  A 0.48 0.48 0.0 0 0 396.75 312.89
  L 397.70 311.38
  A 0.82 0.82 0.0 0 1 398.39 311.00
  L 401.28 311.00
  A 0.66 0.66 0.0 0 1 401.94 311.62"
/>
<path stroke="#939497" vector-effect="non-scaling-stroke" d="
  M 407.37 306.56
  Q 407.84 309.59 407.47 311.76
  Q 407.31 312.69 408.06 313.07
  A 0.50 0.50 0.0 0 0 408.79 312.62
  L 408.63 306.46
  Q 408.62 305.82 409.24 305.97
  Q 410.43 306.26 411.28 305.51
  A 0.44 0.43 -66.0 0 0 410.99 304.75
  L 405.31 304.76
  A 0.55 0.55 0.0 0 0 405.24 305.86
  L 406.88 306.08
  Q 407.30 306.14 407.37 306.56"
/>
<path stroke="#939497" vector-effect="non-scaling-stroke" d="
  M 415.6514 305.3420
  A 0.57 0.57 0.0 0 0 415.0735 304.7800
  L 415.0135 304.7808
  A 0.57 0.57 0.0 0 0 414.4515 305.3587
  L 414.5486 312.3180
  A 0.57 0.57 0.0 0 0 415.1265 312.8800
  L 415.1865 312.8792
  A 0.57 0.57 0.0 0 0 415.7485 312.3013
  L 415.6514 305.3420"
/>
<path stroke="#939497" vector-effect="non-scaling-stroke" d="
  M 427.75 308.94
  A 4.23 4.23 0.0 0 0 423.52 304.71
  A 4.23 4.23 0.0 0 0 419.29 308.94
  A 4.23 4.23 0.0 0 0 423.52 313.17
  A 4.23 4.23 0.0 0 0 427.75 308.94"
/>
<path stroke="#939497" vector-effect="non-scaling-stroke" d="
  M 432.47 307.41
  A 0.41 0.40 -62.7 0 1 433.21 307.17
  L 436.94 312.74
  A 0.85 0.85 0.0 0 0 438.50 312.27
  L 438.50 305.26
  A 0.61 0.60 47.3 0 0 437.29 305.21
  Q 437.11 307.60 437.42 309.94
  A 0.52 0.51 -65.4 0 1 436.48 310.29
  L 433.13 305.15
  A 0.91 0.91 0.0 0 0 431.46 305.63
  L 431.40 312.80
  A 0.44 0.44 0.0 0 0 432.24 312.99
  Q 432.37 312.74 432.47 312.64
  Q 432.58 312.52 432.58 312.36
  L 432.47 307.41"
/>
<path stroke="#939497" vector-effect="non-scaling-stroke" d="
  M 447.90 311.60
  L 448.37 312.79
  A 0.33 0.33 0.0 0 0 448.68 313.00
  Q 448.91 313.00 449.11 313.00
  Q 449.67 313.01 449.45 312.50
  L 446.31 305.10
  A 0.65 0.64 -44.8 0 0 445.13 305.10
  L 441.78 312.69
  A 0.42 0.42 0.0 0 0 442.53 313.08
  L 443.64 311.25
  A 0.55 0.54 16.1 0 1 444.10 311.00
  L 447.03 311.00
  A 0.93 0.93 0.0 0 1 447.90 311.60"
/>
<path stroke="#939497" vector-effect="non-scaling-stroke" d="
  M 453.75 311.33
  L 453.75 305.31
  A 0.49 0.48 -75.0 0 0 453.51 304.89
  L 453.23 304.72
  Q 452.75 304.44 452.75 305.00
  L 452.75 312.40
  Q 452.75 313.06 453.40 313.04
  L 457.70 312.91
  A 0.40 0.40 0.0 0 0 457.71 312.11
  L 454.33 311.94
  Q 453.75 311.91 453.75 311.33"
/>
<path stroke="#939497" vector-effect="non-scaling-stroke" d="
  M 475.75 307.75
  L 475.75 306.63
  A 0.62 0.62 0.0 0 1 476.37 306.01
  L 479.31 305.98
  A 0.62 0.61 -45.1 0 0 479.31 304.75
  L 475.55 304.75
  Q 474.85 304.75 474.81 305.45
  L 474.44 312.35
  A 0.60 0.60 0.0 0 0 475.04 312.98
  L 479.77 312.98
  A 0.47 0.47 0.0 0 0 479.80 312.04
  Q 478.05 311.96 476.34 312.02
  Q 475.75 312.04 475.75 311.45
  L 475.75 309.88
  Q 475.75 309.25 476.38 309.25
  L 479.25 309.25
  Q 479.50 309.25 479.50 309.00
  Q 479.50 308.87 479.50 308.74
  Q 479.49 308.25 479.00 308.25
  L 476.25 308.25
  Q 475.75 308.25 475.75 307.75"
/>
<path stroke="#939497" vector-effect="non-scaling-stroke" d="
  M 484.70 309.75
  A 0.65 0.65 0.0 0 1 485.90 309.33
  Q 487.01 311.24 488.16 312.78
  Q 488.31 312.98 488.48 313.03
  Q 488.72 313.09 488.93 313.01
  Q 489.57 312.77 489.16 312.22
  L 487.51 310.02
  A 0.50 0.49 -40.1 0 1 487.57 309.35
  L 489.17 307.87
  A 0.85 0.85 0.0 0 0 489.33 306.83
  Q 487.72 304.00 484.32 304.83
  Q 483.75 304.97 483.75 305.57
  L 483.76 312.67
  A 0.52 0.51 -42.7 0 0 484.79 312.71
  Q 484.92 311.29 484.70 309.75"
/>
<path stroke="#939497" vector-effect="non-scaling-stroke" d="
  M 495.22 310.73
  Q 494.20 308.11 493.31 305.36
  Q 493.19 304.98 492.98 304.84
  Q 492.69 304.64 492.36 304.75
  Q 491.81 304.93 492.02 305.46
  L 494.84 312.66
  A 0.66 0.66 0.0 0 0 496.07 312.67
  Q 497.61 308.96 498.87 305.34
  Q 498.94 305.15 498.88 305.02
  Q 498.77 304.73 498.38 304.76
  A 0.47 0.47 0.0 0 0 497.97 305.06
  L 495.83 310.73
  A 0.33 0.33 0.0 0 1 495.22 310.73"
/>
<path stroke="#939497" vector-effect="non-scaling-stroke" d="
  M 503.2566 305.0482
  A 0.26 0.26 0.0 0 0 502.9957 304.7892
  L 502.4957 304.7909
  A 0.26 0.26 0.0 0 0 502.2366 305.0518
  L 502.2634 312.7318
  A 0.26 0.26 0.0 0 0 502.5243 312.9908
  L 503.0243 312.9891
  A 0.26 0.26 0.0 0 0 503.2834 312.7282
  L 503.2566 305.0482"
/>
<path stroke="#939497" vector-effect="non-scaling-stroke" d="
  M 509.55 306.32
  Q 511.45 305.50 513.23 306.48
  A 0.38 0.37 10.3 0 0 513.78 306.10
  Q 513.61 304.75 511.97 304.72
  C 503.13 304.57 507.87 317.06 513.81 312.04
  Q 514.08 311.81 513.94 311.49
  L 513.78 311.13
  Q 513.60 310.73 513.29 311.04
  C 510.29 313.96 506.97 310.31 508.81 306.99
  A 1.54 1.50 2.0 0 1 509.55 306.32"
/>
<path stroke="#939497" vector-effect="non-scaling-stroke" d="
  M 519.47 306.00
  L 522.21 306.00
  A 0.62 0.61 -44.2 0 0 522.23 304.77
  Q 520.33 304.73 518.43 304.75
  Q 517.75 304.76 517.75 305.44
  L 517.75 312.38
  Q 517.75 313.01 518.38 313.00
  L 522.94 312.99
  A 0.49 0.49 0.0 0 0 522.94 312.01
  L 519.37 311.99
  A 0.62 0.62 0.0 0 1 518.75 311.37
  L 518.75 309.88
  Q 518.75 309.26 519.37 309.26
  L 522.71 309.23
  A 0.37 0.37 0.0 0 0 522.75 308.50
  L 519.49 308.08
  Q 518.90 308.01 518.86 307.42
  L 518.80 306.72
  Q 518.75 306.00 519.47 306.00"
/>
<path stroke="#939497" vector-effect="non-scaling-stroke" d="
  M 467.01 311.85
  L 466.29 311.23
  A 0.14 0.13 -61.8 0 0 466.07 311.30
  L 465.93 311.72
  Q 465.81 312.08 466.10 312.32
  C 469.44 315.13 474.07 309.49 467.82 308.03
  A 1.13 1.13 0.0 0 1 467.65 305.89
  C 468.64 305.48 469.16 306.28 470.07 306.21
  Q 470.41 306.18 470.58 305.95
  Q 470.90 305.48 470.36 305.30
  Q 468.75 304.74 466.98 305.15
  A 1.97 1.97 0.0 0 0 466.76 308.93
  L 469.06 309.75
  A 1.08 1.08 0.0 0 1 468.95 311.82
  L 467.89 312.07
  Q 467.39 312.18 467.01 311.85"
/>
<path stroke="#939497" vector-effect="non-scaling-stroke" d="
  M 529.60 309.67
  A 1.21 1.20 -36.1 0 1 529.23 312.01
  Q 528.07 312.04 527.01 311.45
  A 0.34 0.34 0.0 0 0 526.50 311.75
  Q 526.50 311.97 526.49 312.17
  Q 526.46 312.85 527.14 312.88
  L 529.84 312.99
  A 1.97 1.97 0.0 0 0 531.29 309.61
  Q 529.97 308.32 528.18 308.05
  Q 527.47 307.94 527.68 307.25
  L 528.02 306.18
  A 0.55 0.54 -78.5 0 1 528.60 305.79
  L 530.82 306.02
  A 0.35 0.35 0.0 0 0 531.01 305.36
  C 529.05 304.39 525.18 305.10 526.73 308.22
  Q 527.00 308.76 527.56 308.96
  L 529.60 309.67"
/>
<path stroke="#939497" vector-effect="non-scaling-stroke" d="
  M 384.40 164.96
  Q 384.13 165.22 384.34 165.47
  Q 384.58 165.75 384.94 165.75
  L 469.25 165.75
  Q 469.75 165.75 469.75 165.25
  L 469.75 160.25
  Q 469.75 159.75 469.25 159.75
  L 419.38 159.75
  A 2.38 2.38 0.0 0 1 417.00 157.37
  L 417.00 151.45
  Q 417.00 150.80 416.43 150.51
  Q 410.28 147.32 404.07 144.22
  C 399.93 142.16 389.90 143.26 385.01 143.25
  Q 384.50 143.25 384.50 143.76
  L 384.50 164.72
  Q 384.50 164.86 384.40 164.96"
/>
<path stroke="#939497" vector-effect="non-scaling-stroke" d="
  M 447.68 143.56
  Q 446.74 143.07 446.10 143.41
  Q 440.18 146.56 434.38 150.04
  C 430.71 152.24 425.71 151.65 421.61 151.43
  Q 421.00 151.40 421.00 152.01
  L 421.00 154.87
  Q 421.00 155.50 421.63 155.50
  L 432.00 155.50
  Q 432.53 155.50 432.95 155.20
  L 447.76 144.80
  A 0.73 0.72 -48.8 0 0 447.68 143.56"
/>
<path stroke="#939497" vector-effect="non-scaling-stroke" d="
  M 392.49 197.38
  Q 392.44 197.61 392.49 197.87
  Q 392.58 198.39 393.11 198.42
  C 401.76 198.75 412.60 199.62 419.86 194.71
  Q 420.42 194.33 419.77 194.18
  C 410.26 191.90 412.57 177.65 412.80 170.32
  A 0.55 0.54 -89.0 0 0 412.26 169.75
  L 392.99 169.75
  Q 392.48 169.75 392.48 170.26
  L 392.53 196.99
  Q 392.53 197.18 392.49 197.38"
/>
<path stroke="#939497" vector-effect="non-scaling-stroke" d="
  M 417.14 186.73
  C 417.21 189.77 419.99 190.39 422.51 190.38
  Q 445.87 190.28 469.26 190.22
  Q 469.75 190.21 469.75 189.73
  L 469.75 170.25
  Q 469.75 169.75 469.25 169.75
  L 417.51 169.75
  Q 417.00 169.75 417.00 170.25
  Q 416.95 178.56 417.14 186.73"
/>
<path stroke="#939497" vector-effect="non-scaling-stroke" d="
  M 384.40 211.96
  Q 384.13 212.22 384.34 212.47
  Q 384.58 212.75 384.94 212.75
  L 469.25 212.75
  Q 469.75 212.75 469.75 212.25
  L 469.75 195.01
  Q 469.75 194.51 469.25 194.51
  Q 451.88 194.47 434.49 194.51
  Q 427.89 194.53 421.39 198.49
  C 411.30 204.64 396.39 202.47 384.99 202.52
  Q 384.50 202.52 384.50 203.01
  L 384.50 211.72
  Q 384.50 211.86 384.40 211.96"
/>
<path stroke="#939497" vector-effect="non-scaling-stroke" d="
  M 384.48 217.11
  L 384.51 234.76
  Q 384.51 235.25 385.01 235.25
  L 414.26 235.25
  Q 414.77 235.25 414.85 234.75
  C 415.25 232.28 413.96 227.03 416.99 227.02
  Q 427.14 226.97 437.06 227.01
  A 2.20 2.20 0.0 0 1 439.25 229.21
  L 439.25 234.62
  Q 439.25 235.25 439.87 235.25
  L 469.25 235.25
  Q 469.75 235.25 469.75 234.75
  L 469.75 217.25
  Q 469.75 216.75 469.25 216.75
  L 384.83 216.75
  A 0.35 0.35 0.0 0 0 384.48 217.11"
/>
<path stroke="#939497" vector-effect="non-scaling-stroke" d="
  M 435.25 231.67
  A 0.42 0.42 0.0 0 0 434.83 231.25
  L 419.43 231.25
  A 0.42 0.42 0.0 0 0 419.01 231.67
  L 419.01 234.83
  A 0.42 0.42 0.0 0 0 419.43 235.25
  L 434.83 235.25
  A 0.42 0.42 0.0 0 0 435.25 234.83
  L 435.25 231.67"
/>
<path stroke="#939497" vector-effect="non-scaling-stroke" d="
  M 439.24 251.18
  L 439.25 257.00
  Q 439.26 257.75 440.00 257.75
  L 469.25 257.75
  Q 469.75 257.75 469.75 257.25
  L 469.75 239.75
  Q 469.75 239.25 469.25 239.25
  L 385.00 239.25
  Q 384.50 239.25 384.50 239.75
  L 384.50 256.97
  Q 384.50 257.75 385.28 257.75
  L 414.34 257.75
  A 0.65 0.65 0.0 0 0 414.99 257.10
  L 415.00 251.62
  A 2.13 2.13 0.0 0 1 417.13 249.50
  L 437.56 249.50
  A 1.68 1.68 0.0 0 1 439.24 251.18"
/>
<path stroke="#939497" vector-effect="non-scaling-stroke" d="
  M 435.27 254.19
  A 0.44 0.44 0.0 0 0 434.83 253.75
  L 419.45 253.75
  A 0.44 0.44 0.0 0 0 419.01 254.19
  L 419.01 257.31
  A 0.44 0.44 0.0 0 0 419.45 257.75
  L 434.83 257.75
  A 0.44 0.44 0.0 0 0 435.27 257.31
  L 435.27 254.19"
/>
<path stroke="#939497" vector-effect="non-scaling-stroke" d="
  M 441.26 176.14
  A 2.13 2.13 0.0 0 0 439.13 174.01
  L 423.15 174.01
  A 2.13 2.13 0.0 0 0 421.02 176.14
  L 421.02 184.12
  A 2.13 2.13 0.0 0 0 423.15 186.25
  L 439.13 186.25
  A 2.13 2.13 0.0 0 0 441.26 184.12
  L 441.26 176.14"
/>
<path stroke="#939497" vector-effect="non-scaling-stroke" d="
  M 449.5090 174.2805
  A 0.27 0.27 0.0 0 0 449.2404 174.0091
  L 445.7805 173.9910
  A 0.27 0.27 0.0 0 0 445.5091 174.2596
  L 445.4910 177.7195
  A 0.27 0.27 0.0 0 0 445.7596 177.9909
  L 449.2195 178.0090
  A 0.27 0.27 0.0 0 0 449.4909 177.7404
  L 449.5090 174.2805"
/>
<path stroke="#939497" vector-effect="non-scaling-stroke" d="
  M 457.6273 174.5003
  A 0.44 0.44 0.0 0 0 457.1981 174.0497
  L 453.9991 173.9715
  A 0.44 0.44 0.0 0 0 453.5485 174.4006
  L 453.4727 177.4997
  A 0.44 0.44 0.0 0 0 453.9019 177.9503
  L 457.1009 178.0285
  A 0.44 0.44 0.0 0 0 457.5515 177.5994
  L 457.6273 174.5003"
/>
<path stroke="#939497" vector-effect="non-scaling-stroke" d="
  M 465.7282 174.3161
  A 0.32 0.32 0.0 0 0 465.4060 173.9983
  L 462.0461 174.0218
  A 0.32 0.32 0.0 0 0 461.7283 174.3440
  L 461.7518 177.7039
  A 0.32 0.32 0.0 0 0 462.0740 178.0217
  L 465.4339 177.9982
  A 0.32 0.32 0.0 0 0 465.7517 177.6760
  L 465.7282 174.3161"
/>
<path stroke="#939497" vector-effect="non-scaling-stroke" d="
  M 465.7240 182.5489
  A 0.39 0.39 0.0 0 0 465.3279 182.1651
  L 462.1283 182.2154
  A 0.39 0.39 0.0 0 0 461.7445 182.6115
  L 461.7960 185.8911
  A 0.39 0.39 0.0 0 0 462.1921 186.2749
  L 465.3917 186.2246
  A 0.39 0.39 0.0 0 0 465.7755 185.8285
  L 465.7240 182.5489"
/>
<path stroke="#939497" vector-effect="non-scaling-stroke" d="
  M 449.5299 182.5557
  A 0.27 0.27 0.0 0 0 449.2646 182.2810
  L 445.7452 182.2196
  A 0.27 0.27 0.0 0 0 445.4705 182.4848
  L 445.4101 185.9443
  A 0.27 0.27 0.0 0 0 445.6754 186.2190
  L 449.1948 186.2804
  A 0.27 0.27 0.0 0 0 449.4695 186.0152
  L 449.5299 182.5557"
/>
<path stroke="#939497" vector-effect="non-scaling-stroke" d="
  M 457.5785 182.5958
  A 0.35 0.35 0.0 0 0 457.2261 182.2483
  L 453.8461 182.2718
  A 0.35 0.35 0.0 0 0 453.4986 182.6243
  L 453.5215 185.9042
  A 0.35 0.35 0.0 0 0 453.8739 186.2517
  L 457.2539 186.2282
  A 0.35 0.35 0.0 0 0 457.6014 185.8757
  L 457.5785 182.5958"
/>
<path stroke="#939497" vector-effect="non-scaling-stroke" d="
  M 437.2570 178.4094
  A 0.42 0.42 0.0 0 0 436.8363 177.9901
  L 425.4763 178.0099
  A 0.42 0.42 0.0 0 0 425.0570 178.4306
  L 425.0630 181.8306
  A 0.42 0.42 0.0 0 0 425.4837 182.2499
  L 436.8437 182.2301
  A 0.42 0.42 0.0 0 0 437.2630 181.8094
  L 437.2570 178.4094"
/>
<path stroke="#939497" vector-effect="non-scaling-stroke" d="
  M 304.07 281.09
  A 0.33 0.33 0.0 0 0 303.43 281.09
  L 301.30 288.66
  A 0.33 0.33 0.0 0 0 301.70 289.07
  L 305.66 288.10
  A 0.33 0.33 0.0 0 0 305.90 287.69
  L 304.07 281.09"
/>
<path stroke="#939497" vector-effect="non-scaling-stroke" d="
  M 342.62 280.57
  L 340.34 288.56
  Q 340.16 289.18 340.79 289.03
  L 344.42 288.18
  Q 344.98 288.05 344.83 287.49
  L 342.95 280.57
  A 0.17 0.17 0.0 0 0 342.62 280.57"
/>
<path stroke="#939497" vector-effect="non-scaling-stroke" d="
  M 406.39 281.19
  A 0.32 0.32 0.0 0 0 405.78 281.18
  L 403.60 288.66
  A 0.32 0.32 0.0 0 0 403.99 289.06
  L 407.96 288.08
  A 0.32 0.32 0.0 0 0 408.19 287.68
  L 406.39 281.19"
/>
<path stroke="#939497" vector-effect="non-scaling-stroke" d="
  M 423.13 280.80
  L 422.99 286.26
  A 0.64 0.64 0.0 0 0 423.61 286.92
  L 428.11 287.04
  A 3.72 3.24 1.5 0 0 431.92 283.90
  L 431.92 283.64
  A 3.72 3.24 1.5 0 0 428.29 280.30
  L 423.79 280.18
  A 0.64 0.64 0.0 0 0 423.13 280.80"
/>
<path stroke="#939497" vector-effect="non-scaling-stroke" d="
  M 466.76 280.70
  L 466.74 286.58
  A 0.44 0.44 0.0 0 0 467.18 287.03
  L 471.55 287.04
  A 3.95 3.22 0.2 0 0 475.51 283.84
  L 475.51 283.52
  A 3.95 3.22 0.2 0 0 471.57 280.28
  L 467.20 280.27
  A 0.44 0.44 0.0 0 0 466.76 280.70"
/>
<path stroke="#939497" vector-effect="non-scaling-stroke" d="
  M 487.72 281.00
  L 487.74 286.30
  A 0.75 0.75 0.0 0 0 488.49 287.04
  L 492.61 287.03
  A 3.91 3.20 -0.2 0 0 496.51 283.81
  L 496.51 283.41
  A 3.91 3.20 -0.2 0 0 492.59 280.23
  L 488.47 280.24
  A 0.75 0.75 0.0 0 0 487.72 281.00"
/>
<path stroke="#939497" vector-effect="non-scaling-stroke" d="
  M 337.45 308.94
  A 3.07 3.07 0.0 0 0 334.38 305.87
  A 3.07 3.07 0.0 0 0 331.31 308.94
  A 3.07 3.07 0.0 0 0 334.38 312.01
  A 3.07 3.07 0.0 0 0 337.45 308.94"
/>
<path stroke="#939497" vector-effect="non-scaling-stroke" d="
  M 343.55 306.25
  L 343.53 307.99
  A 0.51 0.51 0.0 0 0 344.04 308.50
  L 344.84 308.51
  A 1.65 1.24 0.4 0 0 346.50 307.28
  L 346.50 307.00
  A 1.65 1.24 0.4 0 0 344.86 305.75
  L 344.06 305.74
  A 0.51 0.51 0.0 0 0 343.55 306.25"
/>
<path stroke="#939497" vector-effect="non-scaling-stroke" d="
  M 366.73 306.58
  L 366.73 311.36
  A 0.62 0.62 0.0 0 0 367.36 311.98
  L 367.59 311.98
  A 3.91 2.89 -0.1 0 0 371.49 309.09
  L 371.49 308.85
  A 3.91 2.89 -0.1 0 0 367.57 305.96
  L 367.34 305.96
  A 0.62 0.62 0.0 0 0 366.73 306.58"
/>
<path stroke="#939497" vector-effect="non-scaling-stroke" d="
  M 399.11 310.00
  L 400.50 310.00
  A 0.52 0.52 0.0 0 0 400.97 309.27
  L 399.98 307.01
  A 0.36 0.36 0.0 0 0 399.31 307.02
  L 398.50 309.11
  Q 398.15 310.00 399.11 310.00"
/>
<path stroke="#939497" vector-effect="non-scaling-stroke" d="
  M 426.63 308.95
  A 3.13 3.13 0.0 0 0 423.50 305.82
  A 3.13 3.13 0.0 0 0 420.37 308.95
  A 3.13 3.13 0.0 0 0 423.50 312.08
  A 3.13 3.13 0.0 0 0 426.63 308.95"
/>
<path stroke="#939497" vector-effect="non-scaling-stroke" d="
  M 444.37 309.44
  A 0.44 0.44 0.0 0 0 444.79 310.03
  L 446.61 309.99
  A 0.44 0.44 0.0 0 0 447.01 309.38
  L 446.04 307.05
  A 0.44 0.44 0.0 0 0 445.22 307.07
  L 444.37 309.44"
/>
<path stroke="#939497" vector-effect="non-scaling-stroke" d="
  M 487.9153 306.7984
  A 1.12 1.12 0.0 0 0 486.7400 305.7365
  L 485.7413 305.7871
  A 1.12 1.12 0.0 0 0 484.6794 306.9623
  L 484.7047 307.4616
  A 1.12 1.12 0.0 0 0 485.8800 308.5235
  L 486.8787 308.4729
  A 1.12 1.12 0.0 0 0 487.9406 307.2977
  L 487.9153 306.7984"
/>
</g>
<path fill="#f7f8fc" d="
  M 0.00 0.00
  L 855.00 0.00
  L 855.00 447.00
  L 0.00 447.00
  L 0.00 0.00
  Z
  M 440.61 154.91
  L 451.12 147.59
  Q 452.34 146.74 452.10 145.28
  L 451.30 140.39
  A 0.84 0.82 0.6 0 0 450.61 139.70
  C 447.81 139.21 445.25 139.16 442.58 140.63
  Q 436.79 143.83 431.10 147.24
  A 1.91 1.82 27.9 0 1 430.18 147.50
  C 426.28 147.51 421.02 148.25 417.48 146.47
  C 413.18 144.31 405.61 139.46 400.94 139.48
  Q 391.37 139.51 382.27 139.50
  A 2.01 2.00 -89.9 0 0 380.26 141.51
  L 380.26 167.59
  A 2.15 2.14 90.0 0 0 382.40 169.74
  L 388.00 169.75
  Q 388.50 169.76 388.50 170.25
  L 388.50 197.71
  A 0.74 0.73 -1.2 0 1 387.79 198.44
  L 381.58 198.65
  A 0.84 0.83 6.5 0 0 380.80 199.26
  Q 380.29 201.07 380.28 203.00
  Q 380.21 231.08 380.26 259.02
  Q 380.27 261.75 383.00 261.75
  L 471.70 261.75
  A 1.98 1.97 -86.0 0 0 473.65 260.05
  Q 473.95 257.92 473.97 255.00
  Q 474.15 205.92 473.67 157.22
  A 1.74 1.73 -0.2 0 0 471.93 155.50
  L 440.80 155.50
  Q 439.77 155.50 440.61 154.91
  Z
  M 379.98 285.88
  C 382.39 287.24 390.24 289.62 389.43 292.83
  A 1.79 1.79 0.0 0 1 387.49 294.16
  L 380.46 293.34
  Q 379.98 293.28 379.80 293.74
  L 379.23 295.17
  Q 379.01 295.74 379.60 295.91
  C 383.78 297.09 391.23 298.81 392.56 292.93
  C 394.31 285.22 378.97 286.10 381.57 280.57
  A 1.36 1.35 16.9 0 1 383.00 279.81
  L 389.95 280.89
  A 0.49 0.48 -78.2 0 0 390.49 280.53
  L 390.83 279.09
  Q 390.96 278.55 390.46 278.30
  C 387.05 276.62 381.47 275.68 378.95 279.25
  Q 377.01 281.98 379.56 285.51
  A 1.33 1.33 0.0 0 0 379.98 285.88
  Z
  M 525.19 286.06
  C 526.59 287.06 535.68 289.80 534.12 293.04
  A 1.56 1.54 -80.4 0 1 532.91 293.91
  C 531.07 294.15 525.98 293.01 525.02 293.44
  Q 523.89 293.94 524.06 295.44
  Q 524.11 295.84 524.50 295.94
  C 529.05 297.12 535.58 298.43 537.18 293.68
  C 539.08 288.07 530.73 285.39 526.94 283.67
  A 1.83 1.83 0.0 0 1 526.08 281.15
  C 527.29 278.89 532.54 280.48 534.47 281.05
  A 0.56 0.56 0.0 0 0 535.16 280.69
  L 535.72 278.97
  Q 535.89 278.48 535.40 278.29
  Q 530.06 276.26 527.77 276.76
  C 523.03 277.80 520.91 283.01 525.19 286.06
  Z
  M 546.04 281.79
  C 546.32 278.52 552.91 280.50 554.67 281.05
  A 0.53 0.52 -73.3 0 0 555.33 280.69
  L 555.82 278.97
  Q 555.98 278.39 555.42 278.20
  C 550.99 276.69 544.71 275.49 543.27 280.49
  C 540.91 288.66 556.42 287.76 554.31 293.02
  A 1.82 1.82 0.0 0 1 552.42 294.16
  L 545.28 293.37
  A 0.49 0.49 0.0 0 0 544.78 293.65
  L 544.15 295.12
  Q 543.87 295.75 544.54 295.93
  C 547.56 296.73 552.87 297.86 555.51 296.03
  C 558.31 294.08 558.18 289.14 554.95 287.53
  Q 550.87 285.52 547.10 283.67
  A 1.92 1.92 0.0 0 1 546.04 281.79
  Z
  M 306.51 291.08
  A 0.50 0.50 0.0 0 1 307.10 291.44
  L 308.39 296.38
  A 0.50 0.50 0.0 0 0 308.88 296.75
  L 311.06 296.75
  A 0.50 0.50 0.0 0 0 311.54 296.11
  L 306.17 277.36
  A 0.50 0.50 0.0 0 0 305.69 277.00
  L 301.79 277.00
  A 0.50 0.50 0.0 0 0 301.31 277.36
  L 295.98 296.11
  A 0.50 0.50 0.0 0 0 296.46 296.75
  L 298.54 296.75
  A 0.50 0.50 0.0 0 0 299.02 296.39
  L 300.09 292.75
  A 0.50 0.50 0.0 0 1 300.46 292.41
  L 306.51 291.08
  Z
  M 321.65 293.75
  A 0.65 0.65 0.0 0 1 321.00 293.10
  L 321.00 277.65
  A 0.65 0.65 0.0 0 0 320.35 277.00
  L 318.65 277.00
  A 0.65 0.65 0.0 0 0 318.00 277.65
  L 318.00 296.10
  A 0.65 0.65 0.0 0 0 318.65 296.75
  L 328.83 296.75
  A 0.65 0.65 0.0 0 0 329.48 296.11
  L 329.51 294.41
  A 0.65 0.65 0.0 0 0 328.86 293.75
  L 321.65 293.75
  Z
  M 346.11 291.74
  L 347.37 296.23
  Q 347.52 296.75 348.06 296.75
  L 350.09 296.75
  Q 350.72 296.75 350.55 296.15
  L 345.59 278.78
  A 2.96 2.96 0.0 0 0 339.89 278.79
  L 335.00 296.04
  A 0.56 0.56 0.0 0 0 335.54 296.75
  L 337.25 296.75
  A 0.90 0.90 0.0 0 0 338.12 296.08
  L 339.01 292.85
  A 0.68 0.68 0.0 0 1 339.51 292.37
  L 345.14 291.15
  Q 345.90 290.99 346.11 291.74
  Z
  M 360.00 283.77
  A 0.35 0.35 0.0 0 1 360.65 283.59
  L 368.22 296.58
  A 0.35 0.35 0.0 0 0 368.52 296.75
  L 371.40 296.75
  A 0.35 0.35 0.0 0 0 371.75 296.40
  L 371.75 277.35
  A 0.35 0.35 0.0 0 0 371.40 277.00
  L 369.10 277.00
  A 0.35 0.35 0.0 0 0 368.75 277.35
  L 368.75 290.26
  A 0.35 0.35 0.0 0 1 368.10 290.44
  L 360.38 277.17
  A 0.35 0.35 0.0 0 0 360.08 277.00
  L 357.03 277.00
  A 0.35 0.35 0.0 0 0 356.68 277.35
  L 356.95 296.40
  A 0.35 0.35 0.0 0 0 357.30 296.75
  L 359.65 296.75
  A 0.35 0.35 0.0 0 0 360.00 296.40
  L 360.00 283.77
  Z
  M 408.78 291.09
  A 0.50 0.50 0.0 0 1 409.36 291.45
  L 410.70 296.36
  A 0.50 0.50 0.0 0 0 411.18 296.73
  L 413.36 296.75
  A 0.50 0.50 0.0 0 0 413.84 296.12
  L 408.44 277.36
  A 0.50 0.50 0.0 0 0 407.96 277.00
  L 404.10 277.00
  A 0.50 0.50 0.0 0 0 403.62 277.36
  L 398.25 296.11
  A 0.50 0.50 0.0 0 0 398.73 296.75
  L 400.84 296.75
  A 0.50 0.50 0.0 0 0 401.32 296.39
  L 402.35 292.75
  A 0.50 0.50 0.0 0 1 402.72 292.40
  L 408.78 291.09
  Z
  M 431.86 289.12
  Q 434.72 287.63 435.00 285.01
  C 435.98 275.75 426.65 276.92 420.72 276.99
  A 0.74 0.73 89.6 0 0 420.00 277.73
  L 420.00 296.25
  Q 420.00 296.75 420.50 296.75
  L 422.37 296.75
  Q 423.00 296.75 423.00 296.13
  L 423.00 290.93
  Q 423.00 290.20 423.72 290.17
  Q 430.20 289.83 431.59 296.20
  Q 431.71 296.75 432.27 296.75
  L 434.25 296.75
  Q 434.90 296.75 434.80 296.11
  Q 434.24 292.51 431.73 289.90
  Q 431.28 289.42 431.86 289.12
  Z
  M 444.25 277.32
  A 0.31 0.31 0.0 0 0 443.94 277.01
  L 441.56 277.01
  A 0.31 0.31 0.0 0 0 441.25 277.32
  L 441.25 296.44
  A 0.31 0.31 0.0 0 0 441.56 296.75
  L 443.94 296.75
  A 0.31 0.31 0.0 0 0 444.25 296.44
  L 444.25 277.32
  Z
  M 467.24 290.26
  C 472.53 290.14 478.90 290.47 478.51 283.16
  C 478.12 275.80 470.12 276.87 464.20 277.06
  Q 463.75 277.08 463.75 277.53
  L 463.75 296.25
  Q 463.75 296.75 464.25 296.75
  L 466.12 296.75
  Q 466.75 296.75 466.75 296.12
  L 466.75 290.76
  Q 466.75 290.27 467.24 290.26
  Z
  M 488.29 290.17
  Q 494.82 289.80 496.31 296.36
  Q 496.40 296.75 496.80 296.75
  L 498.78 296.75
  Q 499.47 296.75 499.37 296.06
  Q 498.86 292.60 496.50 290.07
  Q 496.09 289.63 496.59 289.29
  C 501.61 285.86 500.21 277.63 493.93 277.08
  Q 491.35 276.85 485.20 277.05
  Q 484.75 277.07 484.75 277.52
  L 484.75 296.25
  Q 484.75 296.75 485.25 296.75
  L 487.00 296.75
  Q 487.75 296.75 487.75 296.00
  L 487.75 290.74
  Q 487.75 290.20 488.29 290.17
  Z
  M 509.40 293.75
  A 0.40 0.40 0.0 0 1 509.00 293.35
  L 509.00 288.15
  A 0.40 0.40 0.0 0 1 509.40 287.75
  L 515.60 287.75
  A 0.40 0.40 0.0 0 0 516.00 287.35
  L 516.00 285.15
  A 0.40 0.40 0.0 0 0 515.60 284.75
  L 509.40 284.75
  A 0.40 0.40 0.0 0 1 509.00 284.35
  L 509.00 280.65
  A 0.40 0.40 0.0 0 1 509.40 280.25
  L 516.19 280.25
  A 0.40 0.40 0.0 0 0 516.59 279.86
  L 516.67 277.41
  A 0.40 0.40 0.0 0 0 516.27 277.00
  L 506.40 277.00
  A 0.40 0.40 0.0 0 0 506.00 277.40
  L 506.00 296.35
  A 0.40 0.40 0.0 0 0 506.40 296.75
  L 516.85 296.75
  A 0.40 0.40 0.0 0 0 517.25 296.35
  L 517.25 294.15
  A 0.40 0.40 0.0 0 0 516.85 293.75
  L 509.40 293.75
  Z
  M 323.02 307.85
  L 323.02 306.38
  Q 323.01 305.78 323.61 305.91
  Q 325.45 306.34 327.08 305.63
  A 0.41 0.41 0.0 0 0 326.92 304.84
  L 322.65 304.71
  Q 322.00 304.70 322.00 305.35
  L 322.00 312.48
  A 0.46 0.46 0.0 0 0 322.91 312.55
  Q 323.11 311.35 322.96 310.15
  A 0.58 0.58 0.0 0 1 323.54 309.50
  L 326.59 309.50
  Q 326.87 309.50 326.87 309.22
  L 326.88 308.93
  Q 326.88 308.50 326.45 308.50
  L 323.66 308.50
  A 0.65 0.64 90.0 0 1 323.02 307.85
  Z
  M 338.59 308.96
  A 4.24 4.24 0.0 0 0 334.35 304.72
  A 4.24 4.24 0.0 0 0 330.11 308.96
  A 4.24 4.24 0.0 0 0 334.35 313.20
  A 4.24 4.24 0.0 0 0 338.59 308.96
  Z
  M 344.40 309.51
  L 347.18 313.28
  A 0.43 0.43 0.0 0 0 347.90 312.81
  L 346.15 309.90
  A 0.53 0.51 -37.6 0 1 346.24 309.26
  L 347.26 308.29
  Q 347.66 307.92 347.70 307.37
  C 347.89 304.81 344.87 304.54 342.64 304.85
  Q 342.25 304.91 342.25 305.30
  L 342.25 312.53
  Q 342.25 312.83 342.53 312.92
  Q 342.68 312.98 342.86 313.03
  Q 343.31 313.18 343.34 312.71
  L 343.56 309.75
  A 0.47 0.46 28.9 0 1 344.40 309.51
  Z
  M 357.75 307.75
  L 357.75 306.63
  Q 357.75 306.00 358.38 306.00
  L 361.21 306.00
  A 0.62 0.61 -44.2 0 0 361.23 304.77
  Q 359.33 304.73 357.43 304.75
  Q 356.75 304.76 356.75 305.44
  L 356.75 312.38
  Q 356.75 313.01 357.38 313.00
  L 361.94 312.99
  A 0.49 0.49 0.0 0 0 361.94 312.01
  L 358.37 311.99
  A 0.62 0.62 0.0 0 1 357.75 311.37
  L 357.75 309.79
  A 0.57 0.57 0.0 0 1 358.38 309.22
  Q 360.39 309.44 362.37 308.83
  A 0.19 0.19 0.0 0 0 362.34 308.46
  Q 360.32 308.20 358.26 308.25
  Q 357.75 308.27 357.75 307.75
  Z
  M 365.50 305.60
  L 365.50 312.22
  A 0.82 0.82 0.0 0 0 366.32 313.04
  L 368.27 313.04
  A 4.25 3.84 0.0 0 0 372.52 309.20
  L 372.52 308.62
  A 4.25 3.84 -0.0 0 0 368.27 304.78
  L 366.32 304.78
  A 0.82 0.82 0.0 0 0 365.50 305.60
  Z
  M 377.82 312.73
  C 383.46 314.70 382.54 308.20 382.47 305.22
  Q 382.46 304.76 382.01 304.75
  Q 381.88 304.75 381.76 304.75
  A 0.50 0.50 0.0 0 0 381.25 305.25
  L 381.25 311.06
  A 0.74 0.74 0.0 0 1 380.55 311.80
  L 378.55 311.95
  A 0.87 0.87 0.0 0 1 377.64 311.28
  C 377.36 310.12 377.44 305.40 377.23 305.07
  Q 377.12 304.88 376.90 304.82
  Q 376.24 304.61 376.25 305.30
  L 376.26 310.55
  A 2.32 2.30 9.6 0 0 377.82 312.73
  Z
  M 392.07 305.16
  C 383.36 301.99 385.27 317.27 392.69 312.21
  Q 393.03 311.97 392.93 311.47
  A 0.41 0.41 0.0 0 0 392.28 311.22
  C 386.21 315.61 385.17 302.97 392.12 306.29
  Q 392.59 306.51 392.68 306.00
  Q 392.78 305.42 392.07 305.16
  Z
  M 401.94 311.62
  Q 402.01 312.67 403.01 313.00
  Q 403.86 313.29 403.51 312.47
  L 400.32 305.00
  A 0.61 0.60 45.4 0 0 399.21 304.99
  L 395.91 312.44
  A 0.48 0.48 0.0 0 0 396.75 312.89
  L 397.70 311.38
  A 0.82 0.82 0.0 0 1 398.39 311.00
  L 401.28 311.00
  A 0.66 0.66 0.0 0 1 401.94 311.62
  Z
  M 407.37 306.56
  Q 407.84 309.59 407.47 311.76
  Q 407.31 312.69 408.06 313.07
  A 0.50 0.50 0.0 0 0 408.79 312.62
  L 408.63 306.46
  Q 408.62 305.82 409.24 305.97
  Q 410.43 306.26 411.28 305.51
  A 0.44 0.43 -66.0 0 0 410.99 304.75
  L 405.31 304.76
  A 0.55 0.55 0.0 0 0 405.24 305.86
  L 406.88 306.08
  Q 407.30 306.14 407.37 306.56
  Z
  M 415.6514 305.3420
  A 0.57 0.57 0.0 0 0 415.0735 304.7800
  L 415.0135 304.7808
  A 0.57 0.57 0.0 0 0 414.4515 305.3587
  L 414.5486 312.3180
  A 0.57 0.57 0.0 0 0 415.1265 312.8800
  L 415.1865 312.8792
  A 0.57 0.57 0.0 0 0 415.7485 312.3013
  L 415.6514 305.3420
  Z
  M 427.75 308.94
  A 4.23 4.23 0.0 0 0 423.52 304.71
  A 4.23 4.23 0.0 0 0 419.29 308.94
  A 4.23 4.23 0.0 0 0 423.52 313.17
  A 4.23 4.23 0.0 0 0 427.75 308.94
  Z
  M 432.47 307.41
  A 0.41 0.40 -62.7 0 1 433.21 307.17
  L 436.94 312.74
  A 0.85 0.85 0.0 0 0 438.50 312.27
  L 438.50 305.26
  A 0.61 0.60 47.3 0 0 437.29 305.21
  Q 437.11 307.60 437.42 309.94
  A 0.52 0.51 -65.4 0 1 436.48 310.29
  L 433.13 305.15
  A 0.91 0.91 0.0 0 0 431.46 305.63
  L 431.40 312.80
  A 0.44 0.44 0.0 0 0 432.24 312.99
  Q 432.37 312.74 432.47 312.64
  Q 432.58 312.52 432.58 312.36
  L 432.47 307.41
  Z
  M 447.90 311.60
  L 448.37 312.79
  A 0.33 0.33 0.0 0 0 448.68 313.00
  Q 448.91 313.00 449.11 313.00
  Q 449.67 313.01 449.45 312.50
  L 446.31 305.10
  A 0.65 0.64 -44.8 0 0 445.13 305.10
  L 441.78 312.69
  A 0.42 0.42 0.0 0 0 442.53 313.08
  L 443.64 311.25
  A 0.55 0.54 16.1 0 1 444.10 311.00
  L 447.03 311.00
  A 0.93 0.93 0.0 0 1 447.90 311.60
  Z
  M 453.75 311.33
  L 453.75 305.31
  A 0.49 0.48 -75.0 0 0 453.51 304.89
  L 453.23 304.72
  Q 452.75 304.44 452.75 305.00
  L 452.75 312.40
  Q 452.75 313.06 453.40 313.04
  L 457.70 312.91
  A 0.40 0.40 0.0 0 0 457.71 312.11
  L 454.33 311.94
  Q 453.75 311.91 453.75 311.33
  Z
  M 475.75 307.75
  L 475.75 306.63
  A 0.62 0.62 0.0 0 1 476.37 306.01
  L 479.31 305.98
  A 0.62 0.61 -45.1 0 0 479.31 304.75
  L 475.55 304.75
  Q 474.85 304.75 474.81 305.45
  L 474.44 312.35
  A 0.60 0.60 0.0 0 0 475.04 312.98
  L 479.77 312.98
  A 0.47 0.47 0.0 0 0 479.80 312.04
  Q 478.05 311.96 476.34 312.02
  Q 475.75 312.04 475.75 311.45
  L 475.75 309.88
  Q 475.75 309.25 476.38 309.25
  L 479.25 309.25
  Q 479.50 309.25 479.50 309.00
  Q 479.50 308.87 479.50 308.74
  Q 479.49 308.25 479.00 308.25
  L 476.25 308.25
  Q 475.75 308.25 475.75 307.75
  Z
  M 484.70 309.75
  A 0.65 0.65 0.0 0 1 485.90 309.33
  Q 487.01 311.24 488.16 312.78
  Q 488.31 312.98 488.48 313.03
  Q 488.72 313.09 488.93 313.01
  Q 489.57 312.77 489.16 312.22
  L 487.51 310.02
  A 0.50 0.49 -40.1 0 1 487.57 309.35
  L 489.17 307.87
  A 0.85 0.85 0.0 0 0 489.33 306.83
  Q 487.72 304.00 484.32 304.83
  Q 483.75 304.97 483.75 305.57
  L 483.76 312.67
  A 0.52 0.51 -42.7 0 0 484.79 312.71
  Q 484.92 311.29 484.70 309.75
  Z
  M 495.22 310.73
  Q 494.20 308.11 493.31 305.36
  Q 493.19 304.98 492.98 304.84
  Q 492.69 304.64 492.36 304.75
  Q 491.81 304.93 492.02 305.46
  L 494.84 312.66
  A 0.66 0.66 0.0 0 0 496.07 312.67
  Q 497.61 308.96 498.87 305.34
  Q 498.94 305.15 498.88 305.02
  Q 498.77 304.73 498.38 304.76
  A 0.47 0.47 0.0 0 0 497.97 305.06
  L 495.83 310.73
  A 0.33 0.33 0.0 0 1 495.22 310.73
  Z
  M 503.2566 305.0482
  A 0.26 0.26 0.0 0 0 502.9957 304.7892
  L 502.4957 304.7909
  A 0.26 0.26 0.0 0 0 502.2366 305.0518
  L 502.2634 312.7318
  A 0.26 0.26 0.0 0 0 502.5243 312.9908
  L 503.0243 312.9891
  A 0.26 0.26 0.0 0 0 503.2834 312.7282
  L 503.2566 305.0482
  Z
  M 509.55 306.32
  Q 511.45 305.50 513.23 306.48
  A 0.38 0.37 10.3 0 0 513.78 306.10
  Q 513.61 304.75 511.97 304.72
  C 503.13 304.57 507.87 317.06 513.81 312.04
  Q 514.08 311.81 513.94 311.49
  L 513.78 311.13
  Q 513.60 310.73 513.29 311.04
  C 510.29 313.96 506.97 310.31 508.81 306.99
  A 1.54 1.50 2.0 0 1 509.55 306.32
  Z
  M 519.47 306.00
  L 522.21 306.00
  A 0.62 0.61 -44.2 0 0 522.23 304.77
  Q 520.33 304.73 518.43 304.75
  Q 517.75 304.76 517.75 305.44
  L 517.75 312.38
  Q 517.75 313.01 518.38 313.00
  L 522.94 312.99
  A 0.49 0.49 0.0 0 0 522.94 312.01
  L 519.37 311.99
  A 0.62 0.62 0.0 0 1 518.75 311.37
  L 518.75 309.88
  Q 518.75 309.26 519.37 309.26
  L 522.71 309.23
  A 0.37 0.37 0.0 0 0 522.75 308.50
  L 519.49 308.08
  Q 518.90 308.01 518.86 307.42
  L 518.80 306.72
  Q 518.75 306.00 519.47 306.00
  Z
  M 467.01 311.85
  L 466.29 311.23
  A 0.14 0.13 -61.8 0 0 466.07 311.30
  L 465.93 311.72
  Q 465.81 312.08 466.10 312.32
  C 469.44 315.13 474.07 309.49 467.82 308.03
  A 1.13 1.13 0.0 0 1 467.65 305.89
  C 468.64 305.48 469.16 306.28 470.07 306.21
  Q 470.41 306.18 470.58 305.95
  Q 470.90 305.48 470.36 305.30
  Q 468.75 304.74 466.98 305.15
  A 1.97 1.97 0.0 0 0 466.76 308.93
  L 469.06 309.75
  A 1.08 1.08 0.0 0 1 468.95 311.82
  L 467.89 312.07
  Q 467.39 312.18 467.01 311.85
  Z
  M 529.60 309.67
  A 1.21 1.20 -36.1 0 1 529.23 312.01
  Q 528.07 312.04 527.01 311.45
  A 0.34 0.34 0.0 0 0 526.50 311.75
  Q 526.50 311.97 526.49 312.17
  Q 526.46 312.85 527.14 312.88
  L 529.84 312.99
  A 1.97 1.97 0.0 0 0 531.29 309.61
  Q 529.97 308.32 528.18 308.05
  Q 527.47 307.94 527.68 307.25
  L 528.02 306.18
  A 0.55 0.54 -78.5 0 1 528.60 305.79
  L 530.82 306.02
  A 0.35 0.35 0.0 0 0 531.01 305.36
  C 529.05 304.39 525.18 305.10 526.73 308.22
  Q 527.00 308.76 527.56 308.96
  L 529.60 309.67
  Z"
/>
<path fill="#2f3031" d="
  M 440.80 155.50
  L 471.93 155.50
  A 1.74 1.73 -0.2 0 1 473.67 157.22
  Q 474.15 205.92 473.97 255.00
  Q 473.95 257.92 473.65 260.05
  A 1.98 1.97 -86.0 0 1 471.70 261.75
  L 383.00 261.75
  Q 380.27 261.75 380.26 259.02
  Q 380.21 231.08 380.28 203.00
  Q 380.29 201.07 380.80 199.26
  A 0.84 0.83 6.5 0 1 381.58 198.65
  L 387.79 198.44
  A 0.74 0.73 -1.2 0 0 388.50 197.71
  L 388.50 170.25
  Q 388.50 169.76 388.00 169.75
  L 382.40 169.74
  A 2.15 2.14 90.0 0 1 380.26 167.59
  L 380.26 141.51
  A 2.01 2.00 -89.9 0 1 382.27 139.50
  Q 391.37 139.51 400.94 139.48
  C 405.61 139.46 413.18 144.31 417.48 146.47
  C 421.02 148.25 426.28 147.51 430.18 147.50
  A 1.91 1.82 27.9 0 0 431.10 147.24
  Q 436.79 143.83 442.58 140.63
  C 445.25 139.16 447.81 139.21 450.61 139.70
  A 0.84 0.82 0.6 0 1 451.30 140.39
  L 452.10 145.28
  Q 452.34 146.74 451.12 147.59
  L 440.61 154.91
  Q 439.77 155.50 440.80 155.50
  Z
  M 384.40 164.96
  Q 384.13 165.22 384.34 165.47
  Q 384.58 165.75 384.94 165.75
  L 469.25 165.75
  Q 469.75 165.75 469.75 165.25
  L 469.75 160.25
  Q 469.75 159.75 469.25 159.75
  L 419.38 159.75
  A 2.38 2.38 0.0 0 1 417.00 157.37
  L 417.00 151.45
  Q 417.00 150.80 416.43 150.51
  Q 410.28 147.32 404.07 144.22
  C 399.93 142.16 389.90 143.26 385.01 143.25
  Q 384.50 143.25 384.50 143.76
  L 384.50 164.72
  Q 384.50 164.86 384.40 164.96
  Z
  M 447.68 143.56
  Q 446.74 143.07 446.10 143.41
  Q 440.18 146.56 434.38 150.04
  C 430.71 152.24 425.71 151.65 421.61 151.43
  Q 421.00 151.40 421.00 152.01
  L 421.00 154.87
  Q 421.00 155.50 421.63 155.50
  L 432.00 155.50
  Q 432.53 155.50 432.95 155.20
  L 447.76 144.80
  A 0.73 0.72 -48.8 0 0 447.68 143.56
  Z
  M 392.49 197.38
  Q 392.44 197.61 392.49 197.87
  Q 392.58 198.39 393.11 198.42
  C 401.76 198.75 412.60 199.62 419.86 194.71
  Q 420.42 194.33 419.77 194.18
  C 410.26 191.90 412.57 177.65 412.80 170.32
  A 0.55 0.54 -89.0 0 0 412.26 169.75
  L 392.99 169.75
  Q 392.48 169.75 392.48 170.26
  L 392.53 196.99
  Q 392.53 197.18 392.49 197.38
  Z
  M 417.14 186.73
  C 417.21 189.77 419.99 190.39 422.51 190.38
  Q 445.87 190.28 469.26 190.22
  Q 469.75 190.21 469.75 189.73
  L 469.75 170.25
  Q 469.75 169.75 469.25 169.75
  L 417.51 169.75
  Q 417.00 169.75 417.00 170.25
  Q 416.95 178.56 417.14 186.73
  Z
  M 384.40 211.96
  Q 384.13 212.22 384.34 212.47
  Q 384.58 212.75 384.94 212.75
  L 469.25 212.75
  Q 469.75 212.75 469.75 212.25
  L 469.75 195.01
  Q 469.75 194.51 469.25 194.51
  Q 451.88 194.47 434.49 194.51
  Q 427.89 194.53 421.39 198.49
  C 411.30 204.64 396.39 202.47 384.99 202.52
  Q 384.50 202.52 384.50 203.01
  L 384.50 211.72
  Q 384.50 211.86 384.40 211.96
  Z
  M 384.48 217.11
  L 384.51 234.76
  Q 384.51 235.25 385.01 235.25
  L 414.26 235.25
  Q 414.77 235.25 414.85 234.75
  C 415.25 232.28 413.96 227.03 416.99 227.02
  Q 427.14 226.97 437.06 227.01
  A 2.20 2.20 0.0 0 1 439.25 229.21
  L 439.25 234.62
  Q 439.25 235.25 439.87 235.25
  L 469.25 235.25
  Q 469.75 235.25 469.75 234.75
  L 469.75 217.25
  Q 469.75 216.75 469.25 216.75
  L 384.83 216.75
  A 0.35 0.35 0.0 0 0 384.48 217.11
  Z
  M 435.25 231.67
  A 0.42 0.42 0.0 0 0 434.83 231.25
  L 419.43 231.25
  A 0.42 0.42 0.0 0 0 419.01 231.67
  L 419.01 234.83
  A 0.42 0.42 0.0 0 0 419.43 235.25
  L 434.83 235.25
  A 0.42 0.42 0.0 0 0 435.25 234.83
  L 435.25 231.67
  Z
  M 439.24 251.18
  L 439.25 257.00
  Q 439.26 257.75 440.00 257.75
  L 469.25 257.75
  Q 469.75 257.75 469.75 257.25
  L 469.75 239.75
  Q 469.75 239.25 469.25 239.25
  L 385.00 239.25
  Q 384.50 239.25 384.50 239.75
  L 384.50 256.97
  Q 384.50 257.75 385.28 257.75
  L 414.34 257.75
  A 0.65 0.65 0.0 0 0 414.99 257.10
  L 415.00 251.62
  A 2.13 2.13 0.0 0 1 417.13 249.50
  L 437.56 249.50
  A 1.68 1.68 0.0 0 1 439.24 251.18
  Z
  M 435.27 254.19
  A 0.44 0.44 0.0 0 0 434.83 253.75
  L 419.45 253.75
  A 0.44 0.44 0.0 0 0 419.01 254.19
  L 419.01 257.31
  A 0.44 0.44 0.0 0 0 419.45 257.75
  L 434.83 257.75
  A 0.44 0.44 0.0 0 0 435.27 257.31
  L 435.27 254.19
  Z"
/>
<path fill="#f7f8fc" d="
  M 384.50 164.72
  L 384.50 143.76
  Q 384.50 143.25 385.01 143.25
  C 389.90 143.26 399.93 142.16 404.07 144.22
  Q 410.28 147.32 416.43 150.51
  Q 417.00 150.80 417.00 151.45
  L 417.00 157.37
  A 2.38 2.38 0.0 0 0 419.38 159.75
  L 469.25 159.75
  Q 469.75 159.75 469.75 160.25
  L 469.75 165.25
  Q 469.75 165.75 469.25 165.75
  L 384.94 165.75
  Q 384.58 165.75 384.34 165.47
  Q 384.13 165.22 384.40 164.96
  Q 384.50 164.86 384.50 164.72
  Z"
/>
<path fill="#f7f8fc" d="
  M 447.68 143.56
  A 0.73 0.72 -48.8 0 1 447.76 144.80
  L 432.95 155.20
  Q 432.53 155.50 432.00 155.50
  L 421.63 155.50
  Q 421.00 155.50 421.00 154.87
  L 421.00 152.01
  Q 421.00 151.40 421.61 151.43
  C 425.71 151.65 430.71 152.24 434.38 150.04
  Q 440.18 146.56 446.10 143.41
  Q 446.74 143.07 447.68 143.56
  Z"
/>
<path fill="#f7f8fc" d="
  M 392.53 196.99
  L 392.48 170.26
  Q 392.48 169.75 392.99 169.75
  L 412.26 169.75
  A 0.55 0.54 -89.0 0 1 412.80 170.32
  C 412.57 177.65 410.26 191.90 419.77 194.18
  Q 420.42 194.33 419.86 194.71
  C 412.60 199.62 401.76 198.75 393.11 198.42
  Q 392.58 198.39 392.49 197.87
  Q 392.44 197.61 392.49 197.38
  Q 392.53 197.18 392.53 196.99
  Z"
/>
<path fill="#f7f8fc" d="
  M 422.51 190.38
  C 419.99 190.39 417.21 189.77 417.14 186.73
  Q 416.95 178.56 417.00 170.25
  Q 417.00 169.75 417.51 169.75
  L 469.25 169.75
  Q 469.75 169.75 469.75 170.25
  L 469.75 189.73
  Q 469.75 190.21 469.26 190.22
  Q 445.87 190.28 422.51 190.38
  Z
  M 441.26 176.14
  A 2.13 2.13 0.0 0 0 439.13 174.01
  L 423.15 174.01
  A 2.13 2.13 0.0 0 0 421.02 176.14
  L 421.02 184.12
  A 2.13 2.13 0.0 0 0 423.15 186.25
  L 439.13 186.25
  A 2.13 2.13 0.0 0 0 441.26 184.12
  L 441.26 176.14
  Z
  M 449.5090 174.2805
  A 0.27 0.27 0.0 0 0 449.2404 174.0091
  L 445.7805 173.9910
  A 0.27 0.27 0.0 0 0 445.5091 174.2596
  L 445.4910 177.7195
  A 0.27 0.27 0.0 0 0 445.7596 177.9909
  L 449.2195 178.0090
  A 0.27 0.27 0.0 0 0 449.4909 177.7404
  L 449.5090 174.2805
  Z
  M 457.6273 174.5003
  A 0.44 0.44 0.0 0 0 457.1981 174.0497
  L 453.9991 173.9715
  A 0.44 0.44 0.0 0 0 453.5485 174.4006
  L 453.4727 177.4997
  A 0.44 0.44 0.0 0 0 453.9019 177.9503
  L 457.1009 178.0285
  A 0.44 0.44 0.0 0 0 457.5515 177.5994
  L 457.6273 174.5003
  Z
  M 465.7282 174.3161
  A 0.32 0.32 0.0 0 0 465.4060 173.9983
  L 462.0461 174.0218
  A 0.32 0.32 0.0 0 0 461.7283 174.3440
  L 461.7518 177.7039
  A 0.32 0.32 0.0 0 0 462.0740 178.0217
  L 465.4339 177.9982
  A 0.32 0.32 0.0 0 0 465.7517 177.6760
  L 465.7282 174.3161
  Z
  M 465.7240 182.5489
  A 0.39 0.39 0.0 0 0 465.3279 182.1651
  L 462.1283 182.2154
  A 0.39 0.39 0.0 0 0 461.7445 182.6115
  L 461.7960 185.8911
  A 0.39 0.39 0.0 0 0 462.1921 186.2749
  L 465.3917 186.2246
  A 0.39 0.39 0.0 0 0 465.7755 185.8285
  L 465.7240 182.5489
  Z
  M 449.5299 182.5557
  A 0.27 0.27 0.0 0 0 449.2646 182.2810
  L 445.7452 182.2196
  A 0.27 0.27 0.0 0 0 445.4705 182.4848
  L 445.4101 185.9443
  A 0.27 0.27 0.0 0 0 445.6754 186.2190
  L 449.1948 186.2804
  A 0.27 0.27 0.0 0 0 449.4695 186.0152
  L 449.5299 182.5557
  Z
  M 457.5785 182.5958
  A 0.35 0.35 0.0 0 0 457.2261 182.2483
  L 453.8461 182.2718
  A 0.35 0.35 0.0 0 0 453.4986 182.6243
  L 453.5215 185.9042
  A 0.35 0.35 0.0 0 0 453.8739 186.2517
  L 457.2539 186.2282
  A 0.35 0.35 0.0 0 0 457.6014 185.8757
  L 457.5785 182.5958
  Z"
/>
<path fill="#2f3031" d="
  M 441.26 184.12
  A 2.13 2.13 0.0 0 1 439.13 186.25
  L 423.15 186.25
  A 2.13 2.13 0.0 0 1 421.02 184.12
  L 421.02 176.14
  A 2.13 2.13 0.0 0 1 423.15 174.01
  L 439.13 174.01
  A 2.13 2.13 0.0 0 1 441.26 176.14
  L 441.26 184.12
  Z
  M 437.2570 178.4094
  A 0.42 0.42 0.0 0 0 436.8363 177.9901
  L 425.4763 178.0099
  A 0.42 0.42 0.0 0 0 425.0570 178.4306
  L 425.0630 181.8306
  A 0.42 0.42 0.0 0 0 425.4837 182.2499
  L 436.8437 182.2301
  A 0.42 0.42 0.0 0 0 437.2630 181.8094
  L 437.2570 178.4094
  Z"
/>
<rect fill="#2f3031" x="-2.00" y="-2.00" transform="translate(447.50,176.00) rotate(0.3)" width="4.00" height="4.00" rx="0.27"/>
<rect fill="#2f3031" x="-2.04" y="-1.99" transform="translate(455.55,176.00) rotate(1.4)" width="4.08" height="3.98" rx="0.44"/>
<rect fill="#2f3031" x="-2.00" y="-2.00" transform="translate(463.74,176.01) rotate(-0.4)" width="4.00" height="4.00" rx="0.32"/>
<rect fill="#f7f8fc" x="-6.10" y="-2.12" transform="translate(431.16,180.12) rotate(-0.1)" width="12.20" height="4.24" rx="0.42"/>
<rect fill="#2f3031" x="-1.99" y="-2.03" transform="translate(463.76,184.22) rotate(-0.9)" width="3.98" height="4.06" rx="0.39"/>
<rect fill="#2f3031" x="-2.03" y="-2.00" transform="translate(447.47,184.25) rotate(1.0)" width="4.06" height="4.00" rx="0.27"/>
<rect fill="#2f3031" x="-2.04" y="-1.99" transform="translate(455.55,184.25) rotate(-0.4)" width="4.08" height="3.98" rx="0.35"/>
<path fill="#f7f8fc" d="
  M 384.50 211.72
  L 384.50 203.01
  Q 384.50 202.52 384.99 202.52
  C 396.39 202.47 411.30 204.64 421.39 198.49
  Q 427.89 194.53 434.49 194.51
  Q 451.88 194.47 469.25 194.51
  Q 469.75 194.51 469.75 195.01
  L 469.75 212.25
  Q 469.75 212.75 469.25 212.75
  L 384.94 212.75
  Q 384.58 212.75 384.34 212.47
  Q 384.13 212.22 384.40 211.96
  Q 384.50 211.86 384.50 211.72
  Z"
/>
<path fill="#f7f8fc" d="
  M 384.48 217.11
  A 0.35 0.35 0.0 0 1 384.83 216.75
  L 469.25 216.75
  Q 469.75 216.75 469.75 217.25
  L 469.75 234.75
  Q 469.75 235.25 469.25 235.25
  L 439.87 235.25
  Q 439.25 235.25 439.25 234.62
  L 439.25 229.21
  A 2.20 2.20 0.0 0 0 437.06 227.01
  Q 427.14 226.97 416.99 227.02
  C 413.96 227.03 415.25 232.28 414.85 234.75
  Q 414.77 235.25 414.26 235.25
  L 385.01 235.25
  Q 384.51 235.25 384.51 234.76
  L 384.48 217.11
  Z"
/>
<rect fill="#f7f8fc" x="419.01" y="231.25" width="16.24" height="4.00" rx="0.42"/>
<path fill="#f7f8fc" d="
  M 439.24 251.18
  A 1.68 1.68 0.0 0 0 437.56 249.50
  L 417.13 249.50
  A 2.13 2.13 0.0 0 0 415.00 251.62
  L 414.99 257.10
  A 0.65 0.65 0.0 0 1 414.34 257.75
  L 385.28 257.75
  Q 384.50 257.75 384.50 256.97
  L 384.50 239.75
  Q 384.50 239.25 385.00 239.25
  L 469.25 239.25
  Q 469.75 239.25 469.75 239.75
  L 469.75 257.25
  Q 469.75 257.75 469.25 257.75
  L 440.00 257.75
  Q 439.26 257.75 439.25 257.00
  L 439.24 251.18
  Z"
/>
<rect fill="#f7f8fc" x="419.01" y="253.75" width="16.26" height="4.00" rx="0.44"/>
<path fill="#2f3031" d="
  M 379.98 285.88
  A 1.33 1.33 0.0 0 1 379.56 285.51
  Q 377.01 281.98 378.95 279.25
  C 381.47 275.68 387.05 276.62 390.46 278.30
  Q 390.96 278.55 390.83 279.09
  L 390.49 280.53
  A 0.49 0.48 -78.2 0 1 389.95 280.89
  L 383.00 279.81
  A 1.36 1.35 16.9 0 0 381.57 280.57
  C 378.97 286.10 394.31 285.22 392.56 292.93
  C 391.23 298.81 383.78 297.09 379.60 295.91
  Q 379.01 295.74 379.23 295.17
  L 379.80 293.74
  Q 379.98 293.28 380.46 293.34
  L 387.49 294.16
  A 1.79 1.79 0.0 0 0 389.43 292.83
  C 390.24 289.62 382.39 287.24 379.98 285.88
  Z"
/>
<path fill="#2f3031" d="
  M 525.19 286.06
  C 520.91 283.01 523.03 277.80 527.77 276.76
  Q 530.06 276.26 535.40 278.29
  Q 535.89 278.48 535.72 278.97
  L 535.16 280.69
  A 0.56 0.56 0.0 0 1 534.47 281.05
  C 532.54 280.48 527.29 278.89 526.08 281.15
  A 1.83 1.83 0.0 0 0 526.94 283.67
  C 530.73 285.39 539.08 288.07 537.18 293.68
  C 535.58 298.43 529.05 297.12 524.50 295.94
  Q 524.11 295.84 524.06 295.44
  Q 523.89 293.94 525.02 293.44
  C 525.98 293.01 531.07 294.15 532.91 293.91
  A 1.56 1.54 -80.4 0 0 534.12 293.04
  C 535.68 289.80 526.59 287.06 525.19 286.06
  Z"
/>
<path fill="#2f3031" d="
  M 546.04 281.79
  A 1.92 1.92 0.0 0 0 547.10 283.67
  Q 550.87 285.52 554.95 287.53
  C 558.18 289.14 558.31 294.08 555.51 296.03
  C 552.87 297.86 547.56 296.73 544.54 295.93
  Q 543.87 295.75 544.15 295.12
  L 544.78 293.65
  A 0.49 0.49 0.0 0 1 545.28 293.37
  L 552.42 294.16
  A 1.82 1.82 0.0 0 0 554.31 293.02
  C 556.42 287.76 540.91 288.66 543.27 280.49
  C 544.71 275.49 550.99 276.69 555.42 278.20
  Q 555.98 278.39 555.82 278.97
  L 555.33 280.69
  A 0.53 0.52 -73.3 0 1 554.67 281.05
  C 552.91 280.50 546.32 278.52 546.04 281.79
  Z"
/>
<path fill="#2f3031" d="
  M 306.51 291.08
  L 300.46 292.41
  A 0.50 0.50 0.0 0 0 300.09 292.75
  L 299.02 296.39
  A 0.50 0.50 0.0 0 1 298.54 296.75
  L 296.46 296.75
  A 0.50 0.50 0.0 0 1 295.98 296.11
  L 301.31 277.36
  A 0.50 0.50 0.0 0 1 301.79 277.00
  L 305.69 277.00
  A 0.50 0.50 0.0 0 1 306.17 277.36
  L 311.54 296.11
  A 0.50 0.50 0.0 0 1 311.06 296.75
  L 308.88 296.75
  A 0.50 0.50 0.0 0 1 308.39 296.38
  L 307.10 291.44
  A 0.50 0.50 0.0 0 0 306.51 291.08
  Z
  M 304.07 281.09
  A 0.33 0.33 0.0 0 0 303.43 281.09
  L 301.30 288.66
  A 0.33 0.33 0.0 0 0 301.70 289.07
  L 305.66 288.10
  A 0.33 0.33 0.0 0 0 305.90 287.69
  L 304.07 281.09
  Z"
/>
<path fill="#2f3031" d="
  M 321.65 293.75
  L 328.86 293.75
  A 0.65 0.65 0.0 0 1 329.51 294.41
  L 329.48 296.11
  A 0.65 0.65 0.0 0 1 328.83 296.75
  L 318.65 296.75
  A 0.65 0.65 0.0 0 1 318.00 296.10
  L 318.00 277.65
  A 0.65 0.65 0.0 0 1 318.65 277.00
  L 320.35 277.00
  A 0.65 0.65 0.0 0 1 321.00 277.65
  L 321.00 293.10
  A 0.65 0.65 0.0 0 0 321.65 293.75
  Z"
/>
<path fill="#2f3031" d="
  M 345.14 291.15
  L 339.51 292.37
  A 0.68 0.68 0.0 0 0 339.01 292.85
  L 338.12 296.08
  A 0.90 0.90 0.0 0 1 337.25 296.75
  L 335.54 296.75
  A 0.56 0.56 0.0 0 1 335.00 296.04
  L 339.89 278.79
  A 2.96 2.96 0.0 0 1 345.59 278.78
  L 350.55 296.15
  Q 350.72 296.75 350.09 296.75
  L 348.06 296.75
  Q 347.52 296.75 347.37 296.23
  L 346.11 291.74
  Q 345.90 290.99 345.14 291.15
  Z
  M 342.62 280.57
  L 340.34 288.56
  Q 340.16 289.18 340.79 289.03
  L 344.42 288.18
  Q 344.98 288.05 344.83 287.49
  L 342.95 280.57
  A 0.17 0.17 0.0 0 0 342.62 280.57
  Z"
/>
<path fill="#2f3031" d="
  M 360.00 283.77
  L 360.00 296.40
  A 0.35 0.35 0.0 0 1 359.65 296.75
  L 357.30 296.75
  A 0.35 0.35 0.0 0 1 356.95 296.40
  L 356.68 277.35
  A 0.35 0.35 0.0 0 1 357.03 277.00
  L 360.08 277.00
  A 0.35 0.35 0.0 0 1 360.38 277.17
  L 368.10 290.44
  A 0.35 0.35 0.0 0 0 368.75 290.26
  L 368.75 277.35
  A 0.35 0.35 0.0 0 1 369.10 277.00
  L 371.40 277.00
  A 0.35 0.35 0.0 0 1 371.75 277.35
  L 371.75 296.40
  A 0.35 0.35 0.0 0 1 371.40 296.75
  L 368.52 296.75
  A 0.35 0.35 0.0 0 1 368.22 296.58
  L 360.65 283.59
  A 0.35 0.35 0.0 0 0 360.00 283.77
  Z"
/>
<path fill="#2f3031" d="
  M 408.78 291.09
  L 402.72 292.40
  A 0.50 0.50 0.0 0 0 402.35 292.75
  L 401.32 296.39
  A 0.50 0.50 0.0 0 1 400.84 296.75
  L 398.73 296.75
  A 0.50 0.50 0.0 0 1 398.25 296.11
  L 403.62 277.36
  A 0.50 0.50 0.0 0 1 404.10 277.00
  L 407.96 277.00
  A 0.50 0.50 0.0 0 1 408.44 277.36
  L 413.84 296.12
  A 0.50 0.50 0.0 0 1 413.36 296.75
  L 411.18 296.73
  A 0.50 0.50 0.0 0 1 410.70 296.36
  L 409.36 291.45
  A 0.50 0.50 0.0 0 0 408.78 291.09
  Z
  M 406.39 281.19
  A 0.32 0.32 0.0 0 0 405.78 281.18
  L 403.60 288.66
  A 0.32 0.32 0.0 0 0 403.99 289.06
  L 407.96 288.08
  A 0.32 0.32 0.0 0 0 408.19 287.68
  L 406.39 281.19
  Z"
/>
<path fill="#2f3031" d="
  M 431.73 289.90
  Q 434.24 292.51 434.80 296.11
  Q 434.90 296.75 434.25 296.75
  L 432.27 296.75
  Q 431.71 296.75 431.59 296.20
  Q 430.20 289.83 423.72 290.17
  Q 423.00 290.20 423.00 290.93
  L 423.00 296.13
  Q 423.00 296.75 422.37 296.75
  L 420.50 296.75
  Q 420.00 296.75 420.00 296.25
  L 420.00 277.73
  A 0.74 0.73 89.6 0 1 420.72 276.99
  C 426.65 276.92 435.98 275.75 435.00 285.01
  Q 434.72 287.63 431.86 289.12
  Q 431.28 289.42 431.73 289.90
  Z
  M 423.13 280.80
  L 422.99 286.26
  A 0.64 0.64 0.0 0 0 423.61 286.92
  L 428.11 287.04
  A 3.72 3.24 1.5 0 0 431.92 283.90
  L 431.92 283.64
  A 3.72 3.24 1.5 0 0 428.29 280.30
  L 423.79 280.18
  A 0.64 0.64 0.0 0 0 423.13 280.80
  Z"
/>
<rect fill="#2f3031" x="441.25" y="277.01" width="3.00" height="19.74" rx="0.31"/>
<path fill="#2f3031" d="
  M 466.75 290.76
  L 466.75 296.12
  Q 466.75 296.75 466.12 296.75
  L 464.25 296.75
  Q 463.75 296.75 463.75 296.25
  L 463.75 277.53
  Q 463.75 277.08 464.20 277.06
  C 470.12 276.87 478.12 275.80 478.51 283.16
  C 478.90 290.47 472.53 290.14 467.24 290.26
  Q 466.75 290.27 466.75 290.76
  Z
  M 466.76 280.70
  L 466.74 286.58
  A 0.44 0.44 0.0 0 0 467.18 287.03
  L 471.55 287.04
  A 3.95 3.22 0.2 0 0 475.51 283.84
  L 475.51 283.52
  A 3.95 3.22 0.2 0 0 471.57 280.28
  L 467.20 280.27
  A 0.44 0.44 0.0 0 0 466.76 280.70
  Z"
/>
<path fill="#2f3031" d="
  M 487.75 290.74
  L 487.75 296.00
  Q 487.75 296.75 487.00 296.75
  L 485.25 296.75
  Q 484.75 296.75 484.75 296.25
  L 484.75 277.52
  Q 484.75 277.07 485.20 277.05
  Q 491.35 276.85 493.93 277.08
  C 500.21 277.63 501.61 285.86 496.59 289.29
  Q 496.09 289.63 496.50 290.07
  Q 498.86 292.60 499.37 296.06
  Q 499.47 296.75 498.78 296.75
  L 496.80 296.75
  Q 496.40 296.75 496.31 296.36
  Q 494.82 289.80 488.29 290.17
  Q 487.75 290.20 487.75 290.74
  Z
  M 487.72 281.00
  L 487.74 286.30
  A 0.75 0.75 0.0 0 0 488.49 287.04
  L 492.61 287.03
  A 3.91 3.20 -0.2 0 0 496.51 283.81
  L 496.51 283.41
  A 3.91 3.20 -0.2 0 0 492.59 280.23
  L 488.47 280.24
  A 0.75 0.75 0.0 0 0 487.72 281.00
  Z"
/>
<path fill="#2f3031" d="
  M 509.40 293.75
  L 516.85 293.75
  A 0.40 0.40 0.0 0 1 517.25 294.15
  L 517.25 296.35
  A 0.40 0.40 0.0 0 1 516.85 296.75
  L 506.40 296.75
  A 0.40 0.40 0.0 0 1 506.00 296.35
  L 506.00 277.40
  A 0.40 0.40 0.0 0 1 506.40 277.00
  L 516.27 277.00
  A 0.40 0.40 0.0 0 1 516.67 277.41
  L 516.59 279.86
  A 0.40 0.40 0.0 0 1 516.19 280.25
  L 509.40 280.25
  A 0.40 0.40 0.0 0 0 509.00 280.65
  L 509.00 284.35
  A 0.40 0.40 0.0 0 0 509.40 284.75
  L 515.60 284.75
  A 0.40 0.40 0.0 0 1 516.00 285.15
  L 516.00 287.35
  A 0.40 0.40 0.0 0 1 515.60 287.75
  L 509.40 287.75
  A 0.40 0.40 0.0 0 0 509.00 288.15
  L 509.00 293.35
  A 0.40 0.40 0.0 0 0 509.40 293.75
  Z"
/>
<path fill="#f7f8fc" d="
  M 423.13 280.80
  A 0.64 0.64 0.0 0 1 423.79 280.18
  L 428.29 280.30
  A 3.72 3.24 1.5 0 1 431.92 283.64
  L 431.92 283.90
  A 3.72 3.24 1.5 0 1 428.11 287.04
  L 423.61 286.92
  A 0.64 0.64 0.0 0 1 422.99 286.26
  L 423.13 280.80
  Z"
/>
<path fill="#f7f8fc" d="
  M 466.76 280.70
  A 0.44 0.44 0.0 0 1 467.20 280.27
  L 471.57 280.28
  A 3.95 3.22 0.2 0 1 475.51 283.52
  L 475.51 283.84
  A 3.95 3.22 0.2 0 1 471.55 287.04
  L 467.18 287.03
  A 0.44 0.44 0.0 0 1 466.74 286.58
  L 466.76 280.70
  Z"
/>
<path fill="#f7f8fc" d="
  M 487.72 281.00
  A 0.75 0.75 0.0 0 1 488.47 280.24
  L 492.59 280.23
  A 3.91 3.20 -0.2 0 1 496.51 283.41
  L 496.51 283.81
  A 3.91 3.20 -0.2 0 1 492.61 287.03
  L 488.49 287.04
  A 0.75 0.75 0.0 0 1 487.74 286.30
  L 487.72 281.00
  Z"
/>
<path fill="#f7f8fc" d="
  M 342.62 280.57
  A 0.17 0.17 0.0 0 1 342.95 280.57
  L 344.83 287.49
  Q 344.98 288.05 344.42 288.18
  L 340.79 289.03
  Q 340.16 289.18 340.34 288.56
  L 342.62 280.57
  Z"
/>
<path fill="#f7f8fc" d="
  M 304.07 281.09
  L 305.90 287.69
  A 0.33 0.33 0.0 0 1 305.66 288.10
  L 301.70 289.07
  A 0.33 0.33 0.0 0 1 301.30 288.66
  L 303.43 281.09
  A 0.33 0.33 0.0 0 1 304.07 281.09
  Z"
/>
<path fill="#f7f8fc" d="
  M 406.39 281.19
  L 408.19 287.68
  A 0.32 0.32 0.0 0 1 407.96 288.08
  L 403.99 289.06
  A 0.32 0.32 0.0 0 1 403.60 288.66
  L 405.78 281.18
  A 0.32 0.32 0.0 0 1 406.39 281.19
  Z"
/>
<path fill="#2f3031" d="
  M 323.66 308.50
  L 326.45 308.50
  Q 326.88 308.50 326.88 308.93
  L 326.87 309.22
  Q 326.87 309.50 326.59 309.50
  L 323.54 309.50
  A 0.58 0.58 0.0 0 0 322.96 310.15
  Q 323.11 311.35 322.91 312.55
  A 0.46 0.46 0.0 0 1 322.00 312.48
  L 322.00 305.35
  Q 322.00 304.70 322.65 304.71
  L 326.92 304.84
  A 0.41 0.41 0.0 0 1 327.08 305.63
  Q 325.45 306.34 323.61 305.91
  Q 323.01 305.78 323.02 306.38
  L 323.02 307.85
  A 0.65 0.64 -90.0 0 0 323.66 308.50
  Z"
/>
<path fill="#2f3031" d="
  M 338.59 308.96
  A 4.24 4.24 0.0 0 1 334.35 313.20
  A 4.24 4.24 0.0 0 1 330.11 308.96
  A 4.24 4.24 0.0 0 1 334.35 304.72
  A 4.24 4.24 0.0 0 1 338.59 308.96
  Z
  M 337.45 308.94
  A 3.07 3.07 0.0 0 0 334.38 305.87
  A 3.07 3.07 0.0 0 0 331.31 308.94
  A 3.07 3.07 0.0 0 0 334.38 312.01
  A 3.07 3.07 0.0 0 0 337.45 308.94
  Z"
/>
<path fill="#2f3031" d="
  M 344.40 309.51
  A 0.47 0.46 28.9 0 0 343.56 309.75
  L 343.34 312.71
  Q 343.31 313.18 342.86 313.03
  Q 342.68 312.98 342.53 312.92
  Q 342.25 312.83 342.25 312.53
  L 342.25 305.30
  Q 342.25 304.91 342.64 304.85
  C 344.87 304.54 347.89 304.81 347.70 307.37
  Q 347.66 307.92 347.26 308.29
  L 346.24 309.26
  A 0.53 0.51 -37.6 0 0 346.15 309.90
  L 347.90 312.81
  A 0.43 0.43 0.0 0 1 347.18 313.28
  L 344.40 309.51
  Z
  M 343.55 306.25
  L 343.53 307.99
  A 0.51 0.51 0.0 0 0 344.04 308.50
  L 344.84 308.51
  A 1.65 1.24 0.4 0 0 346.50 307.28
  L 346.50 307.00
  A 1.65 1.24 0.4 0 0 344.86 305.75
  L 344.06 305.74
  A 0.51 0.51 0.0 0 0 343.55 306.25
  Z"
/>
<path fill="#2f3031" d="
  M 358.26 308.25
  Q 360.32 308.20 362.34 308.46
  A 0.19 0.19 0.0 0 1 362.37 308.83
  Q 360.39 309.44 358.38 309.22
  A 0.57 0.57 0.0 0 0 357.75 309.79
  L 357.75 311.37
  A 0.62 0.62 0.0 0 0 358.37 311.99
  L 361.94 312.01
  A 0.49 0.49 0.0 0 1 361.94 312.99
  L 357.38 313.00
  Q 356.75 313.01 356.75 312.38
  L 356.75 305.44
  Q 356.75 304.76 357.43 304.75
  Q 359.33 304.73 361.23 304.77
  A 0.62 0.61 -44.2 0 1 361.21 306.00
  L 358.38 306.00
  Q 357.75 306.00 357.75 306.63
  L 357.75 307.75
  Q 357.75 308.27 358.26 308.25
  Z"
/>
<path fill="#2f3031" d="
  M 365.50 305.60
  A 0.82 0.82 0.0 0 1 366.32 304.78
  L 368.27 304.78
  A 4.25 3.84 -0.0 0 1 372.52 308.62
  L 372.52 309.20
  A 4.25 3.84 -0.0 0 1 368.27 313.04
  L 366.32 313.04
  A 0.82 0.82 0.0 0 1 365.50 312.22
  L 365.50 305.60
  Z
  M 366.73 306.58
  L 366.73 311.36
  A 0.62 0.62 0.0 0 0 367.36 311.98
  L 367.59 311.98
  A 3.91 2.89 -0.1 0 0 371.49 309.09
  L 371.49 308.85
  A 3.91 2.89 -0.1 0 0 367.57 305.96
  L 367.34 305.96
  A 0.62 0.62 0.0 0 0 366.73 306.58
  Z"
/>
<path fill="#2f3031" d="
  M 377.82 312.73
  A 2.32 2.30 9.6 0 1 376.26 310.55
  L 376.25 305.30
  Q 376.24 304.61 376.90 304.82
  Q 377.12 304.88 377.23 305.07
  C 377.44 305.40 377.36 310.12 377.64 311.28
  A 0.87 0.87 0.0 0 0 378.55 311.95
  L 380.55 311.80
  A 0.74 0.74 0.0 0 0 381.25 311.06
  L 381.25 305.25
  A 0.50 0.50 0.0 0 1 381.76 304.75
  Q 381.88 304.75 382.01 304.75
  Q 382.46 304.76 382.47 305.22
  C 382.54 308.20 383.46 314.70 377.82 312.73
  Z"
/>
<path fill="#2f3031" d="
  M 392.69 312.21
  C 385.27 317.27 383.36 301.99 392.07 305.16
  Q 392.78 305.42 392.68 306.00
  Q 392.59 306.51 392.12 306.29
  C 385.17 302.97 386.21 315.61 392.28 311.22
  A 0.41 0.41 0.0 0 1 392.93 311.47
  Q 393.03 311.97 392.69 312.21
  Z"
/>
<path fill="#2f3031" d="
  M 401.28 311.00
  L 398.39 311.00
  A 0.82 0.82 0.0 0 0 397.70 311.38
  L 396.75 312.89
  A 0.48 0.48 0.0 0 1 395.91 312.44
  L 399.21 304.99
  A 0.61 0.60 45.4 0 1 400.32 305.00
  L 403.51 312.47
  Q 403.86 313.29 403.01 313.00
  Q 402.01 312.67 401.94 311.62
  A 0.66 0.66 0.0 0 0 401.28 311.00
  Z
  M 399.11 310.00
  L 400.50 310.00
  A 0.52 0.52 0.0 0 0 400.97 309.27
  L 399.98 307.01
  A 0.36 0.36 0.0 0 0 399.31 307.02
  L 398.50 309.11
  Q 398.15 310.00 399.11 310.00
  Z"
/>
<path fill="#2f3031" d="
  M 406.88 306.08
  L 405.24 305.86
  A 0.55 0.55 0.0 0 1 405.31 304.76
  L 410.99 304.75
  A 0.44 0.43 -66.0 0 1 411.28 305.51
  Q 410.43 306.26 409.24 305.97
  Q 408.62 305.82 408.63 306.46
  L 408.79 312.62
  A 0.50 0.50 0.0 0 1 408.06 313.07
  Q 407.31 312.69 407.47 311.76
  Q 407.84 309.59 407.37 306.56
  Q 407.30 306.14 406.88 306.08
  Z"
/>
<rect fill="#2f3031" x="-0.60" y="-4.05" transform="translate(415.10,308.83) rotate(-0.8)" width="1.20" height="8.10" rx="0.57"/>
<path fill="#2f3031" d="
  M 427.75 308.94
  A 4.23 4.23 0.0 0 1 423.52 313.17
  A 4.23 4.23 0.0 0 1 419.29 308.94
  A 4.23 4.23 0.0 0 1 423.52 304.71
  A 4.23 4.23 0.0 0 1 427.75 308.94
  Z
  M 426.63 308.95
  A 3.13 3.13 0.0 0 0 423.50 305.82
  A 3.13 3.13 0.0 0 0 420.37 308.95
  A 3.13 3.13 0.0 0 0 423.50 312.08
  A 3.13 3.13 0.0 0 0 426.63 308.95
  Z"
/>
<path fill="#2f3031" d="
  M 432.47 307.41
  L 432.58 312.36
  Q 432.58 312.52 432.47 312.64
  Q 432.37 312.74 432.24 312.99
  A 0.44 0.44 0.0 0 1 431.40 312.80
  L 431.46 305.63
  A 0.91 0.91 0.0 0 1 433.13 305.15
  L 436.48 310.29
  A 0.52 0.51 -65.4 0 0 437.42 309.94
  Q 437.11 307.60 437.29 305.21
  A 0.61 0.60 47.3 0 1 438.50 305.26
  L 438.50 312.27
  A 0.85 0.85 0.0 0 1 436.94 312.74
  L 433.21 307.17
  A 0.41 0.40 -62.7 0 0 432.47 307.41
  Z"
/>
<path fill="#2f3031" d="
  M 447.03 311.00
  L 444.10 311.00
  A 0.55 0.54 16.1 0 0 443.64 311.25
  L 442.53 313.08
  A 0.42 0.42 0.0 0 1 441.78 312.69
  L 445.13 305.10
  A 0.65 0.64 -44.8 0 1 446.31 305.10
  L 449.45 312.50
  Q 449.67 313.01 449.11 313.00
  Q 448.91 313.00 448.68 313.00
  A 0.33 0.33 0.0 0 1 448.37 312.79
  L 447.90 311.60
  A 0.93 0.93 0.0 0 0 447.03 311.00
  Z
  M 444.37 309.44
  A 0.44 0.44 0.0 0 0 444.79 310.03
  L 446.61 309.99
  A 0.44 0.44 0.0 0 0 447.01 309.38
  L 446.04 307.05
  A 0.44 0.44 0.0 0 0 445.22 307.07
  L 444.37 309.44
  Z"
/>
<path fill="#2f3031" d="
  M 454.33 311.94
  L 457.71 312.11
  A 0.40 0.40 0.0 0 1 457.70 312.91
  L 453.40 313.04
  Q 452.75 313.06 452.75 312.40
  L 452.75 305.00
  Q 452.75 304.44 453.23 304.72
  L 453.51 304.89
  A 0.49 0.48 -75.0 0 1 453.75 305.31
  L 453.75 311.33
  Q 453.75 311.91 454.33 311.94
  Z"
/>
<path fill="#2f3031" d="
  M 476.25 308.25
  L 479.00 308.25
  Q 479.49 308.25 479.50 308.74
  Q 479.50 308.87 479.50 309.00
  Q 479.50 309.25 479.25 309.25
  L 476.38 309.25
  Q 475.75 309.25 475.75 309.88
  L 475.75 311.45
  Q 475.75 312.04 476.34 312.02
  Q 478.05 311.96 479.80 312.04
  A 0.47 0.47 0.0 0 1 479.77 312.98
  L 475.04 312.98
  A 0.60 0.60 0.0 0 1 474.44 312.35
  L 474.81 305.45
  Q 474.85 304.75 475.55 304.75
  L 479.31 304.75
  A 0.62 0.61 -45.1 0 1 479.31 305.98
  L 476.37 306.01
  A 0.62 0.62 0.0 0 0 475.75 306.63
  L 475.75 307.75
  Q 475.75 308.25 476.25 308.25
  Z"
/>
<path fill="#2f3031" d="
  M 484.70 309.75
  Q 484.92 311.29 484.79 312.71
  A 0.52 0.51 -42.7 0 1 483.76 312.67
  L 483.75 305.57
  Q 483.75 304.97 484.32 304.83
  Q 487.72 304.00 489.33 306.83
  A 0.85 0.85 0.0 0 1 489.17 307.87
  L 487.57 309.35
  A 0.50 0.49 -40.1 0 0 487.51 310.02
  L 489.16 312.22
  Q 489.57 312.77 488.93 313.01
  Q 488.72 313.09 488.48 313.03
  Q 488.31 312.98 488.16 312.78
  Q 487.01 311.24 485.90 309.33
  A 0.65 0.65 0.0 0 0 484.70 309.75
  Z
  M 487.9153 306.7984
  A 1.12 1.12 0.0 0 0 486.7400 305.7365
  L 485.7413 305.7871
  A 1.12 1.12 0.0 0 0 484.6794 306.9623
  L 484.7047 307.4616
  A 1.12 1.12 0.0 0 0 485.8800 308.5235
  L 486.8787 308.4729
  A 1.12 1.12 0.0 0 0 487.9406 307.2977
  L 487.9153 306.7984
  Z"
/>
<path fill="#2f3031" d="
  M 495.22 310.73
  A 0.33 0.33 0.0 0 0 495.83 310.73
  L 497.97 305.06
  A 0.47 0.47 0.0 0 1 498.38 304.76
  Q 498.77 304.73 498.88 305.02
  Q 498.94 305.15 498.87 305.34
  Q 497.61 308.96 496.07 312.67
  A 0.66 0.66 0.0 0 1 494.84 312.66
  L 492.02 305.46
  Q 491.81 304.93 492.36 304.75
  Q 492.69 304.64 492.98 304.84
  Q 493.19 304.98 493.31 305.36
  Q 494.20 308.11 495.22 310.73
  Z"
/>
<rect fill="#2f3031" x="-0.51" y="-4.10" transform="translate(502.76,308.89) rotate(-0.2)" width="1.02" height="8.20" rx="0.26"/>
<path fill="#2f3031" d="
  M 508.81 306.99
  C 506.97 310.31 510.29 313.96 513.29 311.04
  Q 513.60 310.73 513.78 311.13
  L 513.94 311.49
  Q 514.08 311.81 513.81 312.04
  C 507.87 317.06 503.13 304.57 511.97 304.72
  Q 513.61 304.75 513.78 306.10
  A 0.38 0.37 10.3 0 1 513.23 306.48
  Q 511.45 305.50 509.55 306.32
  A 1.54 1.50 2.0 0 0 508.81 306.99
  Z"
/>
<path fill="#2f3031" d="
  M 518.80 306.72
  L 518.86 307.42
  Q 518.90 308.01 519.49 308.08
  L 522.75 308.50
  A 0.37 0.37 0.0 0 1 522.71 309.23
  L 519.37 309.26
  Q 518.75 309.26 518.75 309.88
  L 518.75 311.37
  A 0.62 0.62 0.0 0 0 519.37 311.99
  L 522.94 312.01
  A 0.49 0.49 0.0 0 1 522.94 312.99
  L 518.38 313.00
  Q 517.75 313.01 517.75 312.38
  L 517.75 305.44
  Q 517.75 304.76 518.43 304.75
  Q 520.33 304.73 522.23 304.77
  A 0.62 0.61 -44.2 0 1 522.21 306.00
  L 519.47 306.00
  Q 518.75 306.00 518.80 306.72
  Z"
/>
<path fill="#2f3031" d="
  M 467.89 312.07
  L 468.95 311.82
  A 1.08 1.08 0.0 0 0 469.06 309.75
  L 466.76 308.93
  A 1.97 1.97 0.0 0 1 466.98 305.15
  Q 468.75 304.74 470.36 305.30
  Q 470.90 305.48 470.58 305.95
  Q 470.41 306.18 470.07 306.21
  C 469.16 306.28 468.64 305.48 467.65 305.89
  A 1.13 1.13 0.0 0 0 467.82 308.03
  C 474.07 309.49 469.44 315.13 466.10 312.32
  Q 465.81 312.08 465.93 311.72
  L 466.07 311.30
  A 0.14 0.13 -61.8 0 1 466.29 311.23
  L 467.01 311.85
  Q 467.39 312.18 467.89 312.07
  Z"
/>
<path fill="#2f3031" d="
  M 529.60 309.67
  L 527.56 308.96
  Q 527.00 308.76 526.73 308.22
  C 525.18 305.10 529.05 304.39 531.01 305.36
  A 0.35 0.35 0.0 0 1 530.82 306.02
  L 528.60 305.79
  A 0.55 0.54 -78.5 0 0 528.02 306.18
  L 527.68 307.25
  Q 527.47 307.94 528.18 308.05
  Q 529.97 308.32 531.29 309.61
  A 1.97 1.97 0.0 0 1 529.84 312.99
  L 527.14 312.88
  Q 526.46 312.85 526.49 312.17
  Q 526.50 311.97 526.50 311.75
  A 0.34 0.34 0.0 0 1 527.01 311.45
  Q 528.07 312.04 529.23 312.01
  A 1.21 1.20 -36.1 0 0 529.60 309.67
  Z"
/>
<path fill="#f7f8fc" d="
  M 343.55 306.25
  A 0.51 0.51 0.0 0 1 344.06 305.74
  L 344.86 305.75
  A 1.65 1.24 0.4 0 1 346.50 307.00
  L 346.50 307.28
  A 1.65 1.24 0.4 0 1 344.84 308.51
  L 344.04 308.50
  A 0.51 0.51 0.0 0 1 343.53 307.99
  L 343.55 306.25
  Z"
/>
<circle fill="#f7f8fc" cx="423.50" cy="308.95" r="3.13"/>
<rect fill="#f7f8fc" x="-1.62" y="-1.37" transform="translate(486.31,307.13) rotate(-2.9)" width="3.24" height="2.74" rx="1.12"/>
<circle fill="#f7f8fc" cx="334.38" cy="308.94" r="3.07"/>
<path fill="#f7f8fc" d="
  M 366.73 306.58
  A 0.62 0.62 0.0 0 1 367.34 305.96
  L 367.57 305.96
  A 3.91 2.89 -0.1 0 1 371.49 308.85
  L 371.49 309.09
  A 3.91 2.89 -0.1 0 1 367.59 311.98
  L 367.36 311.98
  A 0.62 0.62 0.0 0 1 366.73 311.36
  L 366.73 306.58
  Z"
/>
<path fill="#f7f8fc" d="
  M 398.50 309.11
  L 399.31 307.02
  A 0.36 0.36 0.0 0 1 399.98 307.01
  L 400.97 309.27
  A 0.52 0.52 0.0 0 1 400.50 310.00
  L 399.11 310.00
  Q 398.15 310.00 398.50 309.11
  Z"
/>
<path fill="#f7f8fc" d="
  M 444.37 309.44
  L 445.22 307.07
  A 0.44 0.44 0.0 0 1 446.04 307.05
  L 447.01 309.38
  A 0.44 0.44 0.0 0 1 446.61 309.99
  L 444.79 310.03
  A 0.44 0.44 0.0 0 1 444.37 309.44
  Z"
/>
</svg>
