<?xml version="1.0" encoding="UTF-8" standalone="no"?>
<!DOCTYPE svg PUBLIC "-//W3C//DTD SVG 1.1//EN" "http://www.w3.org/Graphics/SVG/1.1/DTD/svg11.dtd">
<svg xmlns="http://www.w3.org/2000/svg" version="1.1" viewBox="0.00 0.00 366.00 239.00">
<g stroke-width="5.00" fill="none" stroke-linecap="butt">
<path stroke="#888888" vector-effect="non-scaling-stroke" d="
  M 5.30 0.00
  Q 0.25 0.04 0.00 6.46"
/>
<path stroke="#888888" vector-effect="non-scaling-stroke" d="
  M 361.06 0.00
  L 363.91 0.37
  A 2.18 2.17 2.7 0 1 365.80 2.44
  L 366.00 7.32"
/>
<path stroke="#888888" vector-effect="non-scaling-stroke" d="
  M 366.00 236.81
  Q 366.13 239.04 363.44 239.00"
/>
<path stroke="#888888" vector-effect="non-scaling-stroke" d="
  M 4.19 239.00
  L 1.56 238.47
  A 0.89 0.89 0.0 0 1 0.88 237.79
  L 0.00 233.68"
/>
<path stroke="#888888" vector-effect="non-scaling-stroke" d="
  M 194.87 65.93
  L 203.23 59.94
  Q 203.61 59.66 203.54 59.20
  L 202.81 54.69
  Q 202.70 54.04 202.04 54.02
  C 196.64 53.86 193.20 56.69 188.70 59.24
  C 186.10 60.71 183.75 60.26 180.91 60.25
  C 174.40 60.25 169.75 54.02 163.38 54.00
  Q 156.55 53.98 149.73 54.01
  A 1.25 1.24 89.8 0 0 148.50 55.26
  L 148.50 76.53
  A 0.87 0.87 0.0 0 0 149.33 77.40
  L 152.57 77.55
  Q 154.50 77.63 154.50 79.57
  L 154.50 97.15
  Q 154.50 99.06 152.59 99.19
  L 149.24 99.40
  A 1.09 1.09 0.0 0 0 148.22 100.50
  L 148.50 146.63
  A 1.13 1.13 0.0 0 0 149.63 147.75
  L 218.50 147.75
  A 1.75 1.74 90.0 0 0 220.24 146.00
  L 220.25 68.53
  A 2.03 2.03 0.0 0 0 218.22 66.50
  L 195.05 66.50
  Q 194.08 66.50 194.87 65.93"
/>
<path stroke="#888888" vector-effect="non-scaling-stroke" d="
  M 92.25 170.51
  L 93.08 173.85
  Q 93.24 174.50 93.91 174.50
  L 94.98 174.50
  A 0.58 0.58 0.0 0 0 95.54 173.76
  L 91.77 160.50
  A 2.23 2.22 45.1 0 0 87.49 160.49
  L 83.65 173.98
  Q 83.50 174.50 84.05 174.50
  L 85.37 174.50
  A 0.80 0.80 0.0 0 0 86.15 173.89
  L 86.68 171.80
  A 0.90 0.88 -0.1 0 1 87.33 171.16
  L 91.58 170.11
  Q 92.12 169.98 92.25 170.51"
/>
<path stroke="#888888" vector-effect="non-scaling-stroke" d="
  M 103.10 171.40
  Q 102.76 166.03 103.04 160.64
  Q 103.08 159.80 102.69 159.46
  Q 102.16 159.00 101.26 159.31
  A 0.71 0.70 -9.0 0 0 100.78 159.96
  L 100.67 173.83
  Q 100.66 174.50 101.33 174.50
  L 108.50 174.50
  Q 109.25 174.50 109.25 173.75
  L 109.25 172.50
  Q 109.25 172.00 108.75 172.00
  L 103.74 172.00
  A 0.64 0.64 0.0 0 1 103.10 171.40"
/>
<path stroke="#888888" vector-effect="non-scaling-stroke" d="
  M 122.19 170.56
  L 123.07 173.96
  A 0.72 0.72 0.0 0 0 123.77 174.50
  L 124.95 174.50
  Q 125.66 174.50 125.47 173.81
  L 121.70 160.51
  A 2.20 2.20 0.0 0 0 117.48 160.50
  L 113.58 173.87
  Q 113.40 174.50 114.05 174.50
  L 115.18 174.50
  Q 115.87 174.50 116.05 173.83
  L 116.61 171.73
  Q 116.73 171.26 117.22 171.14
  L 121.45 170.12
  Q 122.04 169.98 122.19 170.56"
/>
<path stroke="#888888" vector-effect="non-scaling-stroke" d="
  M 133.18 164.21
  L 138.96 174.01
  A 1.48 1.48 0.0 0 0 141.72 173.26
  L 141.81 159.74
  A 0.44 0.44 0.0 0 0 141.49 159.32
  Q 140.38 159.00 139.85 159.41
  Q 139.45 159.71 139.48 160.71
  Q 139.59 164.96 139.47 169.32
  Q 139.44 170.26 138.97 169.45
  L 133.33 159.80
  A 1.52 1.52 0.0 0 0 130.50 160.57
  L 130.50 173.87
  Q 130.50 174.50 131.12 174.50
  L 132.12 174.50
  Q 132.75 174.50 132.75 173.87
  L 132.75 164.32
  Q 132.75 163.47 133.18 164.21"
/>
<path stroke="#888888" vector-effect="non-scaling-stroke" d="
  M 154.37 172.33
  L 148.67 171.83
  Q 148.22 171.79 148.02 172.19
  L 147.60 173.05
  Q 147.34 173.58 147.88 173.80
  C 151.28 175.22 158.47 175.63 157.73 169.79
  Q 157.66 169.26 157.29 168.88
  Q 154.35 165.85 150.26 164.74
  A 1.57 1.57 0.0 0 1 149.70 162.00
  C 151.21 160.80 153.69 162.04 155.29 162.25
  A 1.06 1.06 0.0 0 0 155.84 160.22
  C 151.75 158.50 144.53 158.82 147.45 165.65
  A 1.08 1.08 0.0 0 0 148.02 166.22
  C 149.65 166.91 157.01 168.91 154.99 172.03
  A 0.69 0.68 18.8 0 1 154.37 172.33"
/>
<path stroke="#888888" vector-effect="non-scaling-stroke" d="
  M 170.72 170.58
  L 171.61 173.83
  Q 171.79 174.50 172.49 174.50
  L 173.48 174.50
  A 0.58 0.58 0.0 0 0 174.04 173.76
  L 170.21 160.50
  A 2.20 2.20 0.0 0 0 165.98 160.51
  L 162.20 173.75
  A 0.59 0.59 0.0 0 0 162.77 174.50
  L 163.88 174.50
  A 0.81 0.81 0.0 0 0 164.67 173.88
  L 165.14 171.90
  A 1.05 1.05 0.0 0 1 165.94 171.11
  L 170.08 170.20
  A 0.54 0.53 75.4 0 1 170.72 170.58"
/>
<path stroke="#888888" vector-effect="non-scaling-stroke" d="
  M 181.78 169.43
  Q 186.53 169.23 187.68 173.81
  A 1.28 1.14 34.8 0 0 190.09 173.52
  Q 189.54 171.13 187.93 169.48
  A 0.60 0.59 48.4 0 1 187.98 168.60
  L 189.19 167.64
  Q 189.61 167.31 189.78 166.80
  C 192.52 158.82 184.24 159.18 179.37 159.26
  Q 178.79 159.27 178.79 159.86
  L 178.92 173.88
  Q 178.93 174.59 179.64 174.52
  L 180.61 174.42
  Q 181.25 174.36 181.25 173.72
  L 181.25 169.99
  Q 181.25 169.46 181.78 169.43"
/>
<path stroke="#888888" vector-effect="non-scaling-stroke" d="
  M 197.5464 159.9064
  A 0.64 0.64 0.0 0 0 196.9098 159.2631
  L 195.7698 159.2571
  A 0.64 0.64 0.0 0 0 195.1265 159.8938
  L 195.0536 173.8136
  A 0.64 0.64 0.0 0 0 195.6902 174.4569
  L 196.8302 174.4629
  A 0.64 0.64 0.0 0 0 197.4735 173.8262
  L 197.5464 159.9064"
/>
<path stroke="#888888" vector-effect="non-scaling-stroke" d="
  M 223.70 163.93
  C 223.38 158.69 216.30 158.70 212.68 159.48
  Q 212.25 159.57 212.25 160.01
  L 212.25 173.53
  A 1.21 1.20 -39.9 0 0 214.64 173.74
  Q 214.96 171.94 214.55 170.26
  Q 214.41 169.69 214.99 169.60
  C 219.01 169.03 224.05 169.82 223.70 163.93"
/>
<path stroke="#888888" vector-effect="non-scaling-stroke" d="
  M 237.81 168.41
  Q 240.12 167.00 239.97 164.50
  C 239.58 158.34 233.29 159.22 229.02 159.23
  Q 228.50 159.23 228.50 159.75
  L 228.50 173.87
  Q 228.50 174.50 229.12 174.50
  L 230.00 174.50
  Q 230.75 174.50 230.75 173.75
  L 230.75 170.02
  A 0.56 0.56 0.0 0 1 231.27 169.46
  Q 235.74 169.13 237.13 173.31
  C 237.52 174.46 238.30 174.93 239.41 174.36
  Q 240.05 174.03 239.73 173.39
  L 237.59 169.16
  A 0.58 0.57 -29.2 0 1 237.81 168.41"
/>
<path stroke="#888888" vector-effect="non-scaling-stroke" d="
  M 247.49 165.25
  A 0.47 0.47 0.0 0 1 247.02 164.72
  L 247.37 162.16
  A 0.47 0.47 0.0 0 1 247.83 161.75
  L 252.53 161.75
  A 0.47 0.47 0.0 0 0 253.00 161.28
  L 253.00 159.72
  A 0.47 0.47 0.0 0 0 252.53 159.25
  L 245.22 159.25
  A 0.47 0.47 0.0 0 0 244.75 159.72
  L 244.75 174.03
  A 0.47 0.47 0.0 0 0 245.22 174.50
  L 253.03 174.50
  A 0.47 0.47 0.0 0 0 253.50 174.03
  L 253.50 172.47
  A 0.47 0.47 0.0 0 0 253.03 172.00
  L 247.46 172.00
  A 0.47 0.47 0.0 0 1 246.99 171.53
  L 247.02 167.97
  A 0.47 0.47 0.0 0 1 247.49 167.50
  L 252.03 167.50
  A 0.47 0.47 0.0 0 0 252.50 167.03
  L 252.50 165.72
  A 0.47 0.47 0.0 0 0 252.03 165.25
  L 247.49 165.25"
/>
<path stroke="#888888" vector-effect="non-scaling-stroke" d="
  M 261.08 159.37
  C 258.44 159.60 257.09 162.76 258.24 164.91
  C 259.30 166.88 263.19 168.10 265.29 168.96
  A 1.82 1.81 -72.0 0 1 266.37 171.08
  C 265.85 173.15 261.74 172.16 260.19 171.68
  A 1.18 1.18 0.0 0 0 259.32 173.86
  C 267.97 178.17 274.13 168.55 261.62 164.83
  A 1.70 1.70 0.0 0 1 260.42 162.99
  C 260.75 160.38 264.86 161.93 266.47 162.27
  Q 267.08 162.41 267.26 161.80
  L 267.52 160.91
  Q 267.66 160.44 267.20 160.26
  Q 264.21 159.09 261.08 159.37"
/>
<path stroke="#888888" vector-effect="non-scaling-stroke" d="
  M 277.26 159.29
  C 273.93 159.26 272.22 163.01 274.10 165.48
  C 275.34 167.12 278.87 168.07 281.01 169.11
  A 1.68 1.67 27.7 0 1 281.74 171.42
  C 280.86 173.01 277.05 172.04 275.47 171.70
  A 1.14 1.14 0.0 0 0 274.73 173.84
  C 277.52 175.23 285.73 175.29 284.25 169.93
  C 283.50 167.24 279.06 165.34 276.70 164.64
  A 1.56 1.56 0.0 0 1 275.81 162.33
  Q 276.15 161.78 277.06 161.57
  C 278.28 161.28 280.70 161.98 281.95 162.07
  A 1.00 1.00 0.0 0 0 282.37 160.13
  Q 280.16 159.31 277.26 159.29"
/>
<path stroke="#888888" vector-effect="non-scaling-stroke" d="
  M 191.28 184.56
  L 188.61 180.42
  A 0.58 0.58 0.0 0 0 187.54 180.73
  L 187.45 186.19
  A 0.51 0.50 51.2 0 0 188.45 186.30
  Q 188.83 184.42 188.06 182.74
  A 0.34 0.34 0.0 0 1 188.64 182.39
  L 191.70 186.33
  A 0.64 0.63 31.3 0 0 192.83 186.06
  Q 193.25 183.72 192.80 180.99
  Q 192.76 180.76 192.58 180.65
  A 0.37 0.37 0.0 0 0 192.01 180.97
  L 191.99 184.36
  A 0.39 0.38 29.1 0 1 191.28 184.56"
/>
<path stroke="#888888" vector-effect="non-scaling-stroke" d="
  M 229.60 184.19
  L 231.05 186.68
  Q 231.20 186.94 231.49 186.98
  L 231.80 187.02
  A 0.28 0.27 -17.8 0 0 232.04 186.56
  Q 230.14 184.57 231.95 182.73
  A 0.77 0.77 0.0 0 0 232.03 181.74
  Q 230.62 179.79 228.26 180.55
  Q 227.75 180.71 227.75 181.25
  L 227.75 186.25
  A 0.48 0.48 0.0 0 0 228.71 186.31
  Q 228.81 185.41 228.73 184.46
  A 0.47 0.47 0.0 0 1 229.60 184.19"
/>
<path stroke="#888888" vector-effect="non-scaling-stroke" d="
  M 236.08 184.53
  L 234.97 180.61
  A 0.40 0.40 0.0 0 0 234.19 180.80
  Q 234.80 183.80 236.32 186.43
  Q 236.63 186.97 236.99 186.46
  Q 238.77 183.94 239.13 180.96
  A 0.29 0.29 0.0 0 0 238.58 180.81
  L 237.00 184.58
  A 0.49 0.49 0.0 0 1 236.08 184.53"
/>
<path stroke="#888888" vector-effect="non-scaling-stroke" d="
  M 105.17 183.17
  A 0.80 0.80 0.0 0 1 105.18 181.57
  L 107.33 181.47
  A 0.19 0.18 88.4 0 0 107.50 181.28
  Q 107.50 181.14 107.50 181.01
  A 0.50 0.50 0.0 0 0 107.00 180.50
  L 104.20 180.50
  Q 103.65 180.50 103.65 181.05
  L 103.58 186.51
  A 0.29 0.28 -14.8 0 0 104.01 186.76
  L 104.27 186.61
  Q 104.50 186.47 104.50 186.20
  L 104.50 184.77
  A 0.57 0.57 0.0 0 1 105.20 184.21
  Q 106.29 184.46 107.18 183.99
  A 0.38 0.38 0.0 0 0 107.03 183.28
  L 105.17 183.17"
/>
<path stroke="#888888" vector-effect="non-scaling-stroke" d="
  M 116.33 183.73
  A 3.19 3.19 0.0 0 0 113.14 180.54
  A 3.19 3.19 0.0 0 0 109.95 183.73
  A 3.19 3.19 0.0 0 0 113.14 186.92
  A 3.19 3.19 0.0 0 0 116.33 183.73"
/>
<path stroke="#888888" vector-effect="non-scaling-stroke" d="
  M 120.04 184.71
  A 0.66 0.66 0.0 0 1 121.30 184.50
  Q 121.63 185.27 122.15 185.93
  A 0.32 0.31 8.8 0 0 122.66 185.56
  Q 121.79 184.28 123.10 183.06
  A 1.36 1.35 27.0 0 0 122.34 180.72
  L 119.96 180.43
  Q 119.25 180.34 119.22 181.05
  L 119.00 186.14
  A 0.46 0.46 0.0 0 0 119.92 186.20
  L 120.04 184.71"
/>
<path stroke="#888888" vector-effect="non-scaling-stroke" d="
  M 131.57 184.08
  L 133.92 183.86
  A 0.25 0.25 0.0 0 0 134.04 183.40
  Q 133.03 182.75 131.81 183.10
  Q 131.28 183.25 131.11 182.73
  L 130.98 182.29
  Q 130.85 181.88 131.28 181.82
  L 133.96 181.41
  Q 134.30 181.36 134.25 181.02
  Q 134.23 180.88 134.15 180.77
  Q 134.01 180.56 133.62 180.53
  Q 132.33 180.40 130.92 180.53
  Q 130.31 180.58 130.29 181.19
  L 130.13 186.06
  Q 130.10 186.76 130.81 186.76
  L 134.43 186.74
  A 0.28 0.28 0.0 0 0 134.46 186.18
  L 131.55 185.91
  A 0.60 0.60 0.0 0 1 131.00 185.31
  L 131.00 184.70
  Q 131.00 184.13 131.57 184.08"
/>
<path stroke="#888888" vector-effect="non-scaling-stroke" d="
  M 137.03 181.30
  L 137.05 186.04
  A 0.83 0.83 0.0 0 0 137.88 186.87
  L 138.94 186.86
  A 3.55 3.05 -0.2 0 0 142.48 183.80
  L 142.48 183.50
  A 3.55 3.05 -0.2 0 0 138.92 180.46
  L 137.86 180.47
  A 0.83 0.83 0.0 0 0 137.03 181.30"
/>
<path stroke="#888888" vector-effect="non-scaling-stroke" d="
  M 149.11 181.34
  Q 149.43 183.39 148.70 185.25
  A 1.37 1.37 0.0 0 1 146.05 184.78
  L 145.98 180.73
  A 0.23 0.23 0.0 0 0 145.75 180.50
  Q 145.62 180.50 145.49 180.50
  Q 145.30 180.50 145.29 180.69
  Q 145.19 182.40 145.27 184.09
  C 145.43 187.82 149.57 188.06 149.98 184.74
  Q 150.22 182.77 149.94 181.20
  A 0.42 0.42 0.0 0 0 149.11 181.34"
/>
<path stroke="#888888" vector-effect="non-scaling-stroke" d="
  M 155.10 181.61
  Q 156.19 181.28 157.25 181.79
  A 0.38 0.38 0.0 0 0 157.76 181.28
  Q 157.53 180.79 156.83 180.66
  C 151.72 179.75 151.40 187.18 156.73 186.99
  Q 157.79 186.96 157.96 185.87
  Q 158.07 185.17 157.46 185.52
  Q 154.62 187.13 153.77 184.05
  A 2.00 1.99 73.7 0 1 155.10 181.61"
/>
<path stroke="#888888" vector-effect="non-scaling-stroke" d="
  M 164.19 181.65
  Q 164.07 181.10 163.65 180.71
  Q 163.10 180.19 162.78 180.88
  L 160.32 186.37
  Q 160.23 186.57 160.44 186.64
  Q 160.59 186.70 160.78 186.76
  A 0.27 0.26 21.8 0 0 161.11 186.62
  Q 161.91 184.82 163.82 185.21
  Q 164.36 185.32 164.72 185.74
  L 165.53 186.68
  Q 166.39 187.67 166.09 186.39
  Q 165.57 184.20 164.46 182.33
  Q 164.28 182.01 164.19 181.65"
/>
<path stroke="#888888" vector-effect="non-scaling-stroke" d="
  M 170.57 181.61
  L 171.87 181.32
  A 0.42 0.41 -51.3 0 0 171.78 180.50
  L 167.50 180.50
  Q 167.25 180.50 167.25 180.75
  Q 167.25 180.89 167.25 181.03
  Q 167.26 181.50 167.74 181.50
  L 168.53 181.50
  Q 169.13 181.50 169.14 182.09
  L 169.20 186.26
  Q 169.21 186.71 169.65 186.66
  Q 170.02 186.62 170.01 186.25
  Q 169.95 184.28 170.02 182.28
  A 0.72 0.71 84.8 0 1 170.57 181.61"
/>
<path stroke="#888888" vector-effect="non-scaling-stroke" d="
  M 175.5097 181.0320
  A 0.47 0.47 0.0 0 0 175.0324 180.5694
  L 174.9124 180.5713
  A 0.47 0.47 0.0 0 0 174.4499 181.0486
  L 174.5303 186.1680
  A 0.47 0.47 0.0 0 0 175.0076 186.6306
  L 175.1276 186.6287
  A 0.47 0.47 0.0 0 0 175.5901 186.1514
  L 175.5097 181.0320"
/>
<path stroke="#888888" vector-effect="non-scaling-stroke" d="
  M 184.77 183.75
  A 3.23 3.23 0.0 0 0 181.54 180.52
  A 3.23 3.23 0.0 0 0 178.31 183.75
  A 3.23 3.23 0.0 0 0 181.54 186.98
  A 3.23 3.23 0.0 0 0 184.77 183.75"
/>
<path stroke="#888888" vector-effect="non-scaling-stroke" d="
  M 198.62 184.25
  Q 198.00 184.18 198.41 185.01
  A 0.25 0.24 54.9 0 0 198.80 185.08
  L 199.01 184.86
  A 0.20 0.19 47.9 0 1 199.30 184.88
  L 200.80 186.73
  A 0.36 0.36 0.0 0 0 201.41 186.36
  L 198.97 180.64
  A 0.47 0.47 0.0 0 0 198.11 180.63
  L 195.67 186.16
  A 0.40 0.40 0.0 0 0 196.33 186.59
  Q 197.91 184.88 198.01 182.52
  A 0.42 0.42 0.0 0 1 198.85 182.47
  L 199.07 183.78
  Q 199.17 184.32 198.62 184.25"
/>
<path stroke="#888888" vector-effect="non-scaling-stroke" d="
  M 207.51 186.20
  L 205.61 185.95
  A 0.62 0.62 0.0 0 1 205.07 185.36
  L 204.84 180.55
  A 0.37 0.36 44.8 0 0 204.11 180.55
  L 203.95 185.81
  Q 203.92 186.71 204.81 186.80
  L 207.42 187.05
  A 0.43 0.43 0.0 0 0 207.51 186.20"
/>
<path stroke="#888888" vector-effect="non-scaling-stroke" d="
  M 215.44 182.99
  A 0.79 0.79 0.0 0 1 215.86 181.48
  L 217.08 181.64
  Q 217.53 181.70 217.45 181.26
  Q 217.38 180.85 216.60 180.50
  A 1.87 1.86 -87.6 0 0 214.08 182.82
  Q 214.55 184.15 216.17 184.26
  A 0.96 0.83 44.7 0 1 216.31 186.05
  Q 215.20 185.98 214.28 185.72
  A 0.47 0.47 0.0 0 0 213.91 186.57
  Q 215.53 187.57 217.28 186.47
  A 1.57 1.57 0.0 0 0 217.07 183.70
  L 215.44 182.99"
/>
<path stroke="#888888" vector-effect="non-scaling-stroke" d="
  M 221.78 181.61
  L 224.58 181.45
  Q 224.75 181.44 224.75 181.27
  Q 224.75 181.14 224.75 181.00
  A 0.50 0.49 0.6 0 0 224.25 180.50
  L 221.50 180.50
  Q 220.75 180.50 220.75 181.25
  L 220.75 186.01
  Q 220.75 186.60 221.33 186.71
  Q 222.92 187.01 224.50 186.91
  Q 224.75 186.89 224.76 186.63
  Q 224.78 186.32 224.48 186.26
  L 221.70 185.68
  A 0.87 0.86 53.1 0 1 221.94 183.97
  Q 223.52 184.09 224.25 183.97
  A 0.31 0.30 46.0 0 0 224.26 183.37
  L 221.70 182.85
  A 0.63 0.62 48.9 0 1 221.78 181.61"
/>
<path stroke="#888888" vector-effect="non-scaling-stroke" d="
  M 241.99 180.53
  L 242.03 186.75
  A 0.01 0.01 0.0 0 0 242.04 186.76
  L 242.17 186.76
  A 0.76 0.72 89.7 0 0 242.88 186.00
  L 242.86 181.28
  A 0.76 0.72 89.7 0 0 242.13 180.52
  L 242.00 180.52
  A 0.01 0.01 0.0 0 0 241.99 180.53"
/>
<path stroke="#888888" vector-effect="non-scaling-stroke" d="
  M 249.27 185.92
  A 1.90 1.90 0.0 0 1 246.87 184.92
  Q 245.82 182.58 247.80 181.53
  Q 248.22 181.30 248.69 181.39
  L 250.64 181.78
  A 0.27 0.27 0.0 0 0 250.85 181.29
  C 247.04 178.69 243.47 183.58 247.22 186.50
  Q 249.13 187.98 250.86 186.07
  A 0.37 0.37 0.0 0 0 250.45 185.47
  L 249.27 185.92"
/>
<path stroke="#888888" vector-effect="non-scaling-stroke" d="
  M 254.88 185.70
  Q 254.15 184.87 255.00 184.30
  Q 255.41 184.03 255.91 184.01
  L 257.46 183.97
  A 0.33 0.33 0.0 0 0 257.51 183.31
  L 255.21 182.89
  A 0.59 0.59 0.0 0 1 255.24 181.72
  L 257.63 181.40
  A 0.13 0.13 0.0 0 0 257.75 181.27
  Q 257.75 181.13 257.75 180.99
  Q 257.74 180.50 257.24 180.50
  L 254.38 180.50
  Q 253.75 180.50 253.75 181.13
  L 253.75 186.06
  Q 253.75 186.63 254.32 186.69
  L 257.23 187.02
  Q 257.34 187.04 257.42 186.95
  L 257.62 186.75
  A 0.44 0.44 0.0 0 0 257.31 186.00
  L 255.55 186.00
  A 0.90 0.86 -19.7 0 1 254.88 185.70"
/>
<path stroke="#888888" vector-effect="non-scaling-stroke" d="
  M 261.74 181.45
  Q 262.58 181.09 263.57 181.75
  A 0.29 0.29 0.0 0 0 263.94 181.31
  Q 262.66 179.91 261.12 180.98
  A 1.60 1.60 0.0 0 0 261.34 183.74
  L 262.99 184.54
  A 0.82 0.82 0.0 0 1 262.50 186.09
  L 260.85 185.80
  Q 260.65 185.77 260.60 185.96
  Q 260.55 186.11 260.46 186.32
  A 0.46 0.46 0.0 0 0 260.92 186.98
  L 263.32 186.75
  Q 263.90 186.70 264.05 186.14
  Q 264.77 183.47 261.96 183.10
  A 0.86 0.86 0.0 0 1 261.74 181.45"
/>
<path stroke="#888888" vector-effect="non-scaling-stroke" d="
  M 176.60 68.90
  L 176.46 63.20
  Q 176.44 62.77 176.07 62.58
  C 172.37 60.69 167.00 57.05 162.85 57.00
  Q 157.49 56.93 151.97 57.03
  A 0.49 0.48 89.4 0 0 151.50 57.52
  L 151.50 73.75
  A 0.50 0.50 0.0 0 0 152.00 74.25
  L 216.50 74.25
  Q 217.00 74.25 217.00 73.75
  L 217.00 70.00
  Q 217.00 69.50 216.50 69.50
  L 177.21 69.50
  A 0.61 0.61 0.0 0 1 176.60 68.90"
/>
<path stroke="#888888" vector-effect="non-scaling-stroke" d="
  M 190.30 65.14
  Q 195.06 61.91 199.74 58.55
  Q 200.17 58.24 200.21 57.93
  Q 200.28 57.41 199.55 57.04
  Q 199.16 56.84 198.78 57.07
  L 188.51 63.04
  Q 188.14 63.25 187.72 63.25
  L 180.28 63.25
  Q 179.64 63.25 179.67 63.89
  L 179.78 66.01
  Q 179.80 66.43 180.22 66.45
  C 183.65 66.63 187.28 67.19 190.30 65.14"
/>
<path stroke="#888888" vector-effect="non-scaling-stroke" d="
  M 178.25 96.01
  C 171.60 95.84 173.25 81.93 173.23 78.00
  Q 173.23 77.50 172.74 77.50
  L 158.25 77.50
  A 0.50 0.50 0.0 0 0 157.75 78.00
  L 157.75 98.52
  Q 157.75 99.16 158.39 99.18
  Q 164.86 99.46 171.30 99.07
  C 174.03 98.91 176.01 97.81 178.39 96.65
  A 0.34 0.34 0.0 0 0 178.25 96.01"
/>
<path stroke="#888888" vector-effect="non-scaling-stroke" d="
  M 179.03 93.00
  L 216.50 93.00
  Q 217.00 93.00 217.00 92.50
  L 217.00 78.00
  Q 217.00 77.50 216.50 77.50
  L 177.00 77.50
  Q 176.50 77.50 176.50 78.00
  L 176.50 90.47
  A 2.54 2.53 89.9 0 0 179.03 93.00"
/>
<path stroke="#888888" vector-effect="non-scaling-stroke" d="
  M 189.69 96.44
  C 183.97 96.59 180.12 99.83 174.86 101.47
  C 168.31 103.52 159.08 102.48 152.04 102.51
  Q 151.50 102.51 151.50 103.05
  L 151.50 109.62
  Q 151.50 110.25 152.13 110.25
  L 216.50 110.25
  Q 217.00 110.25 217.00 109.75
  L 217.00 96.78
  Q 217.00 96.32 216.54 96.31
  Q 203.09 96.07 189.69 96.44"
/>
<path stroke="#888888" vector-effect="non-scaling-stroke" d="
  M 192.29 121.25
  A 1.34 1.34 0.0 0 1 193.63 122.54
  L 193.80 127.03
  Q 193.82 127.50 194.29 127.50
  L 216.50 127.50
  A 0.50 0.50 0.0 0 0 217.00 127.00
  L 217.00 113.75
  Q 217.00 113.25 216.50 113.25
  L 152.00 113.25
  A 0.50 0.50 0.0 0 0 151.50 113.75
  L 151.50 126.75
  Q 151.50 127.50 152.25 127.50
  L 174.14 127.50
  A 0.66 0.66 0.0 0 0 174.80 126.86
  L 174.94 122.63
  A 1.43 1.43 0.0 0 1 176.37 121.25
  L 192.29 121.25"
/>
<path stroke="#888888" vector-effect="non-scaling-stroke" d="
  M 190.4863 124.7782
  A 0.55 0.55 0.0 0 0 189.9343 124.2301
  L 178.5544 124.2699
  A 0.55 0.55 0.0 0 0 178.0063 124.8218
  L 178.0137 126.9418
  A 0.55 0.55 0.0 0 0 178.5657 127.4899
  L 189.9456 127.4501
  A 0.55 0.55 0.0 0 0 190.4937 126.8982
  L 190.4863 124.7782"
/>
<path stroke="#888888" vector-effect="non-scaling-stroke" d="
  M 175.10 138.85
  A 0.62 0.62 0.0 0 1 175.72 138.25
  L 192.84 138.25
  A 0.62 0.62 0.0 0 1 193.46 138.83
  L 193.82 143.92
  A 0.62 0.62 0.0 0 0 194.44 144.50
  L 216.38 144.50
  A 0.62 0.62 0.0 0 0 217.00 143.88
  L 217.00 131.12
  A 0.62 0.62 0.0 0 0 216.38 130.50
  L 152.12 130.50
  A 0.62 0.62 0.0 0 0 151.50 131.12
  L 151.50 143.88
  A 0.62 0.62 0.0 0 0 152.12 144.50
  L 174.29 144.50
  A 0.62 0.62 0.0 0 0 174.91 143.90
  L 175.10 138.85"
/>
<path stroke="#888888" vector-effect="non-scaling-stroke" d="
  M 190.50 142.00
  A 0.50 0.50 0.0 0 0 190.00 141.50
  L 178.58 141.50
  A 0.50 0.50 0.0 0 0 178.08 142.00
  L 178.08 144.00
  A 0.50 0.50 0.0 0 0 178.58 144.50
  L 190.00 144.50
  A 0.50 0.50 0.0 0 0 190.50 144.00
  L 190.50 142.00"
/>
<path stroke="#888888" vector-effect="non-scaling-stroke" d="
  M 195.2250 82.4037
  A 1.88 1.88 0.0 0 0 193.3483 80.5204
  L 181.4683 80.4996
  A 1.88 1.88 0.0 0 0 179.5850 82.3764
  L 179.5750 88.0963
  A 1.88 1.88 0.0 0 0 181.4517 89.9796
  L 193.3317 90.0004
  A 1.88 1.88 0.0 0 0 195.2150 88.1236
  L 195.2250 82.4037"
/>
<path stroke="#888888" vector-effect="non-scaling-stroke" d="
  M 201.4598 81.0085
  A 0.56 0.56 0.0 0 0 200.8844 80.4644
  L 199.0051 80.5169
  A 0.56 0.56 0.0 0 0 198.4610 81.0923
  L 198.5202 83.2115
  A 0.56 0.56 0.0 0 0 199.0956 83.7556
  L 200.9749 83.7031
  A 0.56 0.56 0.0 0 0 201.5190 83.1277
  L 201.4598 81.0085"
/>
<path stroke="#888888" vector-effect="non-scaling-stroke" d="
  M 207.7239 81.2184
  A 0.81 0.81 0.0 0 0 206.8529 80.4745
  L 205.3176 80.5953
  A 0.81 0.81 0.0 0 0 204.5737 81.4664
  L 204.6961 83.0216
  A 0.81 0.81 0.0 0 0 205.5671 83.7655
  L 207.1024 83.6447
  A 0.81 0.81 0.0 0 0 207.8463 82.7736
  L 207.7239 81.2184"
/>
<path stroke="#888888" vector-effect="non-scaling-stroke" d="
  M 213.9849 81.3746
  A 0.94 0.94 0.0 0 0 213.0127 80.4680
  L 211.6935 80.5140
  A 0.94 0.94 0.0 0 0 210.7869 81.4863
  L 210.8351 82.8654
  A 0.94 0.94 0.0 0 0 211.8073 83.7720
  L 213.1265 83.7260
  A 0.94 0.94 0.0 0 0 214.0331 82.7537
  L 213.9849 81.3746"
/>
<path stroke="#888888" vector-effect="non-scaling-stroke" d="
  M 201.5362 87.6296
  A 0.81 0.81 0.0 0 0 200.7667 86.7810
  L 199.1686 86.7028
  A 0.81 0.81 0.0 0 0 198.3200 87.4723
  L 198.2438 89.0304
  A 0.81 0.81 0.0 0 0 199.0133 89.8790
  L 200.6114 89.9572
  A 0.81 0.81 0.0 0 0 201.4600 89.1877
  L 201.5362 87.6296"
/>
<path stroke="#888888" vector-effect="non-scaling-stroke" d="
  M 207.5990 87.4032
  A 0.74 0.74 0.0 0 0 206.8092 86.7166
  L 205.1732 86.8310
  A 0.74 0.74 0.0 0 0 204.4866 87.6208
  L 204.6010 89.2568
  A 0.74 0.74 0.0 0 0 205.3908 89.9434
  L 207.0268 89.8290
  A 0.74 0.74 0.0 0 0 207.7134 89.0392
  L 207.5990 87.4032"
/>
<path stroke="#888888" vector-effect="non-scaling-stroke" d="
  M 214.0415 87.7015
  A 0.92 0.92 0.0 0 0 213.1508 86.7531
  L 211.7315 86.7085
  A 0.92 0.92 0.0 0 0 210.7831 87.5992
  L 210.7385 89.0185
  A 0.92 0.92 0.0 0 0 211.6292 89.9669
  L 213.0485 90.0115
  A 0.92 0.92 0.0 0 0 213.9969 89.1208
  L 214.0415 87.7015"
/>
<path stroke="#888888" vector-effect="non-scaling-stroke" d="
  M 192.0118 84.1981
  A 0.44 0.44 0.0 0 0 191.5726 83.7573
  L 183.2126 83.7427
  A 0.44 0.44 0.0 0 0 182.7719 84.1819
  L 182.7682 86.3019
  A 0.44 0.44 0.0 0 0 183.2074 86.7427
  L 191.5674 86.7573
  A 0.44 0.44 0.0 0 0 192.0081 86.3181
  L 192.0118 84.1981"
/>
<path stroke="#888888" vector-effect="non-scaling-stroke" d="
  M 89.94 162.92
  A 0.33 0.33 0.0 0 0 89.31 162.92
  L 87.78 168.17
  A 0.33 0.33 0.0 0 0 88.19 168.58
  L 91.03 167.79
  A 0.33 0.33 0.0 0 0 91.26 167.38
  L 89.94 162.92"
/>
<path stroke="#888888" vector-effect="non-scaling-stroke" d="
  M 119.87 162.82
  A 0.33 0.33 0.0 0 0 119.23 162.82
  L 117.80 168.10
  A 0.33 0.33 0.0 0 0 118.20 168.51
  L 120.96 167.87
  A 0.33 0.33 0.0 0 0 121.20 167.46
  L 119.87 162.82"
/>
<path stroke="#888888" vector-effect="non-scaling-stroke" d="
  M 167.95 162.47
  L 166.34 168.08
  Q 166.14 168.75 166.82 168.56
  L 169.17 167.89
  A 0.65 0.64 74.4 0 0 169.61 167.09
  L 168.30 162.47
  A 0.18 0.18 0.0 0 0 167.95 162.47"
/>
<path stroke="#888888" vector-effect="non-scaling-stroke" d="
  M 181.26 162.23
  L 181.20 166.45
  A 0.53 0.53 0.0 0 0 181.72 166.99
  L 184.83 167.04
  A 2.90 1.93 0.9 0 0 187.76 165.15
  L 187.78 163.73
  A 2.90 1.93 0.9 0 0 184.91 161.76
  L 181.80 161.71
  A 0.53 0.53 0.0 0 0 181.26 162.23"
/>
<path stroke="#888888" vector-effect="non-scaling-stroke" d="
  M 214.76 162.37
  L 214.74 166.43
  A 0.61 0.61 0.0 0 0 215.35 167.04
  L 217.99 167.05
  A 3.43 2.46 0.2 0 0 221.43 164.60
  L 221.43 164.24
  A 3.43 2.46 0.2 0 0 218.01 161.77
  L 215.37 161.76
  A 0.61 0.61 0.0 0 0 214.76 162.37"
/>
<path stroke="#888888" vector-effect="non-scaling-stroke" d="
  M 230.76 162.45
  L 230.76 166.31
  A 0.71 0.71 0.0 0 0 231.47 167.03
  L 234.71 167.03
  A 2.79 2.50 0.1 0 0 237.50 164.54
  L 237.50 164.26
  A 2.79 2.50 0.1 0 0 234.71 161.75
  L 231.47 161.75
  A 0.71 0.71 0.0 0 0 230.76 162.45"
/>
<path stroke="#888888" vector-effect="non-scaling-stroke" d="
  M 228.91 182.79
  L 230.51 183.16
  A 0.57 0.57 0.0 0 0 231.06 182.23
  L 230.15 181.18
  A 0.62 0.61 -54.3 0 0 229.12 181.35
  L 228.69 182.37
  A 0.31 0.31 0.0 0 0 228.91 182.79"
/>
<path stroke="#888888" vector-effect="non-scaling-stroke" d="
  M 115.44 183.74
  A 2.30 2.30 0.0 0 0 113.14 181.44
  A 2.30 2.30 0.0 0 0 110.84 183.74
  A 2.30 2.30 0.0 0 0 113.14 186.04
  A 2.30 2.30 0.0 0 0 115.44 183.74"
/>
<path stroke="#888888" vector-effect="non-scaling-stroke" d="
  M 122.2711 182.5997
  A 1.19 1.02 18.1 0 0 121.4569 181.2605
  A 1.19 1.02 18.1 0 0 120.0089 181.8603
  A 1.19 1.02 18.1 0 0 120.8231 183.1995
  A 1.19 1.02 18.1 0 0 122.2711 182.5997"
/>
<path stroke="#888888" vector-effect="non-scaling-stroke" d="
  M 137.98 182.16
  L 138.00 185.38
  A 0.64 0.64 0.0 0 0 138.64 186.02
  L 139.07 186.01
  A 2.45 2.04 -0.3 0 0 141.51 183.96
  L 141.51 183.54
  A 2.45 2.04 -0.3 0 0 139.05 181.51
  L 138.62 181.52
  A 0.64 0.64 0.0 0 0 137.98 182.16"
/>
<path stroke="#888888" vector-effect="non-scaling-stroke" d="
  M 163.20 182.68
  L 162.53 183.34
  A 0.67 0.67 0.0 0 0 163.16 184.47
  Q 164.25 184.22 163.98 182.91
  Q 163.80 182.07 163.20 182.68"
/>
<path stroke="#888888" vector-effect="non-scaling-stroke" d="
  M 183.83 183.72
  A 2.32 2.32 0.0 0 0 181.51 181.40
  A 2.32 2.32 0.0 0 0 179.19 183.72
  A 2.32 2.32 0.0 0 0 181.51 186.04
  A 2.32 2.32 0.0 0 0 183.83 183.72"
/>
</g>
<path fill="#ffffff" d="
  M 0.00 0.00
  L 5.30 0.00
  Q 0.25 0.04 0.00 6.46
  L 0.00 0.00
  Z"
/>
<path fill="#111111" d="
  M 5.30 0.00
  L 361.06 0.00
  L 363.91 0.37
  A 2.18 2.17 2.7 0 1 365.80 2.44
  L 366.00 7.32
  L 366.00 236.81
  Q 366.13 239.04 363.44 239.00
  L 4.19 239.00
  L 1.56 238.47
  A 0.89 0.89 0.0 0 1 0.88 237.79
  L 0.00 233.68
  L 0.00 6.46
  Q 0.25 0.04 5.30 0.00
  Z
  M 194.87 65.93
  L 203.23 59.94
  Q 203.61 59.66 203.54 59.20
  L 202.81 54.69
  Q 202.70 54.04 202.04 54.02
  C 196.64 53.86 193.20 56.69 188.70 59.24
  C 186.10 60.71 183.75 60.26 180.91 60.25
  C 174.40 60.25 169.75 54.02 163.38 54.00
  Q 156.55 53.98 149.73 54.01
  A 1.25 1.24 89.8 0 0 148.50 55.26
  L 148.50 76.53
  A 0.87 0.87 0.0 0 0 149.33 77.40
  L 152.57 77.55
  Q 154.50 77.63 154.50 79.57
  L 154.50 97.15
  Q 154.50 99.06 152.59 99.19
  L 149.24 99.40
  A 1.09 1.09 0.0 0 0 148.22 100.50
  L 148.50 146.63
  A 1.13 1.13 0.0 0 0 149.63 147.75
  L 218.50 147.75
  A 1.75 1.74 90.0 0 0 220.24 146.00
  L 220.25 68.53
  A 2.03 2.03 0.0 0 0 218.22 66.50
  L 195.05 66.50
  Q 194.08 66.50 194.87 65.93
  Z
  M 92.25 170.51
  L 93.08 173.85
  Q 93.24 174.50 93.91 174.50
  L 94.98 174.50
  A 0.58 0.58 0.0 0 0 95.54 173.76
  L 91.77 160.50
  A 2.23 2.22 45.1 0 0 87.49 160.49
  L 83.65 173.98
  Q 83.50 174.50 84.05 174.50
  L 85.37 174.50
  A 0.80 0.80 0.0 0 0 86.15 173.89
  L 86.68 171.80
  A 0.90 0.88 -0.1 0 1 87.33 171.16
  L 91.58 170.11
  Q 92.12 169.98 92.25 170.51
  Z
  M 103.10 171.40
  Q 102.76 166.03 103.04 160.64
  Q 103.08 159.80 102.69 159.46
  Q 102.16 159.00 101.26 159.31
  A 0.71 0.70 -9.0 0 0 100.78 159.96
  L 100.67 173.83
  Q 100.66 174.50 101.33 174.50
  L 108.50 174.50
  Q 109.25 174.50 109.25 173.75
  L 109.25 172.50
  Q 109.25 172.00 108.75 172.00
  L 103.74 172.00
  A 0.64 0.64 0.0 0 1 103.10 171.40
  Z
  M 122.19 170.56
  L 123.07 173.96
  A 0.72 0.72 0.0 0 0 123.77 174.50
  L 124.95 174.50
  Q 125.66 174.50 125.47 173.81
  L 121.70 160.51
  A 2.20 2.20 0.0 0 0 117.48 160.50
  L 113.58 173.87
  Q 113.40 174.50 114.05 174.50
  L 115.18 174.50
  Q 115.87 174.50 116.05 173.83
  L 116.61 171.73
  Q 116.73 171.26 117.22 171.14
  L 121.45 170.12
  Q 122.04 169.98 122.19 170.56
  Z
  M 133.18 164.21
  L 138.96 174.01
  A 1.48 1.48 0.0 0 0 141.72 173.26
  L 141.81 159.74
  A 0.44 0.44 0.0 0 0 141.49 159.32
  Q 140.38 159.00 139.85 159.41
  Q 139.45 159.71 139.48 160.71
  Q 139.59 164.96 139.47 169.32
  Q 139.44 170.26 138.97 169.45
  L 133.33 159.80
  A 1.52 1.52 0.0 0 0 130.50 160.57
  L 130.50 173.87
  Q 130.50 174.50 131.12 174.50
  L 132.12 174.50
  Q 132.75 174.50 132.75 173.87
  L 132.75 164.32
  Q 132.75 163.47 133.18 164.21
  Z
  M 154.37 172.33
  L 148.67 171.83
  Q 148.22 171.79 148.02 172.19
  L 147.60 173.05
  Q 147.34 173.58 147.88 173.80
  C 151.28 175.22 158.47 175.63 157.73 169.79
  Q 157.66 169.26 157.29 168.88
  Q 154.35 165.85 150.26 164.74
  A 1.57 1.57 0.0 0 1 149.70 162.00
  C 151.21 160.80 153.69 162.04 155.29 162.25
  A 1.06 1.06 0.0 0 0 155.84 160.22
  C 151.75 158.50 144.53 158.82 147.45 165.65
  A 1.08 1.08 0.0 0 0 148.02 166.22
  C 149.65 166.91 157.01 168.91 154.99 172.03
  A 0.69 0.68 18.8 0 1 154.37 172.33
  Z
  M 170.72 170.58
  L 171.61 173.83
  Q 171.79 174.50 172.49 174.50
  L 173.48 174.50
  A 0.58 0.58 0.0 0 0 174.04 173.76
  L 170.21 160.50
  A 2.20 2.20 0.0 0 0 165.98 160.51
  L 162.20 173.75
  A 0.59 0.59 0.0 0 0 162.77 174.50
  L 163.88 174.50
  A 0.81 0.81 0.0 0 0 164.67 173.88
  L 165.14 171.90
  A 1.05 1.05 0.0 0 1 165.94 171.11
  L 170.08 170.20
  A 0.54 0.53 75.4 0 1 170.72 170.58
  Z
  M 181.78 169.43
  Q 186.53 169.23 187.68 173.81
  A 1.28 1.14 34.8 0 0 190.09 173.52
  Q 189.54 171.13 187.93 169.48
  A 0.60 0.59 48.4 0 1 187.98 168.60
  L 189.19 167.64
  Q 189.61 167.31 189.78 166.80
  C 192.52 158.82 184.24 159.18 179.37 159.26
  Q 178.79 159.27 178.79 159.86
  L 178.92 173.88
  Q 178.93 174.59 179.64 174.52
  L 180.61 174.42
  Q 181.25 174.36 181.25 173.72
  L 181.25 169.99
  Q 181.25 169.46 181.78 169.43
  Z
  M 197.5464 159.9064
  A 0.64 0.64 0.0 0 0 196.9098 159.2631
  L 195.7698 159.2571
  A 0.64 0.64 0.0 0 0 195.1265 159.8938
  L 195.0536 173.8136
  A 0.64 0.64 0.0 0 0 195.6902 174.4569
  L 196.8302 174.4629
  A 0.64 0.64 0.0 0 0 197.4735 173.8262
  L 197.5464 159.9064
  Z
  M 223.70 163.93
  C 223.38 158.69 216.30 158.70 212.68 159.48
  Q 212.25 159.57 212.25 160.01
  L 212.25 173.53
  A 1.21 1.20 -39.9 0 0 214.64 173.74
  Q 214.96 171.94 214.55 170.26
  Q 214.41 169.69 214.99 169.60
  C 219.01 169.03 224.05 169.82 223.70 163.93
  Z
  M 237.81 168.41
  Q 240.12 167.00 239.97 164.50
  C 239.58 158.34 233.29 159.22 229.02 159.23
  Q 228.50 159.23 228.50 159.75
  L 228.50 173.87
  Q 228.50 174.50 229.12 174.50
  L 230.00 174.50
  Q 230.75 174.50 230.75 173.75
  L 230.75 170.02
  A 0.56 0.56 0.0 0 1 231.27 169.46
  Q 235.74 169.13 237.13 173.31
  C 237.52 174.46 238.30 174.93 239.41 174.36
  Q 240.05 174.03 239.73 173.39
  L 237.59 169.16
  A 0.58 0.57 -29.2 0 1 237.81 168.41
  Z
  M 247.49 165.25
  A 0.47 0.47 0.0 0 1 247.02 164.72
  L 247.37 162.16
  A 0.47 0.47 0.0 0 1 247.83 161.75
  L 252.53 161.75
  A 0.47 0.47 0.0 0 0 253.00 161.28
  L 253.00 159.72
  A 0.47 0.47 0.0 0 0 252.53 159.25
  L 245.22 159.25
  A 0.47 0.47 0.0 0 0 244.75 159.72
  L 244.75 174.03
  A 0.47 0.47 0.0 0 0 245.22 174.50
  L 253.03 174.50
  A 0.47 0.47 0.0 0 0 253.50 174.03
  L 253.50 172.47
  A 0.47 0.47 0.0 0 0 253.03 172.00
  L 247.46 172.00
  A 0.47 0.47 0.0 0 1 246.99 171.53
  L 247.02 167.97
  A 0.47 0.47 0.0 0 1 247.49 167.50
  L 252.03 167.50
  A 0.47 0.47 0.0 0 0 252.50 167.03
  L 252.50 165.72
  A 0.47 0.47 0.0 0 0 252.03 165.25
  L 247.49 165.25
  Z
  M 261.08 159.37
  C 258.44 159.60 257.09 162.76 258.24 164.91
  C 259.30 166.88 263.19 168.10 265.29 168.96
  A 1.82 1.81 -72.0 0 1 266.37 171.08
  C 265.85 173.15 261.74 172.16 260.19 171.68
  A 1.18 1.18 0.0 0 0 259.32 173.86
  C 267.97 178.17 274.13 168.55 261.62 164.83
  A 1.70 1.70 0.0 0 1 260.42 162.99
  C 260.75 160.38 264.86 161.93 266.47 162.27
  Q 267.08 162.41 267.26 161.80
  L 267.52 160.91
  Q 267.66 160.44 267.20 160.26
  Q 264.21 159.09 261.08 159.37
  Z
  M 277.26 159.29
  C 273.93 159.26 272.22 163.01 274.10 165.48
  C 275.34 167.12 278.87 168.07 281.01 169.11
  A 1.68 1.67 27.7 0 1 281.74 171.42
  C 280.86 173.01 277.05 172.04 275.47 171.70
  A 1.14 1.14 0.0 0 0 274.73 173.84
  C 277.52 175.23 285.73 175.29 284.25 169.93
  C 283.50 167.24 279.06 165.34 276.70 164.64
  A 1.56 1.56 0.0 0 1 275.81 162.33
  Q 276.15 161.78 277.06 161.57
  C 278.28 161.28 280.70 161.98 281.95 162.07
  A 1.00 1.00 0.0 0 0 282.37 160.13
  Q 280.16 159.31 277.26 159.29
  Z
  M 191.28 184.56
  L 188.61 180.42
  A 0.58 0.58 0.0 0 0 187.54 180.73
  L 187.45 186.19
  A 0.51 0.50 51.2 0 0 188.45 186.30
  Q 188.83 184.42 188.06 182.74
  A 0.34 0.34 0.0 0 1 188.64 182.39
  L 191.70 186.33
  A 0.64 0.63 31.3 0 0 192.83 186.06
  Q 193.25 183.72 192.80 180.99
  Q 192.76 180.76 192.58 180.65
  A 0.37 0.37 0.0 0 0 192.01 180.97
  L 191.99 184.36
  A 0.39 0.38 29.1 0 1 191.28 184.56
  Z
  M 229.60 184.19
  L 231.05 186.68
  Q 231.20 186.94 231.49 186.98
  L 231.80 187.02
  A 0.28 0.27 -17.8 0 0 232.04 186.56
  Q 230.14 184.57 231.95 182.73
  A 0.77 0.77 0.0 0 0 232.03 181.74
  Q 230.62 179.79 228.26 180.55
  Q 227.75 180.71 227.75 181.25
  L 227.75 186.25
  A 0.48 0.48 0.0 0 0 228.71 186.31
  Q 228.81 185.41 228.73 184.46
  A 0.47 0.47 0.0 0 1 229.60 184.19
  Z
  M 236.08 184.53
  L 234.97 180.61
  A 0.40 0.40 0.0 0 0 234.19 180.80
  Q 234.80 183.80 236.32 186.43
  Q 236.63 186.97 236.99 186.46
  Q 238.77 183.94 239.13 180.96
  A 0.29 0.29 0.0 0 0 238.58 180.81
  L 237.00 184.58
  A 0.49 0.49 0.0 0 1 236.08 184.53
  Z
  M 105.17 183.17
  A 0.80 0.80 0.0 0 1 105.18 181.57
  L 107.33 181.47
  A 0.19 0.18 88.4 0 0 107.50 181.28
  Q 107.50 181.14 107.50 181.01
  A 0.50 0.50 0.0 0 0 107.00 180.50
  L 104.20 180.50
  Q 103.65 180.50 103.65 181.05
  L 103.58 186.51
  A 0.29 0.28 -14.8 0 0 104.01 186.76
  L 104.27 186.61
  Q 104.50 186.47 104.50 186.20
  L 104.50 184.77
  A 0.57 0.57 0.0 0 1 105.20 184.21
  Q 106.29 184.46 107.18 183.99
  A 0.38 0.38 0.0 0 0 107.03 183.28
  L 105.17 183.17
  Z
  M 116.33 183.73
  A 3.19 3.19 0.0 0 0 113.14 180.54
  A 3.19 3.19 0.0 0 0 109.95 183.73
  A 3.19 3.19 0.0 0 0 113.14 186.92
  A 3.19 3.19 0.0 0 0 116.33 183.73
  Z
  M 120.04 184.71
  A 0.66 0.66 0.0 0 1 121.30 184.50
  Q 121.63 185.27 122.15 185.93
  A 0.32 0.31 8.8 0 0 122.66 185.56
  Q 121.79 184.28 123.10 183.06
  A 1.36 1.35 27.0 0 0 122.34 180.72
  L 119.96 180.43
  Q 119.25 180.34 119.22 181.05
  L 119.00 186.14
  A 0.46 0.46 0.0 0 0 119.92 186.20
  L 120.04 184.71
  Z
  M 131.57 184.08
  L 133.92 183.86
  A 0.25 0.25 0.0 0 0 134.04 183.40
  Q 133.03 182.75 131.81 183.10
  Q 131.28 183.25 131.11 182.73
  L 130.98 182.29
  Q 130.85 181.88 131.28 181.82
  L 133.96 181.41
  Q 134.30 181.36 134.25 181.02
  Q 134.23 180.88 134.15 180.77
  Q 134.01 180.56 133.62 180.53
  Q 132.33 180.40 130.92 180.53
  Q 130.31 180.58 130.29 181.19
  L 130.13 186.06
  Q 130.10 186.76 130.81 186.76
  L 134.43 186.74
  A 0.28 0.28 0.0 0 0 134.46 186.18
  L 131.55 185.91
  A 0.60 0.60 0.0 0 1 131.00 185.31
  L 131.00 184.70
  Q 131.00 184.13 131.57 184.08
  Z
  M 137.03 181.30
  L 137.05 186.04
  A 0.83 0.83 0.0 0 0 137.88 186.87
  L 138.94 186.86
  A 3.55 3.05 -0.2 0 0 142.48 183.80
  L 142.48 183.50
  A 3.55 3.05 -0.2 0 0 138.92 180.46
  L 137.86 180.47
  A 0.83 0.83 0.0 0 0 137.03 181.30
  Z
  M 149.11 181.34
  Q 149.43 183.39 148.70 185.25
  A 1.37 1.37 0.0 0 1 146.05 184.78
  L 145.98 180.73
  A 0.23 0.23 0.0 0 0 145.75 180.50
  Q 145.62 180.50 145.49 180.50
  Q 145.30 180.50 145.29 180.69
  Q 145.19 182.40 145.27 184.09
  C 145.43 187.82 149.57 188.06 149.98 184.74
  Q 150.22 182.77 149.94 181.20
  A 0.42 0.42 0.0 0 0 149.11 181.34
  Z
  M 155.10 181.61
  Q 156.19 181.28 157.25 181.79
  A 0.38 0.38 0.0 0 0 157.76 181.28
  Q 157.53 180.79 156.83 180.66
  C 151.72 179.75 151.40 187.18 156.73 186.99
  Q 157.79 186.96 157.96 185.87
  Q 158.07 185.17 157.46 185.52
  Q 154.62 187.13 153.77 184.05
  A 2.00 1.99 73.7 0 1 155.10 181.61
  Z
  M 164.19 181.65
  Q 164.07 181.10 163.65 180.71
  Q 163.10 180.19 162.78 180.88
  L 160.32 186.37
  Q 160.23 186.57 160.44 186.64
  Q 160.59 186.70 160.78 186.76
  A 0.27 0.26 21.8 0 0 161.11 186.62
  Q 161.91 184.82 163.82 185.21
  Q 164.36 185.32 164.72 185.74
  L 165.53 186.68
  Q 166.39 187.67 166.09 186.39
  Q 165.57 184.20 164.46 182.33
  Q 164.28 182.01 164.19 181.65
  Z
  M 170.57 181.61
  L 171.87 181.32
  A 0.42 0.41 -51.3 0 0 171.78 180.50
  L 167.50 180.50
  Q 167.25 180.50 167.25 180.75
  Q 167.25 180.89 167.25 181.03
  Q 167.26 181.50 167.74 181.50
  L 168.53 181.50
  Q 169.13 181.50 169.14 182.09
  L 169.20 186.26
  Q 169.21 186.71 169.65 186.66
  Q 170.02 186.62 170.01 186.25
  Q 169.95 184.28 170.02 182.28
  A 0.72 0.71 84.8 0 1 170.57 181.61
  Z
  M 175.5097 181.0320
  A 0.47 0.47 0.0 0 0 175.0324 180.5694
  L 174.9124 180.5713
  A 0.47 0.47 0.0 0 0 174.4499 181.0486
  L 174.5303 186.1680
  A 0.47 0.47 0.0 0 0 175.0076 186.6306
  L 175.1276 186.6287
  A 0.47 0.47 0.0 0 0 175.5901 186.1514
  L 175.5097 181.0320
  Z
  M 184.77 183.75
  A 3.23 3.23 0.0 0 0 181.54 180.52
  A 3.23 3.23 0.0 0 0 178.31 183.75
  A 3.23 3.23 0.0 0 0 181.54 186.98
  A 3.23 3.23 0.0 0 0 184.77 183.75
  Z
  M 198.62 184.25
  Q 198.00 184.18 198.41 185.01
  A 0.25 0.24 54.9 0 0 198.80 185.08
  L 199.01 184.86
  A 0.20 0.19 47.9 0 1 199.30 184.88
  L 200.80 186.73
  A 0.36 0.36 0.0 0 0 201.41 186.36
  L 198.97 180.64
  A 0.47 0.47 0.0 0 0 198.11 180.63
  L 195.67 186.16
  A 0.40 0.40 0.0 0 0 196.33 186.59
  Q 197.91 184.88 198.01 182.52
  A 0.42 0.42 0.0 0 1 198.85 182.47
  L 199.07 183.78
  Q 199.17 184.32 198.62 184.25
  Z
  M 207.51 186.20
  L 205.61 185.95
  A 0.62 0.62 0.0 0 1 205.07 185.36
  L 204.84 180.55
  A 0.37 0.36 44.8 0 0 204.11 180.55
  L 203.95 185.81
  Q 203.92 186.71 204.81 186.80
  L 207.42 187.05
  A 0.43 0.43 0.0 0 0 207.51 186.20
  Z
  M 215.44 182.99
  A 0.79 0.79 0.0 0 1 215.86 181.48
  L 217.08 181.64
  Q 217.53 181.70 217.45 181.26
  Q 217.38 180.85 216.60 180.50
  A 1.87 1.86 -87.6 0 0 214.08 182.82
  Q 214.55 184.15 216.17 184.26
  A 0.96 0.83 44.7 0 1 216.31 186.05
  Q 215.20 185.98 214.28 185.72
  A 0.47 0.47 0.0 0 0 213.91 186.57
  Q 215.53 187.57 217.28 186.47
  A 1.57 1.57 0.0 0 0 217.07 183.70
  L 215.44 182.99
  Z
  M 221.78 181.61
  L 224.58 181.45
  Q 224.75 181.44 224.75 181.27
  Q 224.75 181.14 224.75 181.00
  A 0.50 0.49 0.6 0 0 224.25 180.50
  L 221.50 180.50
  Q 220.75 180.50 220.75 181.25
  L 220.75 186.01
  Q 220.75 186.60 221.33 186.71
  Q 222.92 187.01 224.50 186.91
  Q 224.75 186.89 224.76 186.63
  Q 224.78 186.32 224.48 186.26
  L 221.70 185.68
  A 0.87 0.86 53.1 0 1 221.94 183.97
  Q 223.52 184.09 224.25 183.97
  A 0.31 0.30 46.0 0 0 224.26 183.37
  L 221.70 182.85
  A 0.63 0.62 48.9 0 1 221.78 181.61
  Z
  M 241.99 180.53
  L 242.03 186.75
  A 0.01 0.01 0.0 0 0 242.04 186.76
  L 242.17 186.76
  A 0.76 0.72 89.7 0 0 242.88 186.00
  L 242.86 181.28
  A 0.76 0.72 89.7 0 0 242.13 180.52
  L 242.00 180.52
  A 0.01 0.01 0.0 0 0 241.99 180.53
  Z
  M 249.27 185.92
  A 1.90 1.90 0.0 0 1 246.87 184.92
  Q 245.82 182.58 247.80 181.53
  Q 248.22 181.30 248.69 181.39
  L 250.64 181.78
  A 0.27 0.27 0.0 0 0 250.85 181.29
  C 247.04 178.69 243.47 183.58 247.22 186.50
  Q 249.13 187.98 250.86 186.07
  A 0.37 0.37 0.0 0 0 250.45 185.47
  L 249.27 185.92
  Z
  M 254.88 185.70
  Q 254.15 184.87 255.00 184.30
  Q 255.41 184.03 255.91 184.01
  L 257.46 183.97
  A 0.33 0.33 0.0 0 0 257.51 183.31
  L 255.21 182.89
  A 0.59 0.59 0.0 0 1 255.24 181.72
  L 257.63 181.40
  A 0.13 0.13 0.0 0 0 257.75 181.27
  Q 257.75 181.13 257.75 180.99
  Q 257.74 180.50 257.24 180.50
  L 254.38 180.50
  Q 253.75 180.50 253.75 181.13
  L 253.75 186.06
  Q 253.75 186.63 254.32 186.69
  L 257.23 187.02
  Q 257.34 187.04 257.42 186.95
  L 257.62 186.75
  A 0.44 0.44 0.0 0 0 257.31 186.00
  L 255.55 186.00
  A 0.90 0.86 -19.7 0 1 254.88 185.70
  Z
  M 261.74 181.45
  Q 262.58 181.09 263.57 181.75
  A 0.29 0.29 0.0 0 0 263.94 181.31
  Q 262.66 179.91 261.12 180.98
  A 1.60 1.60 0.0 0 0 261.34 183.74
  L 262.99 184.54
  A 0.82 0.82 0.0 0 1 262.50 186.09
  L 260.85 185.80
  Q 260.65 185.77 260.60 185.96
  Q 260.55 186.11 260.46 186.32
  A 0.46 0.46 0.0 0 0 260.92 186.98
  L 263.32 186.75
  Q 263.90 186.70 264.05 186.14
  Q 264.77 183.47 261.96 183.10
  A 0.86 0.86 0.0 0 1 261.74 181.45
  Z"
/>
<path fill="#ffffff" d="
  M 361.06 0.00
  L 366.00 0.00
  L 366.00 7.32
  L 365.80 2.44
  A 2.18 2.17 2.7 0 0 363.91 0.37
  L 361.06 0.00
  Z"
/>
<path fill="#ffffff" d="
  M 195.05 66.50
  L 218.22 66.50
  A 2.03 2.03 0.0 0 1 220.25 68.53
  L 220.24 146.00
  A 1.75 1.74 -90.0 0 1 218.50 147.75
  L 149.63 147.75
  A 1.13 1.13 0.0 0 1 148.50 146.63
  L 148.22 100.50
  A 1.09 1.09 0.0 0 1 149.24 99.40
  L 152.59 99.19
  Q 154.50 99.06 154.50 97.15
  L 154.50 79.57
  Q 154.50 77.63 152.57 77.55
  L 149.33 77.40
  A 0.87 0.87 0.0 0 1 148.50 76.53
  L 148.50 55.26
  A 1.25 1.24 89.8 0 1 149.73 54.01
  Q 156.55 53.98 163.38 54.00
  C 169.75 54.02 174.40 60.25 180.91 60.25
  C 183.75 60.26 186.10 60.71 188.70 59.24
  C 193.20 56.69 196.64 53.86 202.04 54.02
  Q 202.70 54.04 202.81 54.69
  L 203.54 59.20
  Q 203.61 59.66 203.23 59.94
  L 194.87 65.93
  Q 194.08 66.50 195.05 66.50
  Z
  M 176.60 68.90
  L 176.46 63.20
  Q 176.44 62.77 176.07 62.58
  C 172.37 60.69 167.00 57.05 162.85 57.00
  Q 157.49 56.93 151.97 57.03
  A 0.49 0.48 89.4 0 0 151.50 57.52
  L 151.50 73.75
  A 0.50 0.50 0.0 0 0 152.00 74.25
  L 216.50 74.25
  Q 217.00 74.25 217.00 73.75
  L 217.00 70.00
  Q 217.00 69.50 216.50 69.50
  L 177.21 69.50
  A 0.61 0.61 0.0 0 1 176.60 68.90
  Z
  M 190.30 65.14
  Q 195.06 61.91 199.74 58.55
  Q 200.17 58.24 200.21 57.93
  Q 200.28 57.41 199.55 57.04
  Q 199.16 56.84 198.78 57.07
  L 188.51 63.04
  Q 188.14 63.25 187.72 63.25
  L 180.28 63.25
  Q 179.64 63.25 179.67 63.89
  L 179.78 66.01
  Q 179.80 66.43 180.22 66.45
  C 183.65 66.63 187.28 67.19 190.30 65.14
  Z
  M 178.25 96.01
  C 171.60 95.84 173.25 81.93 173.23 78.00
  Q 173.23 77.50 172.74 77.50
  L 158.25 77.50
  A 0.50 0.50 0.0 0 0 157.75 78.00
  L 157.75 98.52
  Q 157.75 99.16 158.39 99.18
  Q 164.86 99.46 171.30 99.07
  C 174.03 98.91 176.01 97.81 178.39 96.65
  A 0.34 0.34 0.0 0 0 178.25 96.01
  Z
  M 179.03 93.00
  L 216.50 93.00
  Q 217.00 93.00 217.00 92.50
  L 217.00 78.00
  Q 217.00 77.50 216.50 77.50
  L 177.00 77.50
  Q 176.50 77.50 176.50 78.00
  L 176.50 90.47
  A 2.54 2.53 89.9 0 0 179.03 93.00
  Z
  M 189.69 96.44
  C 183.97 96.59 180.12 99.83 174.86 101.47
  C 168.31 103.52 159.08 102.48 152.04 102.51
  Q 151.50 102.51 151.50 103.05
  L 151.50 109.62
  Q 151.50 110.25 152.13 110.25
  L 216.50 110.25
  Q 217.00 110.25 217.00 109.75
  L 217.00 96.78
  Q 217.00 96.32 216.54 96.31
  Q 203.09 96.07 189.69 96.44
  Z
  M 192.29 121.25
  A 1.34 1.34 0.0 0 1 193.63 122.54
  L 193.80 127.03
  Q 193.82 127.50 194.29 127.50
  L 216.50 127.50
  A 0.50 0.50 0.0 0 0 217.00 127.00
  L 217.00 113.75
  Q 217.00 113.25 216.50 113.25
  L 152.00 113.25
  A 0.50 0.50 0.0 0 0 151.50 113.75
  L 151.50 126.75
  Q 151.50 127.50 152.25 127.50
  L 174.14 127.50
  A 0.66 0.66 0.0 0 0 174.80 126.86
  L 174.94 122.63
  A 1.43 1.43 0.0 0 1 176.37 121.25
  L 192.29 121.25
  Z
  M 190.4863 124.7782
  A 0.55 0.55 0.0 0 0 189.9343 124.2301
  L 178.5544 124.2699
  A 0.55 0.55 0.0 0 0 178.0063 124.8218
  L 178.0137 126.9418
  A 0.55 0.55 0.0 0 0 178.5657 127.4899
  L 189.9456 127.4501
  A 0.55 0.55 0.0 0 0 190.4937 126.8982
  L 190.4863 124.7782
  Z
  M 175.10 138.85
  A 0.62 0.62 0.0 0 1 175.72 138.25
  L 192.84 138.25
  A 0.62 0.62 0.0 0 1 193.46 138.83
  L 193.82 143.92
  A 0.62 0.62 0.0 0 0 194.44 144.50
  L 216.38 144.50
  A 0.62 0.62 0.0 0 0 217.00 143.88
  L 217.00 131.12
  A 0.62 0.62 0.0 0 0 216.38 130.50
  L 152.12 130.50
  A 0.62 0.62 0.0 0 0 151.50 131.12
  L 151.50 143.88
  A 0.62 0.62 0.0 0 0 152.12 144.50
  L 174.29 144.50
  A 0.62 0.62 0.0 0 0 174.91 143.90
  L 175.10 138.85
  Z
  M 190.50 142.00
  A 0.50 0.50 0.0 0 0 190.00 141.50
  L 178.58 141.50
  A 0.50 0.50 0.0 0 0 178.08 142.00
  L 178.08 144.00
  A 0.50 0.50 0.0 0 0 178.58 144.50
  L 190.00 144.50
  A 0.50 0.50 0.0 0 0 190.50 144.00
  L 190.50 142.00
  Z"
/>
<path fill="#111111" d="
  M 176.60 68.90
  A 0.61 0.61 0.0 0 0 177.21 69.50
  L 216.50 69.50
  Q 217.00 69.50 217.00 70.00
  L 217.00 73.75
  Q 217.00 74.25 216.50 74.25
  L 152.00 74.25
  A 0.50 0.50 0.0 0 1 151.50 73.75
  L 151.50 57.52
  A 0.49 0.48 89.4 0 1 151.97 57.03
  Q 157.49 56.93 162.85 57.00
  C 167.00 57.05 172.37 60.69 176.07 62.58
  Q 176.44 62.77 176.46 63.20
  L 176.60 68.90
  Z"
/>
<path fill="#111111" d="
  M 190.30 65.14
  C 187.28 67.19 183.65 66.63 180.22 66.45
  Q 179.80 66.43 179.78 66.01
  L 179.67 63.89
  Q 179.64 63.25 180.28 63.25
  L 187.72 63.25
  Q 188.14 63.25 188.51 63.04
  L 198.78 57.07
  Q 199.16 56.84 199.55 57.04
  Q 200.28 57.41 200.21 57.93
  Q 200.17 58.24 199.74 58.55
  Q 195.06 61.91 190.30 65.14
  Z"
/>
<path fill="#111111" d="
  M 173.23 78.00
  C 173.25 81.93 171.60 95.84 178.25 96.01
  A 0.34 0.34 0.0 0 1 178.39 96.65
  C 176.01 97.81 174.03 98.91 171.30 99.07
  Q 164.86 99.46 158.39 99.18
  Q 157.75 99.16 157.75 98.52
  L 157.75 78.00
  A 0.50 0.50 0.0 0 1 158.25 77.50
  L 172.74 77.50
  Q 173.23 77.50 173.23 78.00
  Z"
/>
<path fill="#111111" d="
  M 179.03 93.00
  A 2.54 2.53 89.9 0 1 176.50 90.47
  L 176.50 78.00
  Q 176.50 77.50 177.00 77.50
  L 216.50 77.50
  Q 217.00 77.50 217.00 78.00
  L 217.00 92.50
  Q 217.00 93.00 216.50 93.00
  L 179.03 93.00
  Z
  M 195.2250 82.4037
  A 1.88 1.88 0.0 0 0 193.3483 80.5204
  L 181.4683 80.4996
  A 1.88 1.88 0.0 0 0 179.5850 82.3764
  L 179.5750 88.0963
  A 1.88 1.88 0.0 0 0 181.4517 89.9796
  L 193.3317 90.0004
  A 1.88 1.88 0.0 0 0 195.2150 88.1236
  L 195.2250 82.4037
  Z
  M 201.4598 81.0085
  A 0.56 0.56 0.0 0 0 200.8844 80.4644
  L 199.0051 80.5169
  A 0.56 0.56 0.0 0 0 198.4610 81.0923
  L 198.5202 83.2115
  A 0.56 0.56 0.0 0 0 199.0956 83.7556
  L 200.9749 83.7031
  A 0.56 0.56 0.0 0 0 201.5190 83.1277
  L 201.4598 81.0085
  Z
  M 207.7239 81.2184
  A 0.81 0.81 0.0 0 0 206.8529 80.4745
  L 205.3176 80.5953
  A 0.81 0.81 0.0 0 0 204.5737 81.4664
  L 204.6961 83.0216
  A 0.81 0.81 0.0 0 0 205.5671 83.7655
  L 207.1024 83.6447
  A 0.81 0.81 0.0 0 0 207.8463 82.7736
  L 207.7239 81.2184
  Z
  M 213.9849 81.3746
  A 0.94 0.94 0.0 0 0 213.0127 80.4680
  L 211.6935 80.5140
  A 0.94 0.94 0.0 0 0 210.7869 81.4863
  L 210.8351 82.8654
  A 0.94 0.94 0.0 0 0 211.8073 83.7720
  L 213.1265 83.7260
  A 0.94 0.94 0.0 0 0 214.0331 82.7537
  L 213.9849 81.3746
  Z
  M 201.5362 87.6296
  A 0.81 0.81 0.0 0 0 200.7667 86.7810
  L 199.1686 86.7028
  A 0.81 0.81 0.0 0 0 198.3200 87.4723
  L 198.2438 89.0304
  A 0.81 0.81 0.0 0 0 199.0133 89.8790
  L 200.6114 89.9572
  A 0.81 0.81 0.0 0 0 201.4600 89.1877
  L 201.5362 87.6296
  Z
  M 207.5990 87.4032
  A 0.74 0.74 0.0 0 0 206.8092 86.7166
  L 205.1732 86.8310
  A 0.74 0.74 0.0 0 0 204.4866 87.6208
  L 204.6010 89.2568
  A 0.74 0.74 0.0 0 0 205.3908 89.9434
  L 207.0268 89.8290
  A 0.74 0.74 0.0 0 0 207.7134 89.0392
  L 207.5990 87.4032
  Z
  M 214.0415 87.7015
  A 0.92 0.92 0.0 0 0 213.1508 86.7531
  L 211.7315 86.7085
  A 0.92 0.92 0.0 0 0 210.7831 87.5992
  L 210.7385 89.0185
  A 0.92 0.92 0.0 0 0 211.6292 89.9669
  L 213.0485 90.0115
  A 0.92 0.92 0.0 0 0 213.9969 89.1208
  L 214.0415 87.7015
  Z"
/>
<path fill="#ffffff" d="
  M 195.2150 88.1236
  A 1.88 1.88 0.0 0 1 193.3317 90.0004
  L 181.4517 89.9796
  A 1.88 1.88 0.0 0 1 179.5750 88.0963
  L 179.5850 82.3764
  A 1.88 1.88 0.0 0 1 181.4683 80.4996
  L 193.3483 80.5204
  A 1.88 1.88 0.0 0 1 195.2250 82.4037
  L 195.2150 88.1236
  Z
  M 192.0118 84.1981
  A 0.44 0.44 0.0 0 0 191.5726 83.7573
  L 183.2126 83.7427
  A 0.44 0.44 0.0 0 0 182.7719 84.1819
  L 182.7682 86.3019
  A 0.44 0.44 0.0 0 0 183.2074 86.7427
  L 191.5674 86.7573
  A 0.44 0.44 0.0 0 0 192.0081 86.3181
  L 192.0118 84.1981
  Z"
/>
<rect fill="#ffffff" x="-1.50" y="-1.62" transform="translate(199.99,82.11) rotate(-1.6)" width="3.00" height="3.24" rx="0.56"/>
<rect fill="#ffffff" x="-1.58" y="-1.59" transform="translate(206.21,82.12) rotate(-4.5)" width="3.16" height="3.18" rx="0.81"/>
<rect fill="#ffffff" x="-1.60" y="-1.63" transform="translate(212.41,82.12) rotate(-2.0)" width="3.20" height="3.26" rx="0.94"/>
<rect fill="#111111" x="-4.62" y="-1.50" transform="translate(187.39,85.25) rotate(0.1)" width="9.24" height="3.00" rx="0.44"/>
<rect fill="#ffffff" x="-1.61" y="-1.59" transform="translate(199.89,88.33) rotate(2.8)" width="3.22" height="3.18" rx="0.81"/>
<rect fill="#ffffff" x="-1.56" y="-1.56" transform="translate(206.10,88.33) rotate(-4.0)" width="3.12" height="3.12" rx="0.74"/>
<rect fill="#ffffff" x="-1.63" y="-1.63" transform="translate(212.39,88.36) rotate(1.8)" width="3.26" height="3.26" rx="0.92"/>
<path fill="#111111" d="
  M 189.69 96.44
  Q 203.09 96.07 216.54 96.31
  Q 217.00 96.32 217.00 96.78
  L 217.00 109.75
  Q 217.00 110.25 216.50 110.25
  L 152.13 110.25
  Q 151.50 110.25 151.50 109.62
  L 151.50 103.05
  Q 151.50 102.51 152.04 102.51
  C 159.08 102.48 168.31 103.52 174.86 101.47
  C 180.12 99.83 183.97 96.59 189.69 96.44
  Z"
/>
<path fill="#111111" d="
  M 192.29 121.25
  L 176.37 121.25
  A 1.43 1.43 0.0 0 0 174.94 122.63
  L 174.80 126.86
  A 0.66 0.66 0.0 0 1 174.14 127.50
  L 152.25 127.50
  Q 151.50 127.50 151.50 126.75
  L 151.50 113.75
  A 0.50 0.50 0.0 0 1 152.00 113.25
  L 216.50 113.25
  Q 217.00 113.25 217.00 113.75
  L 217.00 127.00
  A 0.50 0.50 0.0 0 1 216.50 127.50
  L 194.29 127.50
  Q 193.82 127.50 193.80 127.03
  L 193.63 122.54
  A 1.34 1.34 0.0 0 0 192.29 121.25
  Z"
/>
<rect fill="#111111" x="-6.24" y="-1.61" transform="translate(184.25,125.86) rotate(-0.2)" width="12.48" height="3.22" rx="0.55"/>
<path fill="#111111" d="
  M 175.10 138.85
  L 174.91 143.90
  A 0.62 0.62 0.0 0 1 174.29 144.50
  L 152.12 144.50
  A 0.62 0.62 0.0 0 1 151.50 143.88
  L 151.50 131.12
  A 0.62 0.62 0.0 0 1 152.12 130.50
  L 216.38 130.50
  A 0.62 0.62 0.0 0 1 217.00 131.12
  L 217.00 143.88
  A 0.62 0.62 0.0 0 1 216.38 144.50
  L 194.44 144.50
  A 0.62 0.62 0.0 0 1 193.82 143.92
  L 193.46 138.83
  A 0.62 0.62 0.0 0 0 192.84 138.25
  L 175.72 138.25
  A 0.62 0.62 0.0 0 0 175.10 138.85
  Z"
/>
<rect fill="#111111" x="178.08" y="141.50" width="12.42" height="3.00" rx="0.50"/>
<path fill="#ffffff" d="
  M 91.58 170.11
  L 87.33 171.16
  A 0.90 0.88 -0.1 0 0 86.68 171.80
  L 86.15 173.89
  A 0.80 0.80 0.0 0 1 85.37 174.50
  L 84.05 174.50
  Q 83.50 174.50 83.65 173.98
  L 87.49 160.49
  A 2.23 2.22 45.1 0 1 91.77 160.50
  L 95.54 173.76
  A 0.58 0.58 0.0 0 1 94.98 174.50
  L 93.91 174.50
  Q 93.24 174.50 93.08 173.85
  L 92.25 170.51
  Q 92.12 169.98 91.58 170.11
  Z
  M 89.94 162.92
  A 0.33 0.33 0.0 0 0 89.31 162.92
  L 87.78 168.17
  A 0.33 0.33 0.0 0 0 88.19 168.58
  L 91.03 167.79
  A 0.33 0.33 0.0 0 0 91.26 167.38
  L 89.94 162.92
  Z"
/>
<path fill="#ffffff" d="
  M 103.74 172.00
  L 108.75 172.00
  Q 109.25 172.00 109.25 172.50
  L 109.25 173.75
  Q 109.25 174.50 108.50 174.50
  L 101.33 174.50
  Q 100.66 174.50 100.67 173.83
  L 100.78 159.96
  A 0.71 0.70 -9.0 0 1 101.26 159.31
  Q 102.16 159.00 102.69 159.46
  Q 103.08 159.80 103.04 160.64
  Q 102.76 166.03 103.10 171.40
  A 0.64 0.64 0.0 0 0 103.74 172.00
  Z"
/>
<path fill="#ffffff" d="
  M 121.45 170.12
  L 117.22 171.14
  Q 116.73 171.26 116.61 171.73
  L 116.05 173.83
  Q 115.87 174.50 115.18 174.50
  L 114.05 174.50
  Q 113.40 174.50 113.58 173.87
  L 117.48 160.50
  A 2.20 2.20 0.0 0 1 121.70 160.51
  L 125.47 173.81
  Q 125.66 174.50 124.95 174.50
  L 123.77 174.50
  A 0.72 0.72 0.0 0 1 123.07 173.96
  L 122.19 170.56
  Q 122.04 169.98 121.45 170.12
  Z
  M 119.87 162.82
  A 0.33 0.33 0.0 0 0 119.23 162.82
  L 117.80 168.10
  A 0.33 0.33 0.0 0 0 118.20 168.51
  L 120.96 167.87
  A 0.33 0.33 0.0 0 0 121.20 167.46
  L 119.87 162.82
  Z"
/>
<path fill="#ffffff" d="
  M 132.75 164.32
  L 132.75 173.87
  Q 132.75 174.50 132.12 174.50
  L 131.12 174.50
  Q 130.50 174.50 130.50 173.87
  L 130.50 160.57
  A 1.52 1.52 0.0 0 1 133.33 159.80
  L 138.97 169.45
  Q 139.44 170.26 139.47 169.32
  Q 139.59 164.96 139.48 160.71
  Q 139.45 159.71 139.85 159.41
  Q 140.38 159.00 141.49 159.32
  A 0.44 0.44 0.0 0 1 141.81 159.74
  L 141.72 173.26
  A 1.48 1.48 0.0 0 1 138.96 174.01
  L 133.18 164.21
  Q 132.75 163.47 132.75 164.32
  Z"
/>
<path fill="#ffffff" d="
  M 148.67 171.83
  L 154.37 172.33
  A 0.69 0.68 18.8 0 0 154.99 172.03
  C 157.01 168.91 149.65 166.91 148.02 166.22
  A 1.08 1.08 0.0 0 1 147.45 165.65
  C 144.53 158.82 151.75 158.50 155.84 160.22
  A 1.06 1.06 0.0 0 1 155.29 162.25
  C 153.69 162.04 151.21 160.80 149.70 162.00
  A 1.57 1.57 0.0 0 0 150.26 164.74
  Q 154.35 165.85 157.29 168.88
  Q 157.66 169.26 157.73 169.79
  C 158.47 175.63 151.28 175.22 147.88 173.80
  Q 147.34 173.58 147.60 173.05
  L 148.02 172.19
  Q 148.22 171.79 148.67 171.83
  Z"
/>
<path fill="#ffffff" d="
  M 170.08 170.20
  L 165.94 171.11
  A 1.05 1.05 0.0 0 0 165.14 171.90
  L 164.67 173.88
  A 0.81 0.81 0.0 0 1 163.88 174.50
  L 162.77 174.50
  A 0.59 0.59 0.0 0 1 162.20 173.75
  L 165.98 160.51
  A 2.20 2.20 0.0 0 1 170.21 160.50
  L 174.04 173.76
  A 0.58 0.58 0.0 0 1 173.48 174.50
  L 172.49 174.50
  Q 171.79 174.50 171.61 173.83
  L 170.72 170.58
  A 0.54 0.53 75.4 0 0 170.08 170.20
  Z
  M 167.95 162.47
  L 166.34 168.08
  Q 166.14 168.75 166.82 168.56
  L 169.17 167.89
  A 0.65 0.64 74.4 0 0 169.61 167.09
  L 168.30 162.47
  A 0.18 0.18 0.0 0 0 167.95 162.47
  Z"
/>
<path fill="#ffffff" d="
  M 181.25 169.99
  L 181.25 173.72
  Q 181.25 174.36 180.61 174.42
  L 179.64 174.52
  Q 178.93 174.59 178.92 173.88
  L 178.79 159.86
  Q 178.79 159.27 179.37 159.26
  C 184.24 159.18 192.52 158.82 189.78 166.80
  Q 189.61 167.31 189.19 167.64
  L 187.98 168.60
  A 0.60 0.59 48.4 0 0 187.93 169.48
  Q 189.54 171.13 190.09 173.52
  A 1.28 1.14 34.8 0 1 187.68 173.81
  Q 186.53 169.23 181.78 169.43
  Q 181.25 169.46 181.25 169.99
  Z
  M 181.26 162.23
  L 181.20 166.45
  A 0.53 0.53 0.0 0 0 181.72 166.99
  L 184.83 167.04
  A 2.90 1.93 0.9 0 0 187.76 165.15
  L 187.78 163.73
  A 2.90 1.93 0.9 0 0 184.91 161.76
  L 181.80 161.71
  A 0.53 0.53 0.0 0 0 181.26 162.23
  Z"
/>
<rect fill="#ffffff" x="-1.21" y="-7.60" transform="translate(196.30,166.86) rotate(0.3)" width="2.42" height="15.20" rx="0.64"/>
<path fill="#ffffff" d="
  M 212.68 159.48
  C 216.30 158.70 223.38 158.69 223.70 163.93
  C 224.05 169.82 219.01 169.03 214.99 169.60
  Q 214.41 169.69 214.55 170.26
  Q 214.96 171.94 214.64 173.74
  A 1.21 1.20 -39.9 0 1 212.25 173.53
  L 212.25 160.01
  Q 212.25 159.57 212.68 159.48
  Z
  M 214.76 162.37
  L 214.74 166.43
  A 0.61 0.61 0.0 0 0 215.35 167.04
  L 217.99 167.05
  A 3.43 2.46 0.2 0 0 221.43 164.60
  L 221.43 164.24
  A 3.43 2.46 0.2 0 0 218.01 161.77
  L 215.37 161.76
  A 0.61 0.61 0.0 0 0 214.76 162.37
  Z"
/>
<path fill="#ffffff" d="
  M 237.59 169.16
  L 239.73 173.39
  Q 240.05 174.03 239.41 174.36
  C 238.30 174.93 237.52 174.46 237.13 173.31
  Q 235.74 169.13 231.27 169.46
  A 0.56 0.56 0.0 0 0 230.75 170.02
  L 230.75 173.75
  Q 230.75 174.50 230.00 174.50
  L 229.12 174.50
  Q 228.50 174.50 228.50 173.87
  L 228.50 159.75
  Q 228.50 159.23 229.02 159.23
  C 233.29 159.22 239.58 158.34 239.97 164.50
  Q 240.12 167.00 237.81 168.41
  A 0.58 0.57 -29.2 0 0 237.59 169.16
  Z
  M 230.76 162.45
  L 230.76 166.31
  A 0.71 0.71 0.0 0 0 231.47 167.03
  L 234.71 167.03
  A 2.79 2.50 0.1 0 0 237.50 164.54
  L 237.50 164.26
  A 2.79 2.50 0.1 0 0 234.71 161.75
  L 231.47 161.75
  A 0.71 0.71 0.0 0 0 230.76 162.45
  Z"
/>
<path fill="#ffffff" d="
  M 247.49 165.25
  L 252.03 165.25
  A 0.47 0.47 0.0 0 1 252.50 165.72
  L 252.50 167.03
  A 0.47 0.47 0.0 0 1 252.03 167.50
  L 247.49 167.50
  A 0.47 0.47 0.0 0 0 247.02 167.97
  L 246.99 171.53
  A 0.47 0.47 0.0 0 0 247.46 172.00
  L 253.03 172.00
  A 0.47 0.47 0.0 0 1 253.50 172.47
  L 253.50 174.03
  A 0.47 0.47 0.0 0 1 253.03 174.50
  L 245.22 174.50
  A 0.47 0.47 0.0 0 1 244.75 174.03
  L 244.75 159.72
  A 0.47 0.47 0.0 0 1 245.22 159.25
  L 252.53 159.25
  A 0.47 0.47 0.0 0 1 253.00 159.72
  L 253.00 161.28
  A 0.47 0.47 0.0 0 1 252.53 161.75
  L 247.83 161.75
  A 0.47 0.47 0.0 0 0 247.37 162.16
  L 247.02 164.72
  A 0.47 0.47 0.0 0 0 247.49 165.25
  Z"
/>
<path fill="#ffffff" d="
  M 258.24 164.91
  C 257.09 162.76 258.44 159.60 261.08 159.37
  Q 264.21 159.09 267.20 160.26
  Q 267.66 160.44 267.52 160.91
  L 267.26 161.80
  Q 267.08 162.41 266.47 162.27
  C 264.86 161.93 260.75 160.38 260.42 162.99
  A 1.70 1.70 0.0 0 0 261.62 164.83
  C 274.13 168.55 267.97 178.17 259.32 173.86
  A 1.18 1.18 0.0 0 1 260.19 171.68
  C 261.74 172.16 265.85 173.15 266.37 171.08
  A 1.82 1.81 -72.0 0 0 265.29 168.96
  C 263.19 168.10 259.30 166.88 258.24 164.91
  Z"
/>
<path fill="#ffffff" d="
  M 274.10 165.48
  C 272.22 163.01 273.93 159.26 277.26 159.29
  Q 280.16 159.31 282.37 160.13
  A 1.00 1.00 0.0 0 1 281.95 162.07
  C 280.70 161.98 278.28 161.28 277.06 161.57
  Q 276.15 161.78 275.81 162.33
  A 1.56 1.56 0.0 0 0 276.70 164.64
  C 279.06 165.34 283.50 167.24 284.25 169.93
  C 285.73 175.29 277.52 175.23 274.73 173.84
  A 1.14 1.14 0.0 0 1 275.47 171.70
  C 277.05 172.04 280.86 173.01 281.74 171.42
  A 1.68 1.67 27.7 0 0 281.01 169.11
  C 278.87 168.07 275.34 167.12 274.10 165.48
  Z"
/>
<path fill="#111111" d="
  M 181.26 162.23
  A 0.53 0.53 0.0 0 1 181.80 161.71
  L 184.91 161.76
  A 2.90 1.93 0.9 0 1 187.78 163.73
  L 187.76 165.15
  A 2.90 1.93 0.9 0 1 184.83 167.04
  L 181.72 166.99
  A 0.53 0.53 0.0 0 1 181.20 166.45
  L 181.26 162.23
  Z"
/>
<path fill="#111111" d="
  M 214.76 162.37
  A 0.61 0.61 0.0 0 1 215.37 161.76
  L 218.01 161.77
  A 3.43 2.46 0.2 0 1 221.43 164.24
  L 221.43 164.60
  A 3.43 2.46 0.2 0 1 217.99 167.05
  L 215.35 167.04
  A 0.61 0.61 0.0 0 1 214.74 166.43
  L 214.76 162.37
  Z"
/>
<path fill="#111111" d="
  M 230.76 162.45
  A 0.71 0.71 0.0 0 1 231.47 161.75
  L 234.71 161.75
  A 2.79 2.50 0.1 0 1 237.50 164.26
  L 237.50 164.54
  A 2.79 2.50 0.1 0 1 234.71 167.03
  L 231.47 167.03
  A 0.71 0.71 0.0 0 1 230.76 166.31
  L 230.76 162.45
  Z"
/>
<path fill="#111111" d="
  M 167.95 162.47
  A 0.18 0.18 0.0 0 1 168.30 162.47
  L 169.61 167.09
  A 0.65 0.64 74.4 0 1 169.17 167.89
  L 166.82 168.56
  Q 166.14 168.75 166.34 168.08
  L 167.95 162.47
  Z"
/>
<path fill="#111111" d="
  M 89.94 162.92
  L 91.26 167.38
  A 0.33 0.33 0.0 0 1 91.03 167.79
  L 88.19 168.58
  A 0.33 0.33 0.0 0 1 87.78 168.17
  L 89.31 162.92
  A 0.33 0.33 0.0 0 1 89.94 162.92
  Z"
/>
<path fill="#111111" d="
  M 119.87 162.82
  L 121.20 167.46
  A 0.33 0.33 0.0 0 1 120.96 167.87
  L 118.20 168.51
  A 0.33 0.33 0.0 0 1 117.80 168.10
  L 119.23 162.82
  A 0.33 0.33 0.0 0 1 119.87 162.82
  Z"
/>
<path fill="#ffffff" d="
  M 191.99 184.36
  L 192.01 180.97
  A 0.37 0.37 0.0 0 1 192.58 180.65
  Q 192.76 180.76 192.80 180.99
  Q 193.25 183.72 192.83 186.06
  A 0.64 0.63 31.3 0 1 191.70 186.33
  L 188.64 182.39
  A 0.34 0.34 0.0 0 0 188.06 182.74
  Q 188.83 184.42 188.45 186.30
  A 0.51 0.50 51.2 0 1 187.45 186.19
  L 187.54 180.73
  A 0.58 0.58 0.0 0 1 188.61 180.42
  L 191.28 184.56
  A 0.39 0.38 29.1 0 0 191.99 184.36
  Z"
/>
<path fill="#ffffff" d="
  M 228.73 184.46
  Q 228.81 185.41 228.71 186.31
  A 0.48 0.48 0.0 0 1 227.75 186.25
  L 227.75 181.25
  Q 227.75 180.71 228.26 180.55
  Q 230.62 179.79 232.03 181.74
  A 0.77 0.77 0.0 0 1 231.95 182.73
  Q 230.14 184.57 232.04 186.56
  A 0.28 0.27 -17.8 0 1 231.80 187.02
  L 231.49 186.98
  Q 231.20 186.94 231.05 186.68
  L 229.60 184.19
  A 0.47 0.47 0.0 0 0 228.73 184.46
  Z
  M 228.91 182.79
  L 230.51 183.16
  A 0.57 0.57 0.0 0 0 231.06 182.23
  L 230.15 181.18
  A 0.62 0.61 -54.3 0 0 229.12 181.35
  L 228.69 182.37
  A 0.31 0.31 0.0 0 0 228.91 182.79
  Z"
/>
<path fill="#ffffff" d="
  M 237.00 184.58
  L 238.58 180.81
  A 0.29 0.29 0.0 0 1 239.13 180.96
  Q 238.77 183.94 236.99 186.46
  Q 236.63 186.97 236.32 186.43
  Q 234.80 183.80 234.19 180.80
  A 0.40 0.40 0.0 0 1 234.97 180.61
  L 236.08 184.53
  A 0.49 0.49 0.0 0 0 237.00 184.58
  Z"
/>
<path fill="#ffffff" d="
  M 105.17 183.17
  L 107.03 183.28
  A 0.38 0.38 0.0 0 1 107.18 183.99
  Q 106.29 184.46 105.20 184.21
  A 0.57 0.57 0.0 0 0 104.50 184.77
  L 104.50 186.20
  Q 104.50 186.47 104.27 186.61
  L 104.01 186.76
  A 0.29 0.28 -14.8 0 1 103.58 186.51
  L 103.65 181.05
  Q 103.65 180.50 104.20 180.50
  L 107.00 180.50
  A 0.50 0.50 0.0 0 1 107.50 181.01
  Q 107.50 181.14 107.50 181.28
  A 0.19 0.18 88.4 0 1 107.33 181.47
  L 105.18 181.57
  A 0.80 0.80 0.0 0 0 105.17 183.17
  Z"
/>
<path fill="#ffffff" d="
  M 116.33 183.73
  A 3.19 3.19 0.0 0 1 113.14 186.92
  A 3.19 3.19 0.0 0 1 109.95 183.73
  A 3.19 3.19 0.0 0 1 113.14 180.54
  A 3.19 3.19 0.0 0 1 116.33 183.73
  Z
  M 115.44 183.74
  A 2.30 2.30 0.0 0 0 113.14 181.44
  A 2.30 2.30 0.0 0 0 110.84 183.74
  A 2.30 2.30 0.0 0 0 113.14 186.04
  A 2.30 2.30 0.0 0 0 115.44 183.74
  Z"
/>
<path fill="#ffffff" d="
  M 120.04 184.71
  L 119.92 186.20
  A 0.46 0.46 0.0 0 1 119.00 186.14
  L 119.22 181.05
  Q 119.25 180.34 119.96 180.43
  L 122.34 180.72
  A 1.36 1.35 27.0 0 1 123.10 183.06
  Q 121.79 184.28 122.66 185.56
  A 0.32 0.31 8.8 0 1 122.15 185.93
  Q 121.63 185.27 121.30 184.50
  A 0.66 0.66 0.0 0 0 120.04 184.71
  Z
  M 122.2711 182.5997
  A 1.19 1.02 18.1 0 0 121.4569 181.2605
  A 1.19 1.02 18.1 0 0 120.0089 181.8603
  A 1.19 1.02 18.1 0 0 120.8231 183.1995
  A 1.19 1.02 18.1 0 0 122.2711 182.5997
  Z"
/>
<path fill="#ffffff" d="
  M 131.00 184.70
  L 131.00 185.31
  A 0.60 0.60 0.0 0 0 131.55 185.91
  L 134.46 186.18
  A 0.28 0.28 0.0 0 1 134.43 186.74
  L 130.81 186.76
  Q 130.10 186.76 130.13 186.06
  L 130.29 181.19
  Q 130.31 180.58 130.92 180.53
  Q 132.33 180.40 133.62 180.53
  Q 134.01 180.56 134.15 180.77
  Q 134.23 180.88 134.25 181.02
  Q 134.30 181.36 133.96 181.41
  L 131.28 181.82
  Q 130.85 181.88 130.98 182.29
  L 131.11 182.73
  Q 131.28 183.25 131.81 183.10
  Q 133.03 182.75 134.04 183.40
  A 0.25 0.25 0.0 0 1 133.92 183.86
  L 131.57 184.08
  Q 131.00 184.13 131.00 184.70
  Z"
/>
<path fill="#ffffff" d="
  M 137.03 181.30
  A 0.83 0.83 0.0 0 1 137.86 180.47
  L 138.92 180.46
  A 3.55 3.05 -0.2 0 1 142.48 183.50
  L 142.48 183.80
  A 3.55 3.05 -0.2 0 1 138.94 186.86
  L 137.88 186.87
  A 0.83 0.83 0.0 0 1 137.05 186.04
  L 137.03 181.30
  Z
  M 137.98 182.16
  L 138.00 185.38
  A 0.64 0.64 0.0 0 0 138.64 186.02
  L 139.07 186.01
  A 2.45 2.04 -0.3 0 0 141.51 183.96
  L 141.51 183.54
  A 2.45 2.04 -0.3 0 0 139.05 181.51
  L 138.62 181.52
  A 0.64 0.64 0.0 0 0 137.98 182.16
  Z"
/>
<path fill="#ffffff" d="
  M 149.11 181.34
  A 0.42 0.42 0.0 0 1 149.94 181.20
  Q 150.22 182.77 149.98 184.74
  C 149.57 188.06 145.43 187.82 145.27 184.09
  Q 145.19 182.40 145.29 180.69
  Q 145.30 180.50 145.49 180.50
  Q 145.62 180.50 145.75 180.50
  A 0.23 0.23 0.0 0 1 145.98 180.73
  L 146.05 184.78
  A 1.37 1.37 0.0 0 0 148.70 185.25
  Q 149.43 183.39 149.11 181.34
  Z"
/>
<path fill="#ffffff" d="
  M 155.10 181.61
  A 2.00 1.99 73.7 0 0 153.77 184.05
  Q 154.62 187.13 157.46 185.52
  Q 158.07 185.17 157.96 185.87
  Q 157.79 186.96 156.73 186.99
  C 151.40 187.18 151.72 179.75 156.83 180.66
  Q 157.53 180.79 157.76 181.28
  A 0.38 0.38 0.0 0 1 157.25 181.79
  Q 156.19 181.28 155.10 181.61
  Z"
/>
<path fill="#ffffff" d="
  M 164.46 182.33
  Q 165.57 184.20 166.09 186.39
  Q 166.39 187.67 165.53 186.68
  L 164.72 185.74
  Q 164.36 185.32 163.82 185.21
  Q 161.91 184.82 161.11 186.62
  A 0.27 0.26 21.8 0 1 160.78 186.76
  Q 160.59 186.70 160.44 186.64
  Q 160.23 186.57 160.32 186.37
  L 162.78 180.88
  Q 163.10 180.19 163.65 180.71
  Q 164.07 181.10 164.19 181.65
  Q 164.28 182.01 164.46 182.33
  Z
  M 163.20 182.68
  L 162.53 183.34
  A 0.67 0.67 0.0 0 0 163.16 184.47
  Q 164.25 184.22 163.98 182.91
  Q 163.80 182.07 163.20 182.68
  Z"
/>
<path fill="#ffffff" d="
  M 170.02 182.28
  Q 169.95 184.28 170.01 186.25
  Q 170.02 186.62 169.65 186.66
  Q 169.21 186.71 169.20 186.26
  L 169.14 182.09
  Q 169.13 181.50 168.53 181.50
  L 167.74 181.50
  Q 167.26 181.50 167.25 181.03
  Q 167.25 180.89 167.25 180.75
  Q 167.25 180.50 167.50 180.50
  L 171.78 180.50
  A 0.42 0.41 -51.3 0 1 171.87 181.32
  L 170.57 181.61
  A 0.72 0.71 84.8 0 0 170.02 182.28
  Z"
/>
<rect fill="#ffffff" x="-0.53" y="-3.03" transform="translate(175.02,183.60) rotate(-0.9)" width="1.06" height="6.06" rx="0.47"/>
<path fill="#ffffff" d="
  M 184.77 183.75
  A 3.23 3.23 0.0 0 1 181.54 186.98
  A 3.23 3.23 0.0 0 1 178.31 183.75
  A 3.23 3.23 0.0 0 1 181.54 180.52
  A 3.23 3.23 0.0 0 1 184.77 183.75
  Z
  M 183.83 183.72
  A 2.32 2.32 0.0 0 0 181.51 181.40
  A 2.32 2.32 0.0 0 0 179.19 183.72
  A 2.32 2.32 0.0 0 0 181.51 186.04
  A 2.32 2.32 0.0 0 0 183.83 183.72
  Z"
/>
<path fill="#ffffff" d="
  M 199.07 183.78
  L 198.85 182.47
  A 0.42 0.42 0.0 0 0 198.01 182.52
  Q 197.91 184.88 196.33 186.59
  A 0.40 0.40 0.0 0 1 195.67 186.16
  L 198.11 180.63
  A 0.47 0.47 0.0 0 1 198.97 180.64
  L 201.41 186.36
  A 0.36 0.36 0.0 0 1 200.80 186.73
  L 199.30 184.88
  A 0.20 0.19 47.9 0 0 199.01 184.86
  L 198.80 185.08
  A 0.25 0.24 54.9 0 1 198.41 185.01
  Q 198.00 184.18 198.62 184.25
  Q 199.17 184.32 199.07 183.78
  Z"
/>
<path fill="#ffffff" d="
  M 207.51 186.20
  A 0.43 0.43 0.0 0 1 207.42 187.05
  L 204.81 186.80
  Q 203.92 186.71 203.95 185.81
  L 204.11 180.55
  A 0.37 0.36 44.8 0 1 204.84 180.55
  L 205.07 185.36
  A 0.62 0.62 0.0 0 0 205.61 185.95
  L 207.51 186.20
  Z"
/>
<path fill="#ffffff" d="
  M 215.44 182.99
  L 217.07 183.70
  A 1.57 1.57 0.0 0 1 217.28 186.47
  Q 215.53 187.57 213.91 186.57
  A 0.47 0.47 0.0 0 1 214.28 185.72
  Q 215.20 185.98 216.31 186.05
  A 0.96 0.83 44.7 0 0 216.17 184.26
  Q 214.55 184.15 214.08 182.82
  A 1.87 1.86 -87.6 0 1 216.60 180.50
  Q 217.38 180.85 217.45 181.26
  Q 217.53 181.70 217.08 181.64
  L 215.86 181.48
  A 0.79 0.79 0.0 0 0 215.44 182.99
  Z"
/>
<path fill="#ffffff" d="
  M 221.70 182.85
  L 224.26 183.37
  A 0.31 0.30 46.0 0 1 224.25 183.97
  Q 223.52 184.09 221.94 183.97
  A 0.87 0.86 53.1 0 0 221.70 185.68
  L 224.48 186.26
  Q 224.78 186.32 224.76 186.63
  Q 224.75 186.89 224.50 186.91
  Q 222.92 187.01 221.33 186.71
  Q 220.75 186.60 220.75 186.01
  L 220.75 181.25
  Q 220.75 180.50 221.50 180.50
  L 224.25 180.50
  A 0.50 0.49 0.6 0 1 224.75 181.00
  Q 224.75 181.14 224.75 181.27
  Q 224.75 181.44 224.58 181.45
  L 221.78 181.61
  A 0.63 0.62 48.9 0 0 221.70 182.85
  Z"
/>
<path fill="#ffffff" d="
  M 241.99 180.53
  A 0.01 0.01 0.0 0 1 242.00 180.52
  L 242.13 180.52
  A 0.76 0.72 89.7 0 1 242.86 181.28
  L 242.88 186.00
  A 0.76 0.72 89.7 0 1 242.17 186.76
  L 242.04 186.76
  A 0.01 0.01 0.0 0 1 242.03 186.75
  L 241.99 180.53
  Z"
/>
<path fill="#ffffff" d="
  M 249.27 185.92
  L 250.45 185.47
  A 0.37 0.37 0.0 0 1 250.86 186.07
  Q 249.13 187.98 247.22 186.50
  C 243.47 183.58 247.04 178.69 250.85 181.29
  A 0.27 0.27 0.0 0 1 250.64 181.78
  L 248.69 181.39
  Q 248.22 181.30 247.80 181.53
  Q 245.82 182.58 246.87 184.92
  A 1.90 1.90 0.0 0 0 249.27 185.92
  Z"
/>
<path fill="#ffffff" d="
  M 255.55 186.00
  L 257.31 186.00
  A 0.44 0.44 0.0 0 1 257.62 186.75
  L 257.42 186.95
  Q 257.34 187.04 257.23 187.02
  L 254.32 186.69
  Q 253.75 186.63 253.75 186.06
  L 253.75 181.13
  Q 253.75 180.50 254.38 180.50
  L 257.24 180.50
  Q 257.74 180.50 257.75 180.99
  Q 257.75 181.13 257.75 181.27
  A 0.13 0.13 0.0 0 1 257.63 181.40
  L 255.24 181.72
  A 0.59 0.59 0.0 0 0 255.21 182.89
  L 257.51 183.31
  A 0.33 0.33 0.0 0 1 257.46 183.97
  L 255.91 184.01
  Q 255.41 184.03 255.00 184.30
  Q 254.15 184.87 254.88 185.70
  A 0.90 0.86 -19.7 0 0 255.55 186.00
  Z"
/>
<path fill="#ffffff" d="
  M 261.74 181.45
  A 0.86 0.86 0.0 0 0 261.96 183.10
  Q 264.77 183.47 264.05 186.14
  Q 263.90 186.70 263.32 186.75
  L 260.92 186.98
  A 0.46 0.46 0.0 0 1 260.46 186.32
  Q 260.55 186.11 260.60 185.96
  Q 260.65 185.77 260.85 185.80
  L 262.50 186.09
  A 0.82 0.82 0.0 0 0 262.99 184.54
  L 261.34 183.74
  A 1.60 1.60 0.0 0 1 261.12 180.98
  Q 262.66 179.91 263.94 181.31
  A 0.29 0.29 0.0 0 1 263.57 181.75
  Q 262.58 181.09 261.74 181.45
  Z"
/>
<circle fill="#111111" cx="113.14" cy="183.74" r="2.30"/>
<ellipse fill="#111111" cx="0.00" cy="0.00" transform="translate(121.14,182.23) rotate(18.1)" rx="1.19" ry="1.02"/>
<circle fill="#111111" cx="181.51" cy="183.72" r="2.32"/>
<path fill="#111111" d="
  M 228.91 182.79
  A 0.31 0.31 0.0 0 1 228.69 182.37
  L 229.12 181.35
  A 0.62 0.61 -54.3 0 1 230.15 181.18
  L 231.06 182.23
  A 0.57 0.57 0.0 0 1 230.51 183.16
  L 228.91 182.79
  Z"
/>
<path fill="#111111" d="
  M 137.98 182.16
  A 0.64 0.64 0.0 0 1 138.62 181.52
  L 139.05 181.51
  A 2.45 2.04 -0.3 0 1 141.51 183.54
  L 141.51 183.96
  A 2.45 2.04 -0.3 0 1 139.07 186.01
  L 138.64 186.02
  A 0.64 0.64 0.0 0 1 138.00 185.38
  L 137.98 182.16
  Z"
/>
<path fill="#111111" d="
  M 163.98 182.91
  Q 164.25 184.22 163.16 184.47
  A 0.67 0.67 0.0 0 1 162.53 183.34
  L 163.20 182.68
  Q 163.80 182.07 163.98 182.91
  Z"
/>
<path fill="#ffffff" d="
  M 0.00 233.68
  L 0.88 237.79
  A 0.89 0.89 0.0 0 0 1.56 238.47
  L 4.19 239.00
  L 0.00 239.00
  L 0.00 233.68
  Z"
/>
<path fill="#ffffff" d="
  M 366.00 236.81
  L 366.00 239.00
  L 363.44 239.00
  Q 366.13 239.04 366.00 236.81
  Z"
/>
</svg>
