<?xml version="1.0" encoding="UTF-8" standalone="no"?>
<!DOCTYPE svg PUBLIC "-//W3C//DTD SVG 1.1//EN" "http://www.w3.org/Graphics/SVG/1.1/DTD/svg11.dtd">
<svg xmlns="http://www.w3.org/2000/svg" version="1.1" viewBox="0.00 0.00 142.00 176.00">
<g stroke-width="5.00" fill="none" stroke-linecap="butt">
<path stroke="#8c8c8c" vector-effect="non-scaling-stroke" d="
  M 30.74 98.00
  L 30.77 112.77
  A 2.73 2.73 0.0 0 0 32.58 115.34
  Q 56.28 123.75 80.72 132.59
  Q 83.15 133.46 84.26 133.02
  Q 101.23 126.28 118.07 119.51
  A 1.08 1.08 0.0 0 0 118.75 118.51
  L 118.75 91.00
  Q 118.75 90.50 119.25 90.50
  L 124.01 90.50
  A 1.05 1.05 0.0 0 0 124.77 88.72
  L 119.06 82.74
  A 1.17 1.14 -67.1 0 1 118.75 81.95
  L 118.75 80.21
  Q 118.75 79.21 117.78 78.94
  Q 93.74 72.30 70.01 65.72
  Q 68.00 65.17 65.98 65.68
  Q 48.86 70.05 31.51 74.51
  Q 30.75 74.70 30.75 75.49
  L 30.75 87.36
  Q 30.75 88.05 30.09 88.24
  L 27.31 89.08
  Q 26.86 89.21 26.55 89.55
  Q 24.62 91.68 25.05 94.70
  Q 25.13 95.24 25.64 95.44
  L 30.24 97.27
  A 0.80 0.78 11.1 0 1 30.74 98.00"
/>
<path stroke="#8c8c8c" vector-effect="non-scaling-stroke" d="
  M 113.60 80.63
  A 0.32 0.32 0.0 0 0 113.57 80.03
  L 68.04 67.28
  A 0.32 0.32 0.0 0 0 67.88 67.28
  L 36.52 75.52
  A 0.32 0.32 0.0 0 0 36.50 76.13
  L 83.18 92.69
  A 0.32 0.32 0.0 0 0 83.40 92.69
  L 113.60 80.63"
/>
<path stroke="#8c8c8c" vector-effect="non-scaling-stroke" d="
  M 56.57 110.74
  A 1.14 1.13 21.0 0 1 56.07 109.62
  Q 56.22 108.58 57.38 108.98
  Q 69.53 113.13 81.65 117.46
  Q 82.25 117.68 82.25 117.04
  L 82.25 115.01
  Q 82.25 114.47 81.74 114.30
  Q 70.63 110.45 59.60 106.42
  Q 58.93 106.18 58.62 105.82
  Q 57.97 105.06 58.77 104.41
  A 1.04 1.03 -54.5 0 1 59.76 104.24
  L 81.55 111.98
  Q 82.25 112.23 82.25 111.49
  L 82.25 95.18
  Q 82.25 94.51 81.62 94.28
  L 33.58 77.35
  A 0.61 0.60 9.5 0 0 32.77 77.92
  L 32.89 89.78
  Q 32.89 90.22 33.31 90.37
  L 61.08 100.27
  A 0.82 0.80 88.0 0 1 61.56 100.73
  Q 62.03 101.90 60.48 102.11
  Q 57.02 102.58 55.91 105.71
  A 1.26 1.26 0.0 0 1 54.27 106.47
  L 33.53 98.55
  Q 32.93 98.32 32.94 98.96
  L 33.03 112.73
  Q 33.03 113.24 33.51 113.41
  L 71.60 126.89
  Q 72.29 127.14 71.91 126.51
  Q 66.07 116.83 56.57 110.74"
/>
<path stroke="#8c8c8c" vector-effect="non-scaling-stroke" d="
  M 105.62 91.35
  A 0.94 0.93 -19.7 0 1 104.81 90.97
  Q 104.03 89.89 105.12 89.43
  Q 110.58 87.12 116.12 84.95
  Q 116.75 84.70 116.75 84.02
  L 116.75 82.52
  A 0.53 0.53 0.0 0 0 116.03 82.03
  L 85.00 94.31
  A 0.77 0.76 -10.7 0 0 84.51 95.02
  L 84.47 111.27
  Q 84.47 111.97 85.12 111.71
  Q 89.86 109.78 94.75 107.88
  Q 95.37 107.64 95.73 107.84
  Q 96.24 108.12 96.27 108.93
  A 0.88 0.87 -12.0 0 1 95.72 109.77
  L 85.00 114.01
  Q 84.50 114.21 84.50 114.75
  L 84.50 116.71
  Q 84.50 117.39 85.13 117.15
  L 93.80 113.82
  A 1.12 1.12 0.0 0 1 94.99 115.67
  Q 90.51 120.08 84.99 123.14
  Q 84.50 123.41 84.50 123.97
  L 84.50 129.98
  Q 84.50 130.70 85.17 130.44
  L 116.25 117.93
  A 0.80 0.78 -11.1 0 0 116.75 117.20
  L 116.75 91.60
  A 0.85 0.85 0.0 0 0 115.85 90.75
  L 105.62 91.35"
/>
<path stroke="#8c8c8c" vector-effect="non-scaling-stroke" d="
  M 119.73 86.34
  Q 119.24 85.78 118.55 86.06
  L 112.92 88.41
  A 0.18 0.18 0.0 0 0 113.00 88.76
  L 120.82 88.39
  Q 121.50 88.36 121.05 87.85
  L 119.73 86.34"
/>
<path stroke="#8c8c8c" vector-effect="non-scaling-stroke" d="
  M 55.56 102.26
  L 56.42 101.47
  Q 56.94 101.00 56.28 100.77
  L 31.66 92.11
  Q 31.08 91.90 30.89 91.31
  L 30.77 90.94
  Q 30.61 90.43 30.08 90.48
  Q 27.62 90.71 27.08 92.98
  A 0.80 0.79 17.3 0 0 27.57 93.90
  L 53.60 104.01
  A 0.67 0.65 27.2 0 0 54.39 103.77
  L 54.87 103.06
  Q 55.17 102.62 55.56 102.26"
/>
<path stroke="#8c8c8c" vector-effect="non-scaling-stroke" d="
  M 80.98 119.61
  Q 72.86 116.67 64.70 113.77
  A 0.13 0.13 0.0 0 0 64.57 113.98
  Q 69.88 119.36 74.03 125.68
  A 1.01 1.01 0.0 0 0 75.38 126.01
  L 87.71 119.09
  Q 88.15 118.84 87.76 118.51
  Q 87.59 118.36 87.32 118.54
  C 85.12 120.01 83.65 120.58 80.98 119.61"
/>
<path stroke="#8c8c8c" vector-effect="non-scaling-stroke" d="
  M 81.94 130.53
  A 0.34 0.34 0.0 0 0 82.39 130.19
  L 82.10 125.43
  A 0.34 0.34 0.0 0 0 81.61 125.15
  L 76.11 127.87
  A 0.34 0.34 0.0 0 0 76.15 128.50
  L 81.94 130.53"
/>
<path stroke="#8c8c8c" vector-effect="non-scaling-stroke" d="
  M 115.6525 94.3410
  A 0.99 0.99 0.0 0 0 114.3676 93.7850
  L 98.7288 99.9769
  A 0.99 0.99 0.0 0 0 98.1727 101.2618
  L 98.1875 101.2990
  A 0.99 0.99 0.0 0 0 99.4724 101.8550
  L 115.1112 95.6631
  A 0.99 0.99 0.0 0 0 115.6673 94.3782
  L 115.6525 94.3410"
/>
<path stroke="#8c8c8c" vector-effect="non-scaling-stroke" d="
  M 115.1550 112.1301
  A 1.05 1.05 0.0 0 0 113.7912 111.5427
  L 88.7975 121.4889
  A 1.05 1.05 0.0 0 0 88.2102 122.8527
  L 88.2250 122.8899
  A 1.05 1.05 0.0 0 0 89.5888 123.4773
  L 114.5825 113.5311
  A 1.05 1.05 0.0 0 0 115.1698 112.1673
  L 115.1550 112.1301"
/>
</g>
<path fill="#ffffff" d="
  M 0.00 0.00
  L 142.00 0.00
  L 142.00 176.00
  L 0.00 176.00
  L 0.00 0.00
  Z
  M 30.74 98.00
  L 30.77 112.77
  A 2.73 2.73 0.0 0 0 32.58 115.34
  Q 56.28 123.75 80.72 132.59
  Q 83.15 133.46 84.26 133.02
  Q 101.23 126.28 118.07 119.51
  A 1.08 1.08 0.0 0 0 118.75 118.51
  L 118.75 91.00
  Q 118.75 90.50 119.25 90.50
  L 124.01 90.50
  A 1.05 1.05 0.0 0 0 124.77 88.72
  L 119.06 82.74
  A 1.17 1.14 -67.1 0 1 118.75 81.95
  L 118.75 80.21
  Q 118.75 79.21 117.78 78.94
  Q 93.74 72.30 70.01 65.72
  Q 68.00 65.17 65.98 65.68
  Q 48.86 70.05 31.51 74.51
  Q 30.75 74.70 30.75 75.49
  L 30.75 87.36
  Q 30.75 88.05 30.09 88.24
  L 27.31 89.08
  Q 26.86 89.21 26.55 89.55
  Q 24.62 91.68 25.05 94.70
  Q 25.13 95.24 25.64 95.44
  L 30.24 97.27
  A 0.80 0.78 11.1 0 1 30.74 98.00
  Z"
/>
<path fill="#191819" d="
  M 30.24 97.27
  L 25.64 95.44
  Q 25.13 95.24 25.05 94.70
  Q 24.62 91.68 26.55 89.55
  Q 26.86 89.21 27.31 89.08
  L 30.09 88.24
  Q 30.75 88.05 30.75 87.36
  L 30.75 75.49
  Q 30.75 74.70 31.51 74.51
  Q 48.86 70.05 65.98 65.68
  Q 68.00 65.17 70.01 65.72
  Q 93.74 72.30 117.78 78.94
  Q 118.75 79.21 118.75 80.21
  L 118.75 81.95
  A 1.17 1.14 -67.1 0 0 119.06 82.74
  L 124.77 88.72
  A 1.05 1.05 0.0 0 1 124.01 90.50
  L 119.25 90.50
  Q 118.75 90.50 118.75 91.00
  L 118.75 118.51
  A 1.08 1.08 0.0 0 1 118.07 119.51
  Q 101.23 126.28 84.26 133.02
  Q 83.15 133.46 80.72 132.59
  Q 56.28 123.75 32.58 115.34
  A 2.73 2.73 0.0 0 1 30.77 112.77
  L 30.74 98.00
  A 0.80 0.78 11.1 0 0 30.24 97.27
  Z
  M 113.60 80.63
  A 0.32 0.32 0.0 0 0 113.57 80.03
  L 68.04 67.28
  A 0.32 0.32 0.0 0 0 67.88 67.28
  L 36.52 75.52
  A 0.32 0.32 0.0 0 0 36.50 76.13
  L 83.18 92.69
  A 0.32 0.32 0.0 0 0 83.40 92.69
  L 113.60 80.63
  Z
  M 56.57 110.74
  A 1.14 1.13 21.0 0 1 56.07 109.62
  Q 56.22 108.58 57.38 108.98
  Q 69.53 113.13 81.65 117.46
  Q 82.25 117.68 82.25 117.04
  L 82.25 115.01
  Q 82.25 114.47 81.74 114.30
  Q 70.63 110.45 59.60 106.42
  Q 58.93 106.18 58.62 105.82
  Q 57.97 105.06 58.77 104.41
  A 1.04 1.03 -54.5 0 1 59.76 104.24
  L 81.55 111.98
  Q 82.25 112.23 82.25 111.49
  L 82.25 95.18
  Q 82.25 94.51 81.62 94.28
  L 33.58 77.35
  A 0.61 0.60 9.5 0 0 32.77 77.92
  L 32.89 89.78
  Q 32.89 90.22 33.31 90.37
  L 61.08 100.27
  A 0.82 0.80 88.0 0 1 61.56 100.73
  Q 62.03 101.90 60.48 102.11
  Q 57.02 102.58 55.91 105.71
  A 1.26 1.26 0.0 0 1 54.27 106.47
  L 33.53 98.55
  Q 32.93 98.32 32.94 98.96
  L 33.03 112.73
  Q 33.03 113.24 33.51 113.41
  L 71.60 126.89
  Q 72.29 127.14 71.91 126.51
  Q 66.07 116.83 56.57 110.74
  Z
  M 105.62 91.35
  A 0.94 0.93 -19.7 0 1 104.81 90.97
  Q 104.03 89.89 105.12 89.43
  Q 110.58 87.12 116.12 84.95
  Q 116.75 84.70 116.75 84.02
  L 116.75 82.52
  A 0.53 0.53 0.0 0 0 116.03 82.03
  L 85.00 94.31
  A 0.77 0.76 -10.7 0 0 84.51 95.02
  L 84.47 111.27
  Q 84.47 111.97 85.12 111.71
  Q 89.86 109.78 94.75 107.88
  Q 95.37 107.64 95.73 107.84
  Q 96.24 108.12 96.27 108.93
  A 0.88 0.87 -12.0 0 1 95.72 109.77
  L 85.00 114.01
  Q 84.50 114.21 84.50 114.75
  L 84.50 116.71
  Q 84.50 117.39 85.13 117.15
  L 93.80 113.82
  A 1.12 1.12 0.0 0 1 94.99 115.67
  Q 90.51 120.08 84.99 123.14
  Q 84.50 123.41 84.50 123.97
  L 84.50 129.98
  Q 84.50 130.70 85.17 130.44
  L 116.25 117.93
  A 0.80 0.78 -11.1 0 0 116.75 117.20
  L 116.75 91.60
  A 0.85 0.85 0.0 0 0 115.85 90.75
  L 105.62 91.35
  Z
  M 119.73 86.34
  Q 119.24 85.78 118.55 86.06
  L 112.92 88.41
  A 0.18 0.18 0.0 0 0 113.00 88.76
  L 120.82 88.39
  Q 121.50 88.36 121.05 87.85
  L 119.73 86.34
  Z
  M 55.56 102.26
  L 56.42 101.47
  Q 56.94 101.00 56.28 100.77
  L 31.66 92.11
  Q 31.08 91.90 30.89 91.31
  L 30.77 90.94
  Q 30.61 90.43 30.08 90.48
  Q 27.62 90.71 27.08 92.98
  A 0.80 0.79 17.3 0 0 27.57 93.90
  L 53.60 104.01
  A 0.67 0.65 27.2 0 0 54.39 103.77
  L 54.87 103.06
  Q 55.17 102.62 55.56 102.26
  Z
  M 80.98 119.61
  Q 72.86 116.67 64.70 113.77
  A 0.13 0.13 0.0 0 0 64.57 113.98
  Q 69.88 119.36 74.03 125.68
  A 1.01 1.01 0.0 0 0 75.38 126.01
  L 87.71 119.09
  Q 88.15 118.84 87.76 118.51
  Q 87.59 118.36 87.32 118.54
  C 85.12 120.01 83.65 120.58 80.98 119.61
  Z
  M 81.94 130.53
  A 0.34 0.34 0.0 0 0 82.39 130.19
  L 82.10 125.43
  A 0.34 0.34 0.0 0 0 81.61 125.15
  L 76.11 127.87
  A 0.34 0.34 0.0 0 0 76.15 128.50
  L 81.94 130.53
  Z"
/>
<path fill="#ffffff" d="
  M 113.60 80.63
  L 83.40 92.69
  A 0.32 0.32 0.0 0 1 83.18 92.69
  L 36.50 76.13
  A 0.32 0.32 0.0 0 1 36.52 75.52
  L 67.88 67.28
  A 0.32 0.32 0.0 0 1 68.04 67.28
  L 113.57 80.03
  A 0.32 0.32 0.0 0 1 113.60 80.63
  Z"
/>
<path fill="#ffffff" d="
  M 56.57 110.74
  Q 66.07 116.83 71.91 126.51
  Q 72.29 127.14 71.60 126.89
  L 33.51 113.41
  Q 33.03 113.24 33.03 112.73
  L 32.94 98.96
  Q 32.93 98.32 33.53 98.55
  L 54.27 106.47
  A 1.26 1.26 0.0 0 0 55.91 105.71
  Q 57.02 102.58 60.48 102.11
  Q 62.03 101.90 61.56 100.73
  A 0.82 0.80 88.0 0 0 61.08 100.27
  L 33.31 90.37
  Q 32.89 90.22 32.89 89.78
  L 32.77 77.92
  A 0.61 0.60 9.5 0 1 33.58 77.35
  L 81.62 94.28
  Q 82.25 94.51 82.25 95.18
  L 82.25 111.49
  Q 82.25 112.23 81.55 111.98
  L 59.76 104.24
  A 1.04 1.03 -54.5 0 0 58.77 104.41
  Q 57.97 105.06 58.62 105.82
  Q 58.93 106.18 59.60 106.42
  Q 70.63 110.45 81.74 114.30
  Q 82.25 114.47 82.25 115.01
  L 82.25 117.04
  Q 82.25 117.68 81.65 117.46
  Q 69.53 113.13 57.38 108.98
  Q 56.22 108.58 56.07 109.62
  A 1.14 1.13 21.0 0 0 56.57 110.74
  Z"
/>
<path fill="#ffffff" d="
  M 105.62 91.35
  L 115.85 90.75
  A 0.85 0.85 0.0 0 1 116.75 91.60
  L 116.75 117.20
  A 0.80 0.78 -11.1 0 1 116.25 117.93
  L 85.17 130.44
  Q 84.50 130.70 84.50 129.98
  L 84.50 123.97
  Q 84.50 123.41 84.99 123.14
  Q 90.51 120.08 94.99 115.67
  A 1.12 1.12 0.0 0 0 93.80 113.82
  L 85.13 117.15
  Q 84.50 117.39 84.50 116.71
  L 84.50 114.75
  Q 84.50 114.21 85.00 114.01
  L 95.72 109.77
  A 0.88 0.87 -12.0 0 0 96.27 108.93
  Q 96.24 108.12 95.73 107.84
  Q 95.37 107.64 94.75 107.88
  Q 89.86 109.78 85.12 111.71
  Q 84.47 111.97 84.47 111.27
  L 84.51 95.02
  A 0.77 0.76 -10.7 0 1 85.00 94.31
  L 116.03 82.03
  A 0.53 0.53 0.0 0 1 116.75 82.52
  L 116.75 84.02
  Q 116.75 84.70 116.12 84.95
  Q 110.58 87.12 105.12 89.43
  Q 104.03 89.89 104.81 90.97
  A 0.94 0.93 -19.7 0 0 105.62 91.35
  Z
  M 115.6525 94.3410
  A 0.99 0.99 0.0 0 0 114.3676 93.7850
  L 98.7288 99.9769
  A 0.99 0.99 0.0 0 0 98.1727 101.2618
  L 98.1875 101.2990
  A 0.99 0.99 0.0 0 0 99.4724 101.8550
  L 115.1112 95.6631
  A 0.99 0.99 0.0 0 0 115.6673 94.3782
  L 115.6525 94.3410
  Z
  M 115.1550 112.1301
  A 1.05 1.05 0.0 0 0 113.7912 111.5427
  L 88.7975 121.4889
  A 1.05 1.05 0.0 0 0 88.2102 122.8527
  L 88.2250 122.8899
  A 1.05 1.05 0.0 0 0 89.5888 123.4773
  L 114.5825 113.5311
  A 1.05 1.05 0.0 0 0 115.1698 112.1673
  L 115.1550 112.1301
  Z"
/>
<path fill="#ffffff" d="
  M 119.73 86.34
  L 121.05 87.85
  Q 121.50 88.36 120.82 88.39
  L 113.00 88.76
  A 0.18 0.18 0.0 0 1 112.92 88.41
  L 118.55 86.06
  Q 119.24 85.78 119.73 86.34
  Z"
/>
<path fill="#ffffff" d="
  M 54.87 103.06
  L 54.39 103.77
  A 0.67 0.65 27.2 0 1 53.60 104.01
  L 27.57 93.90
  A 0.80 0.79 17.3 0 1 27.08 92.98
  Q 27.62 90.71 30.08 90.48
  Q 30.61 90.43 30.77 90.94
  L 30.89 91.31
  Q 31.08 91.90 31.66 92.11
  L 56.28 100.77
  Q 56.94 101.00 56.42 101.47
  L 55.56 102.26
  Q 55.17 102.62 54.87 103.06
  Z"
/>
<rect fill="#191819" x="-9.40" y="-1.01" transform="translate(106.92,97.82) rotate(-21.6)" width="18.80" height="2.02" rx="0.99"/>
<rect fill="#191819" x="-14.50" y="-1.07" transform="translate(101.69,117.51) rotate(-21.7)" width="29.00" height="2.14" rx="1.05"/>
<path fill="#ffffff" d="
  M 80.98 119.61
  C 83.65 120.58 85.12 120.01 87.32 118.54
  Q 87.59 118.36 87.76 118.51
  Q 88.15 118.84 87.71 119.09
  L 75.38 126.01
  A 1.01 1.01 0.0 0 1 74.03 125.68
  Q 69.88 119.36 64.57 113.98
  A 0.13 0.13 0.0 0 1 64.70 113.77
  Q 72.86 116.67 80.98 119.61
  Z"
/>
<path fill="#ffffff" d="
  M 81.94 130.53
  L 76.15 128.50
  A 0.34 0.34 0.0 0 1 76.11 127.87
  L 81.61 125.15
  A 0.34 0.34 0.0 0 1 82.10 125.43
  L 82.39 130.19
  A 0.34 0.34 0.0 0 1 81.94 130.53
  Z"
/>
</svg>
