<?xml version="1.0" encoding="UTF-8" standalone="no"?>
<!DOCTYPE svg PUBLIC "-//W3C//DTD SVG 1.1//EN" "http://www.w3.org/Graphics/SVG/1.1/DTD/svg11.dtd">
<svg xmlns="http://www.w3.org/2000/svg" version="1.1" viewBox="0.00 0.00 137.00 173.00">
<g stroke-width="5.00" fill="none" stroke-linecap="butt">
<path stroke="#8d8d8d" vector-effect="non-scaling-stroke" d="
  M 101.31 50.44
  Q 84.94 44.17 68.58 37.90
  C 62.82 35.69 58.36 34.49 52.28 36.38
  Q 44.51 38.81 33.24 41.99
  C 27.25 43.68 20.21 46.88 24.50 54.81
  Q 27.61 60.56 30.99 70.13
  C 39.25 93.48 47.61 117.52 50.37 142.25
  Q 50.42 142.75 50.76 143.12
  C 53.47 146.15 60.34 144.23 64.19 143.28
  Q 89.62 136.97 114.81 129.83
  C 121.16 128.03 122.76 124.38 122.92 118.06
  C 123.14 108.81 120.73 98.63 117.76 89.24
  Q 112.34 72.12 106.24 55.21
  Q 105.02 51.86 101.31 50.44"
/>
<path stroke="#8d8d8d" vector-effect="non-scaling-stroke" d="
  M 70.28 67.40
  A 1.18 1.18 0.0 0 1 69.07 66.44
  C 67.08 56.11 65.67 47.91 57.89 39.16
  Q 57.58 38.81 57.11 38.80
  Q 55.78 38.78 54.47 39.18
  Q 40.58 43.37 27.33 48.78
  A 0.53 0.53 0.0 0 0 27.04 49.47
  C 38.99 78.42 50.53 108.51 54.03 139.85
  Q 54.09 140.41 54.65 140.46
  Q 56.54 140.60 58.45 140.21
  C 78.18 136.10 95.58 132.71 116.30 125.01
  C 118.52 124.19 119.61 123.03 119.64 120.49
  Q 119.76 110.61 117.33 100.98
  Q 111.65 78.52 103.71 56.77
  Q 103.54 56.28 103.14 56.61
  C 94.41 63.97 81.34 67.00 70.28 67.40"
/>
<path stroke="#8d8d8d" vector-effect="non-scaling-stroke" d="
  M 101.10 54.24
  L 61.35 39.08
  A 0.40 0.40 0.0 0 0 60.95 39.75
  C 68.02 45.89 69.90 54.75 71.60 63.60
  A 0.79 0.79 0.0 0 0 72.46 64.23
  Q 87.80 62.45 101.14 54.78
  Q 101.69 54.46 101.10 54.24"
/>
</g>
<path fill="#ffffff" d="
  M 0.00 0.00
  L 137.00 0.00
  L 137.00 173.00
  L 0.00 173.00
  L 0.00 0.00
  Z
  M 101.31 50.44
  Q 84.94 44.17 68.58 37.90
  C 62.82 35.69 58.36 34.49 52.28 36.38
  Q 44.51 38.81 33.24 41.99
  C 27.25 43.68 20.21 46.88 24.50 54.81
  Q 27.61 60.56 30.99 70.13
  C 39.25 93.48 47.61 117.52 50.37 142.25
  Q 50.42 142.75 50.76 143.12
  C 53.47 146.15 60.34 144.23 64.19 143.28
  Q 89.62 136.97 114.81 129.83
  C 121.16 128.03 122.76 124.38 122.92 118.06
  C 123.14 108.81 120.73 98.63 117.76 89.24
  Q 112.34 72.12 106.24 55.21
  Q 105.02 51.86 101.31 50.44
  Z"
/>
<path fill="#1a1a1a" d="
  M 101.31 50.44
  Q 105.02 51.86 106.24 55.21
  Q 112.34 72.12 117.76 89.24
  C 120.73 98.63 123.14 108.81 122.92 118.06
  C 122.76 124.38 121.16 128.03 114.81 129.83
  Q 89.62 136.97 64.19 143.28
  C 60.34 144.23 53.47 146.15 50.76 143.12
  Q 50.42 142.75 50.37 142.25
  C 47.61 117.52 39.25 93.48 30.99 70.13
  Q 27.61 60.56 24.50 54.81
  C 20.21 46.88 27.25 43.68 33.24 41.99
  Q 44.51 38.81 52.28 36.38
  C 58.36 34.49 62.82 35.69 68.58 37.90
  Q 84.94 44.17 101.31 50.44
  Z
  M 70.28 67.40
  A 1.18 1.18 0.0 0 1 69.07 66.44
  C 67.08 56.11 65.67 47.91 57.89 39.16
  Q 57.58 38.81 57.11 38.80
  Q 55.78 38.78 54.47 39.18
  Q 40.58 43.37 27.33 48.78
  A 0.53 0.53 0.0 0 0 27.04 49.47
  C 38.99 78.42 50.53 108.51 54.03 139.85
  Q 54.09 140.41 54.65 140.46
  Q 56.54 140.60 58.45 140.21
  C 78.18 136.10 95.58 132.71 116.30 125.01
  C 118.52 124.19 119.61 123.03 119.64 120.49
  Q 119.76 110.61 117.33 100.98
  Q 111.65 78.52 103.71 56.77
  Q 103.54 56.28 103.14 56.61
  C 94.41 63.97 81.34 67.00 70.28 67.40
  Z
  M 101.10 54.24
  L 61.35 39.08
  A 0.40 0.40 0.0 0 0 60.95 39.75
  C 68.02 45.89 69.90 54.75 71.60 63.60
  A 0.79 0.79 0.0 0 0 72.46 64.23
  Q 87.80 62.45 101.14 54.78
  Q 101.69 54.46 101.10 54.24
  Z"
/>
<path fill="#ffffff" d="
  M 70.28 67.40
  C 81.34 67.00 94.41 63.97 103.14 56.61
  Q 103.54 56.28 103.71 56.77
  Q 111.65 78.52 117.33 100.98
  Q 119.76 110.61 119.64 120.49
  C 119.61 123.03 118.52 124.19 116.30 125.01
  C 95.58 132.71 78.18 136.10 58.45 140.21
  Q 56.54 140.60 54.65 140.46
  Q 54.09 140.41 54.03 139.85
  C 50.53 108.51 38.99 78.42 27.04 49.47
  A 0.53 0.53 0.0 0 1 27.33 48.78
  Q 40.58 43.37 54.47 39.18
  Q 55.78 38.78 57.11 38.80
  Q 57.58 38.81 57.89 39.16
  C 65.67 47.91 67.08 56.11 69.07 66.44
  A 1.18 1.18 0.0 0 0 70.28 67.40
  Z"
/>
<path fill="#ffffff" d="
  M 61.35 39.08
  L 101.10 54.24
  Q 101.69 54.46 101.14 54.78
  Q 87.80 62.45 72.46 64.23
  A 0.79 0.79 0.0 0 1 71.60 63.60
  C 69.90 54.75 68.02 45.89 60.95 39.75
  A 0.40 0.40 0.0 0 1 61.35 39.08
  Z"
/>
</svg>
